<svg width="80" height="80" viewBox="0 0 80 80" fill="none" xmlns="http://www.w3.org/2000/svg">
<g clip-path="url(#clip0)">
<path d="M67.0476 13.2727C81.4314 27.6565 84.7097 47.705 70.3259 62.0888C55.9421 76.4725 29.3411 79.7508 14.9573 65.3671C0.57358 50.9833 -6.50835 34.7344 7.87949 20.3506C22.2673 5.96683 52.6638 -1.1151 67.0476 13.2727Z" fill="#E1FFF6"/>
<mask id="mask0" mask-type="alpha" maskUnits="userSpaceOnUse" x="0" y="5" width="80" height="70">
<path d="M67.0476 13.2727C81.4314 27.6565 84.7097 47.705 70.3259 62.0888C55.9421 76.4725 29.3411 79.7508 14.9573 65.3671C0.57358 50.9833 -6.50835 34.7344 7.87949 20.3506C22.2673 5.96683 52.6638 -1.1151 67.0476 13.2727Z" fill="#E1FFF6"/>
</mask>
<g mask="url(#mask0)">
<rect opacity="0.16" x="14" y="68.7727" width="47.0561" height="2.82193" fill="#D3D4DD"/>
<path d="M57.8035 73.6879L51.718 57.2812L45.4229 61.7337C45.4229 61.7337 48.6986 69.3158 50.6682 74.5273C52.6378 79.739 57.8035 73.6879 57.8035 73.6879Z" fill="#FFC28F"/>
<path d="M50.7768 48.8616C50.7768 48.8616 53.5301 49.0147 54.0219 53.1443C54.5136 57.274 55.9325 64.5643 55.9325 64.5643C55.9325 64.5643 49.8251 65.8957 48.7583 65.6763L50.7768 48.8616Z" fill="#00CA8D"/>
<path d="M30.4208 47.4142L38.9863 46.6004L50.7769 48.8744C50.7769 48.8744 50.4369 64.0281 48.6482 71.9721C48.3395 73.3625 47.5 75 45.5001 75H30C28.6004 73.8428 28.0993 71.554 28.1146 69.7379L29.216 48.6696C29.2513 48.0106 29.7637 47.4766 30.4208 47.4142Z" fill="#00CA8D"/>
<g opacity="0.5">
<g filter="url(#filter0_d)">
<path d="M48.7705 64.9178L50.4582 55.301L50.0539 65.0564C50.0391 65.4134 49.7378 65.6907 49.3808 65.676C49.0239 65.6612 48.7465 65.3598 48.7613 65.0029C48.7627 64.9744 48.7657 64.946 48.7705 64.9178Z" fill="#00AE70"/>
</g>
</g>
<path d="M18.0907 73.9478C18.1318 73.662 16.1274 70.2251 16.1274 70.2251L21.7478 58.6268C22.5253 56.3129 27.4092 48.2824 29.409 49.6823C30.8775 50.71 29.9194 59.7186 29.1404 61.3329L23.1769 72.7099L18.0907 73.9478Z" fill="#FFBF9D"/>
<path d="M31.2509 47.3068C31.2509 47.3068 26.3181 47.6682 24.403 50.676C21.9788 54.4833 17.7866 60.6494 17.7866 60.6494L30.3882 65.3711L31.2509 47.3068Z" fill="#00CA8D"/>
<g opacity="0.5">
<path d="M28.1164 63.4994L33.3909 55.7145L29.2323 64.1484C29.0742 64.4689 28.6863 64.6006 28.3659 64.4426C28.0454 64.2845 27.9137 63.8966 28.0717 63.5762C28.085 63.5497 28.0999 63.524 28.1164 63.4994Z" fill="#00AE70"/>
</g>
<path d="M51.3316 35.4448C50.167 34.4643 48.8101 32.2705 48.8101 32.2705L47.657 29.333L44.0237 30.3283L45.7805 33.9438L46.7778 34.6385L39.438 43.1903C39.438 43.1903 44.7557 48.3266 49.8827 45.0822C54.2023 42.3485 53.5042 37.274 51.3316 35.4448Z" fill="#4D515F"/>
<path d="M31.2513 31.2711C31.2513 31.2711 30.8281 33.9439 28.5818 35.445C26.3509 36.9358 25.7111 42.3487 30.0308 45.0823C35.1577 48.3268 40.4754 43.1904 40.4754 43.1904L31.2513 31.2711Z" fill="#4D515F"/>
<path d="M45.7319 26.4191C45.7319 26.4191 35.409 21.9758 31.8968 28.8138C29.8315 32.8349 32.2998 39.881 37.3713 41.8899C42.2023 43.8037 40.8314 28.0626 40.8314 28.0626L45.7319 26.4191Z" fill="#4D515F"/>
<path d="M45.0084 36.1633C44.9282 37.1151 45.4292 38.0216 46.2779 38.4599C47.1266 38.8983 48.1557 38.7823 48.8855 38.166C49.6153 37.5496 49.9019 36.5544 49.6118 35.6443C49.3216 34.7342 48.5118 34.0886 47.56 34.0084C46.9359 33.9557 46.3164 34.1532 45.8379 34.5574C45.3594 34.9615 45.061 35.5392 45.0084 36.1633Z" fill="black" fill-opacity="0.12"/>
<path d="M36.0084 41.1633C35.9282 42.1151 36.4292 43.0216 37.2779 43.4599C38.1266 43.8983 39.1557 43.7823 39.8855 43.166C40.6153 42.5496 40.9019 41.5544 40.6118 40.6443C40.3216 39.7342 39.5118 39.0886 38.56 39.0084C37.9359 38.9557 37.3164 39.1532 36.8379 39.5574C36.3594 39.9615 36.061 40.5392 36.0084 41.1633Z" fill="black" fill-opacity="0.12"/>
<path d="M43.6885 42.7064L43.2869 47.8377C43.1496 49.6399 41.9657 50.5187 40.1928 50.3694C38.6795 50.2419 37.3238 49.3411 37.2627 47.8236L38.2833 39.7789L43.6885 42.7064Z" fill="#FFBF9D"/>
<path d="M43.4061 46.4132L37.4829 41.0199L43.7401 42.181L43.4061 46.4132Z" fill="black" fill-opacity="0.03"/>
<path d="M42.1133 43.5136C45.1474 43.5669 47.6881 41.2141 47.815 38.7376L48.079 32.8931C48.238 29.7893 45.9064 27.1188 42.8095 26.8578C39.6391 26.5907 36.2967 28.8974 36.0296 32.0678L35.8683 36.7707C35.7437 40.4081 38.4867 43.2079 42.1133 43.5136Z" fill="#FFBF9D"/>
<path d="M36.7941 36.2361C36.7941 36.2361 37.0281 34.1328 38.7983 33.0949C40.5685 32.0569 45.4045 30.5449 44.9143 26.7984C44.9143 26.7984 37.416 24.597 34.6517 29.5037C31.8874 34.4106 36.7941 36.2361 36.7941 36.2361Z" fill="#4D515F"/>
<path d="M32.9679 36.3085C32.8876 37.2603 33.3887 38.1667 34.2374 38.6051C35.086 39.0435 36.1152 38.9274 36.845 38.3111C37.5747 37.6948 37.8614 36.6995 37.5712 35.7895C37.2811 34.8794 36.4713 34.2337 35.5195 34.1535C34.2198 34.044 33.0774 35.0088 32.9679 36.3085Z" fill="#FFBF9D"/>
<path fill-rule="evenodd" clip-rule="evenodd" d="M36.085 37.2759C36.085 37.2759 36.2288 35.5698 34.5747 35.7008L36.085 37.2759Z" fill="black" fill-opacity="0.03"/>
<path d="M36.085 37.2759C36.085 37.2759 36.2288 35.5698 34.5747 35.7008" stroke="#FF9A6C" stroke-width="0.184476" stroke-linecap="round" stroke-linejoin="round"/>
<path d="M42.9344 26.7984C42.9344 26.7984 43.4807 29.8767 48.2482 31.937C48.2482 31.937 49.4323 29.7019 46.2606 26.7458C45.9666 26.4721 45.5804 26.319 45.1788 26.3171L41.5024 26.306L42.9344 26.7984Z" fill="#4D515F"/>
<path d="M34.7676 46.9723L39.5439 46.4601L45.8794 47.9013C45.8794 47.9013 45.8505 52.396 40.728 52.0872C35.6054 51.7783 34.7676 46.9723 34.7676 46.9723Z" fill="#FFBF9D"/>
<path d="M27.8185 57.62L30.4742 47.0845L45.2373 51.3741L40.1687 70.4239L25.3623 67.3926L27.8185 57.62Z" fill="#FF6782"/>
<path d="M27.8185 57.62L30.4742 47.0845L45.2373 51.3741L40.1687 70.4239L25.3623 67.3926L27.8185 57.62Z" fill="#FF6782"/>
<path d="M45.2376 51.3741L40.1689 70.424L43.0889 71.0013L48.0972 52.2597L45.2376 51.3741Z" fill="#FF6782"/>
<path d="M45.2376 51.3741L40.1689 70.424L43.0889 71.0013L48.0972 52.2597L45.2376 51.3741Z" fill="#E34C67"/>
<path d="M32.5815 47.5304L33.246 45.4921L47.0846 49.8479L46.6753 51.6354L32.5815 47.5304Z" fill="#E1E1E1"/>
<path d="M31.0586 47.2545L31.3055 46.3428L47.0652 51.1036L46.9083 51.8913L31.0586 47.2545Z" fill="#FAFAFA"/>
<path d="M44.0144 51.0345C44.0144 51.0345 42.8015 49.3423 41.1988 50.2108C40.5683 50.5525 39.7388 55.2896 39.7388 55.2896L40.663 54.8415L41.413 55.7548C41.413 55.7548 42.6396 50.7318 42.9382 50.7295L44.0144 51.0345Z" fill="#FFB100"/>
<path d="M18.8898 67.5033L35.7915 65.9847L37.1912 69.5145L20.7642 74.7527C19.6247 75.1134 18.3816 74.9093 17.4174 74.2031C16.4531 73.497 15.8833 72.3734 15.8833 71.1782C15.8833 69.3939 17.1408 67.8568 18.8898 67.5033Z" fill="#FFBF9D"/>
<path d="M34.9424 66.1412L37.764 65.2487C37.764 65.2487 38.331 63.6797 38.7936 63.0792C39.2561 62.4788 41.8862 60.5258 41.8862 60.5258C42.1904 60.7649 42.2788 61.188 42.0958 61.5289C41.9513 61.7929 40.7313 62.8299 40.7313 62.8299C40.7133 63.1079 40.8397 63.3756 41.0658 63.5383C41.292 63.701 41.5859 63.7359 41.8438 63.6305C42.6657 63.3056 43.6242 62.9323 43.7555 62.9059C43.9015 62.8766 44.5892 61.9147 45.0897 61.1894C45.3899 60.7544 46.1311 60.9637 46.0852 61.4869C46.0826 61.537 46.0655 61.5852 46.0361 61.6258C46.0361 61.6258 46.929 61.414 46.3742 62.7604C46.3742 62.7604 46.788 63.8175 46.2343 64.4512C46.2343 64.4512 46.2262 65.8305 45.8982 66.3714C45.5702 66.9122 41.616 68.6083 41.616 68.6083L36.0669 69.8894L34.9424 66.1412Z" fill="#FFBF9D"/>
<path d="M37.5661 68.765L41.6142 68.6031C41.6512 68.5873 45.1859 67.067 45.8184 66.4574C45.8471 66.4311 45.8723 66.4013 45.8935 66.3686C46.217 65.8352 46.2287 64.465 46.2288 64.4512L46.2287 64.4491L46.23 64.4476C46.4654 64.1408 46.5652 63.7512 46.5063 63.369C46.4854 63.162 46.4393 62.9583 46.369 62.7625L46.3683 62.7605L46.3691 62.7585C46.578 62.2514 46.607 61.9069 46.4556 61.735C46.3413 61.6344 46.1854 61.5956 46.0373 61.631L46.0222 61.6345L46.0317 61.6224C46.0603 61.5827 46.077 61.5355 46.0797 61.4866C46.0999 61.2631 45.9593 61.0564 45.7439 60.9932C45.5072 60.9046 45.2406 60.9864 45.0941 61.1924C44.7176 61.7671 44.3046 62.317 43.8576 62.8387C43.83 62.8705 43.7954 62.8953 43.7564 62.9112C43.6523 62.9322 42.9916 63.1827 41.8458 63.6357C41.5836 63.7404 41.286 63.7037 41.0569 63.5386C40.829 63.3774 40.7031 63.1078 40.7257 62.8296L40.7259 62.8273L40.7275 62.8258C41.2132 62.4266 41.6689 61.9923 42.091 61.5264C42.2214 61.3067 42.2275 61.0348 42.107 60.8096C42.0513 60.7043 41.9763 60.6104 41.886 60.5327C41.7892 60.6046 39.816 62.0752 39.0397 62.8235C38.9533 62.9042 38.8725 62.9907 38.7979 63.0824C38.3413 63.6755 37.7748 65.2349 37.7691 65.2505L37.7683 65.253L37.7656 65.2538L36.8164 67.6405L37.5661 68.765Z" fill="#FFBF9D"/>
<path d="M42.4761 64.8114C42.729 64.8044 42.9796 64.7604 43.2198 64.6807C43.8224 64.5459 44.3856 64.2731 44.865 63.884C45.3048 63.4572 45.628 62.9251 45.804 62.3381C45.9003 62.1088 45.9605 61.866 45.9824 61.6183C45.8558 61.8305 45.7527 62.056 45.675 62.2906C45.4706 62.8372 45.1495 63.3327 44.734 63.7425C44.2735 64.1108 43.7455 64.3856 43.1797 64.5515C42.9364 64.6123 42.7005 64.6995 42.4761 64.8114Z" fill="black" fill-opacity="0.12"/>
<path d="M43.0991 65.6655C43.3313 65.6934 43.5667 65.6647 43.7854 65.5817C44.0271 65.5161 44.2636 65.4325 44.4929 65.3315C44.785 65.2151 45.0508 65.041 45.2741 64.8196C45.4702 64.5847 45.6382 64.3277 45.7748 64.0538C45.892 63.8301 46.0049 63.6145 46.1135 63.4072C46.2331 63.2151 46.3244 63.0068 46.3845 62.7886C46.2283 62.9533 46.0964 63.1396 45.9929 63.3417C45.8833 63.5178 45.7535 63.7314 45.6172 63.9694C45.4782 64.2258 45.3145 64.4681 45.1284 64.6927C44.922 64.8945 44.6806 65.0571 44.4159 65.1725C44.1968 65.2775 43.9724 65.3712 43.7436 65.453C43.3517 65.5961 43.0971 65.6382 43.0991 65.6655Z" fill="black" fill-opacity="0.12"/>
<path d="M43.8979 66.593C43.926 66.6655 44.6336 66.3644 45.4571 65.9497C45.5705 65.8901 45.667 65.8027 45.7375 65.6957C45.8024 65.6097 45.8618 65.5198 45.9155 65.4263C46.0067 65.2709 46.0841 65.1078 46.1468 64.9388C46.2533 64.6492 46.259 64.4543 46.2342 64.4511C46.2058 64.4463 46.1536 64.6226 46.0198 64.8861C45.9421 65.0405 45.856 65.1905 45.7617 65.3354C45.709 65.4171 45.6505 65.5009 45.5858 65.5821C45.5313 65.6633 45.4582 65.7302 45.3726 65.7775C44.9508 65.9849 44.5854 66.1861 44.3186 66.3337C44.1687 66.4033 44.0275 66.4903 43.8979 66.593H43.8979Z" fill="black" fill-opacity="0.12"/>
<path d="M46.4961 35.6142C46.5164 35.8624 46.3218 36.0806 46.0573 36.1061C45.9322 36.1234 45.8049 36.0926 45.7044 36.0208C45.6038 35.949 45.5385 35.8422 45.5232 35.7247C45.5029 35.4766 45.6972 35.2585 45.9615 35.2326C46.0867 35.2153 46.2141 35.246 46.3147 35.3179C46.4154 35.3897 46.4808 35.4966 46.4961 35.6142Z" fill="#1A2E35"/>
<path d="M41.4565 35.8584C41.4769 36.1066 41.2823 36.3248 41.0178 36.3503C40.8927 36.3675 40.7654 36.3368 40.6649 36.2649C40.5644 36.1931 40.4991 36.0864 40.4838 35.9688C40.4634 35.7207 40.6577 35.5025 40.9221 35.4767C41.0473 35.4594 41.1747 35.4902 41.2753 35.562C41.3759 35.6339 41.4413 35.7408 41.4565 35.8584Z" fill="#1A2E35"/>
<g style="mix-blend-mode:multiply">
<path d="M45.0849 38.0616C44.9428 37.8166 44.7939 37.5597 44.6381 37.2908C44.0159 36.1925 43.5586 35.2855 43.6164 35.2645C43.6742 35.2434 44.2255 36.1166 44.8476 37.215C43.8163 35.353 44.1063 35.8711 45.278 37.9917C45.3362 38.1073 45.432 38.2364 45.3732 38.3984C45.3323 38.4808 45.2551 38.5424 45.1617 38.5672C45.0879 38.5882 45.0119 38.6018 44.935 38.6078C44.4031 38.6675 44.0723 38.6925 44.0688 38.6693C44.065 38.6461 44.3892 38.5792 44.916 38.4892" fill="#FFC9AF"/>
</g>
<g style="mix-blend-mode:multiply">
<path d="M42.0331 39.0002C42.1604 38.9853 42.2192 39.7836 42.9898 40.3045C43.7591 40.8274 44.6618 40.6805 44.6764 40.7919C44.692 40.8412 44.4851 40.9597 44.1021 40.9935C43.603 41.0314 43.1056 40.9033 42.6973 40.6318C42.3056 40.3708 42.0376 39.9774 41.95 39.5348C41.8935 39.2031 41.9744 38.9993 42.0331 39.0002Z" fill="#FFC9AF"/>
</g>
<ellipse rx="1.83507" ry="1.71806" transform="matrix(-1 0 0 1 46.3168 35.7181)" stroke="#4D515F" stroke-width="0.333333"/>
<ellipse rx="1.83507" ry="1.71806" transform="matrix(-1 0 0 1 40.7426 35.7181)" stroke="#4D515F" stroke-width="0.333333"/>
<path d="M44.4819 35.7181H42.5789" stroke="#4D515F" stroke-width="0.166667"/>
<path d="M37.0002 34.5L38.9082 35.7179" stroke="#4D515F" stroke-width="0.166667"/>
<path d="M66.4134 27.6712H51.0793C49.9309 27.6712 49 26.9362 49 26.0295V10.6417C49 9.73499 49.9309 9 51.0793 9H66.4134C67.5618 9 68.4927 9.73499 68.4927 10.6417V26.0294C68.4927 26.9361 67.5617 27.6712 66.4134 27.6712Z" fill="#FFEA34"/>
<path d="M66.8683 9H66.2133V23.8867C66.2133 24.7926 65.2591 25.5269 64.0819 25.5269L49 25.6668V26.1708C49 27.0767 49.954 27.6712 51.1312 27.6712H51.5158C51.7513 27.6712 51.9421 27.818 51.9421 27.9992V30.4242C51.9421 30.6399 52.2811 30.748 52.4794 30.5954L55.9674 27.9113C56.1673 27.7574 56.4383 27.6711 56.721 27.6711H66.8684C68.0456 27.6711 68.9999 26.9368 68.9999 26.0309V10.6402C68.9998 9.73434 68.0455 9 66.8683 9Z" fill="#FFB100"/>
<path d="M54.8082 14.5599C54.6479 14.3996 54.5678 14.2158 54.5678 14.0084C54.5678 13.801 54.6432 13.6218 54.794 13.471C54.9449 13.3201 55.1193 13.2494 55.3173 13.2588C55.5247 13.2588 55.7086 13.339 55.8689 13.4992L61.6672 19.2976C61.8275 19.4578 61.9076 19.6417 61.9076 19.8491C61.9076 20.0565 61.8322 20.2357 61.6813 20.3865C61.5305 20.5374 61.3513 20.6128 61.1439 20.6128C60.9459 20.6034 60.7668 20.5185 60.6065 20.3582L54.8082 14.5599ZM54.7375 20.4007C54.5678 20.231 54.4782 20.0282 54.4688 19.7925C54.4688 19.5663 54.5536 19.3683 54.7233 19.1986L60.5641 13.3578C60.7432 13.1787 60.9459 13.0891 61.1722 13.0891C61.4079 13.0986 61.6153 13.1928 61.7945 13.372C61.9736 13.5511 62.0584 13.7491 62.049 13.9659C62.049 14.1922 61.9594 14.3949 61.7803 14.5741L55.9537 20.4007C55.7746 20.5798 55.5719 20.6694 55.3456 20.6694C55.1193 20.6694 54.9166 20.5798 54.7375 20.4007Z" fill="#FFB100"/>
<path d="M22.8666 39.9231H7.13338C5.95511 39.9231 5 39.2569 5 38.4351V24.488C5 23.6662 5.95511 23 7.13338 23H22.8666C24.0449 23 25 23.6662 25 24.488V38.435C25 39.2569 24.0449 39.9231 22.8666 39.9231Z" fill="#FF6782"/>
<path d="M22.8685 23H22.2136V36.7757C22.2136 37.6139 21.2593 38.2935 20.0821 38.2935H5V38.7599C5 39.5982 5.95426 40.2777 7.13146 40.2777H17.3489C17.6315 40.2777 17.9026 40.3577 18.1025 40.4999L21.5204 42.9339C21.7187 43.0751 22.0576 42.9751 22.0576 42.7755V40.5813C22.0576 40.4137 22.2485 40.2778 22.4839 40.2778H22.8685C24.0457 40.2778 25 39.5982 25 38.7599V24.5178C25 23.6795 24.0457 23 22.8685 23Z" fill="#E34C67"/>
<path d="M12.4396 27.9938C12.4396 27.6653 12.5491 27.3916 12.7681 27.1726C13.0008 26.9399 13.2745 26.8235 13.5893 26.8235C13.9041 26.8235 14.171 26.9399 14.39 27.1726C14.6227 27.3916 14.739 27.6653 14.739 27.9938C14.739 28.2949 14.6227 28.5618 14.39 28.7945C14.171 29.0135 13.9041 29.123 13.5893 29.123C13.2745 29.123 13.0008 29.0135 12.7681 28.7945C12.5491 28.5618 12.4396 28.2949 12.4396 27.9938ZM12.4396 35.2205C12.4396 34.9057 12.5491 34.632 12.7681 34.3993C13.0008 34.1666 13.2745 34.0503 13.5893 34.0503C13.9041 34.0503 14.171 34.1666 14.39 34.3993C14.6227 34.632 14.739 34.9057 14.739 35.2205C14.739 35.5217 14.6227 35.7886 14.39 36.0212C14.171 36.2402 13.9041 36.3497 13.5893 36.3497C13.2745 36.3497 13.0008 36.2402 12.7681 36.0212C12.5491 35.7886 12.4396 35.5217 12.4396 35.2205ZM9.58587 32.3257C9.35319 32.3257 9.15473 32.2505 8.99048 32.0999C8.83993 31.9493 8.76465 31.7646 8.76465 31.5456C8.76465 31.3403 8.83993 31.1623 8.99048 31.0118C9.15473 30.8612 9.35319 30.7859 9.58587 30.7859H17.8392C18.0718 30.7859 18.2635 30.8612 18.414 31.0118C18.5783 31.1623 18.6604 31.3471 18.6604 31.5661C18.6604 31.7714 18.5783 31.9493 18.414 32.0999C18.2635 32.2505 18.0718 32.3257 17.8392 32.3257H9.58587Z" fill="#FFEDF2"/>
</g>
</g>
<defs>
<filter id="filter0_d" x="45.9" y="55.301" width="7.41889" height="16.0969" filterUnits="userSpaceOnUse" color-interpolation-filters="sRGB">
<feFlood flood-opacity="0" result="BackgroundImageFix"/>
<feColorMatrix in="SourceAlpha" type="matrix" values="0 0 0 0 0 0 0 0 0 0 0 0 0 0 0 0 0 0 127 0"/>
<feOffset dy="2.86072"/>
<feGaussianBlur stdDeviation="1.43036"/>
<feColorMatrix type="matrix" values="0 0 0 0 0 0 0 0 0 0 0 0 0 0 0 0 0 0 0.25 0"/>
<feBlend mode="normal" in2="BackgroundImageFix" result="effect1_dropShadow"/>
<feBlend mode="normal" in="SourceGraphic" in2="effect1_dropShadow" result="shape"/>
</filter>
<clipPath id="clip0">
<rect width="80" height="80" fill="white"/>
</clipPath>
</defs>
</svg>
