<svg width="80" height="80" viewBox="0 0 80 80" fill="none" xmlns="http://www.w3.org/2000/svg">
<path d="M66.8325 15.8886C81.1701 30.2891 84.4378 50.3609 70.1002 64.7614C55.7626 79.1619 29.247 82.444 14.9094 68.0435C0.571741 53.643 -6.48746 37.3752 7.85421 22.9747C22.1959 8.57425 52.4948 1.48409 66.8325 15.8886Z" fill="#FCF0FF"/>
<mask id="mask0" mask-type="alpha" maskUnits="userSpaceOnUse" x="0" y="8" width="80" height="70">
<path d="M66.8325 15.8886C81.1701 30.2891 84.4378 50.3609 70.1002 64.7614C55.7626 79.1619 29.247 82.444 14.9094 68.0435C0.571741 53.643 -6.48746 37.3752 7.85421 22.9747C22.1959 8.57425 52.4948 1.48409 66.8325 15.8886Z" fill="#FCF0FF"/>
</mask>
<g mask="url(#mask0)">
<path d="M20.1694 60.838H38.505V71.8394H20.1694V60.838Z" fill="#C070FF"/>
<path d="M58.6744 57.1709H0.000488401V26.0004C0.000239551 25.0277 0.386515 24.0948 1.07429 23.4071C1.76206 22.7193 2.69495 22.333 3.66761 22.3333H55.0073C55.98 22.333 56.9129 22.7193 57.6006 23.4071C58.2884 24.0948 58.6747 25.0277 58.6744 26.0004V57.1709Z" fill="#C070FF"/>
<path opacity="0.1" d="M20.1694 60.838H38.505V71.8394H20.1694V60.838Z" fill="black"/>
<path d="M42.1719 73.673H16.5021C15.8461 73.6744 15.2393 73.3252 14.9109 72.7573C14.5824 72.1895 14.5824 71.4894 14.9109 70.9215C15.2393 70.3536 15.8461 70.0044 16.5021 70.0059H42.1719C42.8279 70.0044 43.4347 70.3536 43.7631 70.9215C44.0915 71.4894 44.0915 72.1895 43.7631 72.7573C43.4347 73.3252 42.8279 73.6744 42.1719 73.673Z" fill="#C070FF"/>
<path d="M55.0068 64.5051H3.66712C2.69446 64.5054 1.76157 64.1191 1.0738 63.4313C0.386027 62.7436 -0.00024873 61.8107 1.20163e-07 60.838V55.3373H58.6739V60.838C58.6742 61.8107 58.2879 62.7436 57.6001 63.4313C56.9124 64.1191 55.9795 64.5054 55.0068 64.5051Z" fill="#C070FF"/>
<path opacity="0.5" d="M53.0155 60.8926H0.000488281V26.3922C0.000488281 24.1497 1.58397 22.3333 3.53892 22.3333H53.077C55.0319 22.3333 56.6154 24.1497 56.6154 26.3922V57.2928C56.6154 59.2809 55.0037 60.8926 53.0155 60.8926Z" fill="white"/>
<path d="M15.1257 33.1481C16.5444 33.1485 17.7657 32.1466 18.0427 30.7552C18.3198 29.3639 17.5753 27.9706 16.2646 27.4275C14.954 26.8845 13.4423 27.3429 12.6541 28.5225C11.8658 29.7021 12.0207 31.2742 13.0239 32.2773C13.5751 32.8441 14.3352 33.159 15.1257 33.1481Z" fill="white"/>
<path d="M20.3271 36.6934C20.3077 36.4319 20.2744 36.1716 20.2271 35.9136C20.1804 35.6483 20.1164 35.3863 20.0353 35.1295C19.9534 34.8752 19.8454 34.6302 19.713 34.3982C19.5825 34.1646 19.4188 33.9512 19.2269 33.7647C19.0248 33.5747 18.7876 33.4257 18.5287 33.326C18.2444 33.2165 17.9419 33.1618 17.6373 33.1648C17.4595 33.1838 17.2914 33.2551 17.1541 33.3697C17.0093 33.4641 16.8399 33.5733 16.6508 33.6941C16.4464 33.8163 16.2277 33.9127 15.9996 33.9811C15.4824 34.1527 14.9237 34.1527 14.4065 33.9811C14.1786 33.9128 13.96 33.8164 13.7557 33.6943C13.5684 33.5746 13.3989 33.4653 13.252 33.3696C13.1148 33.255 12.9467 33.1837 12.769 33.1647C12.4644 33.1617 12.1619 33.2165 11.8777 33.3262C11.6187 33.4258 11.3815 33.5748 11.1794 33.7649C10.9876 33.9513 10.8239 34.1647 10.6935 34.3982C10.5612 34.6303 10.4531 34.8754 10.3712 35.1296C10.2902 35.3865 10.2261 35.6484 10.1794 35.9136C10.1321 36.1717 10.0988 36.4321 10.0794 36.6938C10.063 36.9299 10.0548 37.1751 10.0548 37.4226C10.029 38.0023 10.2502 38.5658 10.6634 38.9732C11.0903 39.3634 11.6541 39.5691 12.2319 39.5453H18.1749C18.7527 39.5691 19.3165 39.3634 19.7433 38.9732C20.1567 38.5658 20.3779 38.0023 20.3521 37.4225C20.352 37.1738 20.3436 36.9285 20.3271 36.6934Z" fill="white"/>
<rect x="23.3555" y="30.0238" width="20.7741" height="2.91499" rx="1.17554" fill="white" fill-opacity="0.7"/>
<rect x="23.3555" y="35.2173" width="12.1182" height="2.91499" rx="1.17554" fill="white"/>
<path d="M15.1257 49.5942C16.5444 49.5946 17.7657 48.5927 18.0427 47.2013C18.3198 45.81 17.5753 44.4167 16.2646 43.8736C14.954 43.3306 13.4423 43.789 12.6541 44.9686C11.8658 46.1482 12.0207 47.7203 13.0239 48.7234C13.5751 49.2902 14.3352 49.6051 15.1257 49.5942Z" fill="white"/>
<path d="M20.3271 53.1396C20.3077 52.878 20.2744 52.6177 20.2271 52.3597C20.1804 52.0944 20.1164 51.8325 20.0353 51.5756C19.9534 51.3214 19.8454 51.0763 19.713 50.8443C19.5825 50.6107 19.4188 50.3973 19.2269 50.2109C19.0248 50.0208 18.7876 49.8718 18.5287 49.7722C18.2444 49.6626 17.9419 49.6079 17.6373 49.6108C17.4595 49.6299 17.2914 49.7012 17.1541 49.8158C17.0093 49.9102 16.8399 50.0194 16.6508 50.1402C16.4464 50.2624 16.2277 50.3588 15.9996 50.4272C15.4824 50.5988 14.9237 50.5988 14.4065 50.4272C14.1786 50.3589 13.96 50.2625 13.7557 50.1404C13.5684 50.0207 13.3989 49.9114 13.252 49.8157C13.1148 49.7011 12.9467 49.6298 12.769 49.6108C12.4644 49.6078 12.1619 49.6626 11.8777 49.7723C11.6187 49.8719 11.3815 50.0209 11.1794 50.211C10.9876 50.3974 10.8239 50.6108 10.6935 50.8443C10.5611 51.0764 10.4531 51.3215 10.3712 51.5757C10.2902 51.8326 10.2261 52.0945 10.1794 52.3597C10.1321 52.6178 10.0988 52.8782 10.0794 53.1399C10.063 53.376 10.0548 53.6212 10.0548 53.8687C10.029 54.4484 10.2502 55.0119 10.6634 55.4192C11.0903 55.8095 11.6541 56.0151 12.2319 55.9914H18.1749C18.7527 56.0152 19.3165 55.8095 19.7433 55.4192C20.1567 55.0119 20.3779 54.4484 20.3521 53.8686C20.352 53.6199 20.3436 53.3746 20.3271 53.1396Z" fill="white"/>
<rect x="23.3555" y="46.4699" width="20.7741" height="2.91499" rx="1.17554" fill="white" fill-opacity="0.7"/>
<rect x="23.3555" y="51.6635" width="12.1182" height="2.91499" rx="1.17554" fill="white"/>
<path d="M78.6121 66.6289L65.0671 58.1984C64.7902 58.0184 64.4333 58.0184 64.1565 58.1984L50.6114 66.6289C50.3698 66.7833 50.2236 67.0503 50.2236 67.337C50.2236 67.6237 50.3698 67.8907 50.6114 68.0451L64.1564 76.5318C64.4333 76.7117 64.7901 76.7117 65.067 76.5318L78.612 68.0451C78.8536 67.8906 78.9998 67.6237 78.9998 67.337C78.9998 67.0503 78.8536 66.7833 78.612 66.6289H78.6121Z" fill="#FFB100"/>
<path d="M78.6121 61.5706L65.0671 53.1401C64.7902 52.9601 64.4333 52.9601 64.1565 53.1401L50.6114 61.5706C50.3698 61.725 50.2236 61.992 50.2236 62.2787C50.2236 62.5654 50.3698 62.8324 50.6114 62.9868L64.1564 71.4173C64.4333 71.5972 64.7901 71.5972 65.067 71.4173L78.6121 62.9868C78.8537 62.8324 78.9998 62.5654 78.9998 62.2787C78.9998 61.992 78.8537 61.725 78.6121 61.5706Z" fill="#FFC969"/>
<path d="M78.612 56.5123L65.067 48.0256C64.7901 47.8456 64.4333 47.8456 64.1564 48.0256L50.6114 56.5123C50.3698 56.6667 50.2236 56.9336 50.2236 57.2204C50.2236 57.5071 50.3698 57.774 50.6114 57.9285L64.1564 66.359C64.4333 66.5389 64.7901 66.5389 65.067 66.359L78.612 57.9285C78.8536 57.774 78.9998 57.5071 78.9998 57.2204C78.9998 56.9336 78.8536 56.6667 78.612 56.5123Z" fill="#FFD683"/>
<path d="M73.3951 49.4642C73.3028 50.1317 73.1281 50.7851 72.875 51.4096L73.048 51.5095C73.3994 51.7124 73.6159 52.0874 73.6159 52.4932C73.6159 52.899 73.3994 53.274 73.048 53.4769C72.6965 53.6798 72.2636 53.6798 71.9121 53.4769L71.7375 53.3761C71.3229 53.9069 70.8449 54.3849 70.3141 54.7995L70.4149 54.9741C70.7286 55.5174 70.5425 56.2121 69.9992 56.5257C69.4559 56.8394 68.7612 56.6533 68.4475 56.11L68.3476 55.9369C67.7232 56.1901 67.0697 56.3648 66.4023 56.457V56.658C66.4006 57.2842 65.8926 57.7909 65.2664 57.7909C64.6402 57.7909 64.1322 57.2842 64.1305 56.658V56.457C63.4631 56.3648 62.8096 56.1901 62.1852 55.9369L62.0853 56.11C61.7716 56.6533 61.0769 56.8394 60.5336 56.5257C59.9904 56.2121 59.8042 55.5174 60.1179 54.9741L60.2187 54.7995C59.688 54.3849 59.2099 53.9069 58.7953 53.3761L58.6207 53.4769C58.0774 53.7906 57.3827 53.6044 57.0691 53.0612C56.7554 52.5179 56.9415 51.8232 57.4848 51.5095L57.6578 51.4096C57.4048 50.7851 57.2301 50.1317 57.1377 49.4642H56.9366C56.3105 49.4626 55.8037 48.9545 55.8037 48.3283C55.8037 47.7022 56.3105 47.1941 56.9366 47.1925H57.1376C57.2298 46.525 57.4045 45.8716 57.6577 45.2471L57.4847 45.1472C57.1332 44.9443 56.9167 44.5693 56.9167 44.1635C56.9167 43.7577 57.1332 43.3827 57.4846 43.1798C57.8361 42.9769 58.2691 42.9769 58.6205 43.1798L58.7951 43.2806C59.2097 42.7498 59.6878 42.2718 60.2185 41.8572L60.1177 41.6826C59.804 41.1393 59.9902 40.4446 60.5334 40.131C61.0767 39.8173 61.7714 40.0034 62.0851 40.5467L62.185 40.7198C62.8094 40.4666 63.4629 40.2919 64.1303 40.1997V39.9986C64.132 39.3724 64.64 38.8657 65.2662 38.8657C65.8924 38.8657 66.4004 39.3724 66.4021 39.9986V40.1995C67.0695 40.2918 67.723 40.4665 68.3474 40.7196L68.4474 40.5465C68.761 40.0033 69.4557 39.8171 69.999 40.1308C70.5423 40.4445 70.7284 41.1392 70.4147 41.6824L70.3139 41.857C70.8447 42.2716 71.3227 42.7497 71.7374 43.2805L71.9119 43.1796C72.2634 42.9767 72.6964 42.9767 73.0478 43.1796C73.3992 43.3825 73.6157 43.7575 73.6158 44.1633C73.6158 44.5691 73.3993 44.9441 73.0478 45.147L72.8748 45.2469C73.1279 45.8714 73.3026 46.5248 73.3949 47.1923H73.5958C74.0023 47.1912 74.3784 47.4075 74.582 47.7594C74.7855 48.1112 74.7855 48.5451 74.582 48.8969C74.3784 49.2488 74.0023 49.4651 73.5958 49.464H73.3951L73.3951 49.4642Z" fill="#FF6782"/>
<path opacity="0.2" d="M73.3951 48.5628C73.3028 49.2302 73.1281 49.8837 72.875 50.5081L73.048 50.608C73.5913 50.9217 73.7774 51.6164 73.4637 52.1597C73.1501 52.7029 72.4554 52.8891 71.9121 52.5754L71.7375 52.4746C71.3229 53.0054 70.8449 53.4834 70.3141 53.898L70.4149 54.0726C70.7286 54.6159 70.5424 55.3106 69.9992 55.6242C69.4559 55.9379 68.7612 55.7517 68.4475 55.2085L68.3476 55.0354C67.7232 55.2885 67.0697 55.4632 66.4023 55.5555V55.7565C66.4006 56.3826 65.8926 56.8894 65.2664 56.8894C64.6402 56.8894 64.1322 56.3826 64.1305 55.7565V55.5555C63.4631 55.4632 62.8096 55.2885 62.1852 55.0354L62.0853 55.2085C61.7716 55.7517 61.0769 55.9379 60.5337 55.6242C59.9904 55.3105 59.8043 54.6159 60.1179 54.0726L60.2187 53.898C59.688 53.4834 59.2099 53.0053 58.7953 52.4746L58.6207 52.5754C58.0774 52.8891 57.3827 52.7029 57.0691 52.1597C56.7554 51.6164 56.9415 50.9217 57.4848 50.608L57.6578 50.5081C57.4048 49.8836 57.2301 49.2302 57.1377 48.5627H56.9366C56.3105 48.5611 55.8037 48.0531 55.8037 47.4269C55.8037 46.8007 56.3105 46.2926 56.9366 46.291H57.1376C57.2298 45.6236 57.4045 44.9701 57.6577 44.3457L57.4847 44.2457C56.9414 43.9321 56.7552 43.2374 57.0689 42.6941C57.3826 42.1508 58.0772 41.9647 58.6205 42.2784L58.7951 42.3792C59.2097 41.8484 59.6878 41.3704 60.2185 40.9557L60.1177 40.7812C59.804 40.2379 59.9902 39.5432 60.5334 39.2295C61.0767 38.9159 61.7714 39.102 62.0851 39.6453L62.185 39.8184C62.8094 39.5652 63.4629 39.3905 64.1303 39.2982V39.0972C64.1293 38.6907 64.3456 38.3146 64.6974 38.111C65.0493 37.9075 65.4831 37.9075 65.835 38.111C66.1868 38.3146 66.4031 38.6907 66.4021 39.0972V39.2981C67.0695 39.3904 67.723 39.5651 68.3474 39.8182L68.4474 39.6451C68.6503 39.2937 69.0252 39.0772 69.431 39.0772C69.8368 39.0772 70.2118 39.2937 70.4147 39.6451C70.6176 39.9965 70.6176 40.4295 70.4147 40.781L70.3139 40.9555C70.8447 41.3702 71.3227 41.8482 71.7374 42.379L71.9119 42.2782C72.2634 42.0752 72.6964 42.0752 73.0478 42.2781C73.3992 42.481 73.6157 42.856 73.6158 43.2618C73.6158 43.6676 73.3993 44.0426 73.0478 44.2455L72.8748 44.3455C73.1279 44.97 73.3026 45.6234 73.3949 46.2909H73.5958C74.0023 46.2898 74.3784 46.5061 74.582 46.8579C74.7855 47.2098 74.7855 47.6436 74.582 47.9955C74.3784 48.3474 74.0023 48.5636 73.5958 48.5626H73.3951L73.3951 48.5628Z" fill="white"/>
<path opacity="0.3" d="M70.8964 48.3284C70.8964 50.6057 69.5246 52.6588 67.4206 53.5303C65.3166 54.4018 62.8949 53.92 61.2846 52.3097C59.6742 50.6994 59.1925 48.2776 60.064 46.1737C60.9355 44.0697 62.9886 42.6979 65.2659 42.6979C68.3755 42.6979 70.8964 45.2187 70.8964 48.3284Z" fill="white"/>
<path d="M63.5047 52C63.3477 52 63.2168 51.9534 63.1121 51.8602C63.0162 51.767 62.9682 51.6505 62.9682 51.5107V47.0252C62.9682 46.9864 62.9464 46.967 62.9028 46.967H62.5495C62.3925 46.967 62.2617 46.9204 62.157 46.8272C62.0523 46.734 62 46.6175 62 46.4777C62 46.3379 62.0523 46.2252 62.157 46.1398C62.2617 46.0466 62.3925 46 62.5495 46H68.4505C68.6075 46 68.7383 46.0466 68.843 46.1398C68.9477 46.233 69 46.3495 69 46.4893C69 46.6291 68.9477 46.7456 68.843 46.8388C68.7383 46.9243 68.6075 46.967 68.4505 46.967H68.0972C68.0536 46.967 68.0318 46.9864 68.0318 47.0252V51.5107C68.0318 51.6505 67.9794 51.767 67.8748 51.8602C67.7701 51.9534 67.6393 52 67.4822 52C67.3252 52 67.1944 51.9534 67.0897 51.8602C66.9938 51.767 66.9458 51.6505 66.9458 51.5107V47.0252C66.9458 46.9864 66.924 46.967 66.8804 46.967H64.1196C64.076 46.967 64.0542 46.9864 64.0542 47.0252V51.5107C64.0542 51.6505 64.0019 51.767 63.8972 51.8602C63.7925 51.9534 63.6617 52 63.5047 52Z" fill="white"/>
</g>
</svg>
