<svg width="50" height="56" viewBox="0 0 50 56" fill="none" xmlns="http://www.w3.org/2000/svg">
<path fill-rule="evenodd" clip-rule="evenodd" d="M8.54724 41.6451L14.2397 45.1395L24.6246 47.5367C24.6246 47.5367 29.7172 47.4368 32.7136 45.9384C35.7087 44.4409 41.3019 41.1453 41.3019 41.1453L43.9978 44.0411L45.5945 47.6368C45.5945 47.6368 38.4047 55.6257 24.3253 55.5258C24.3253 55.5258 11.4432 55.5258 4.15381 47.6368L8.54724 41.6451Z" fill="white"/>
<path fill-rule="evenodd" clip-rule="evenodd" d="M24.795 47.0479C18.5656 47.0479 12.7089 44.6227 8.30308 40.2167C3.89836 35.8123 1.47314 29.9548 1.47314 23.7261C1.47314 17.497 3.89836 11.6402 8.30308 7.235C12.7089 2.82981 18.5656 0.404297 24.795 0.404297C31.0235 0.404297 36.8801 2.82981 41.2861 7.235C45.6907 11.6402 48.1168 17.497 48.1168 23.7261C48.1168 29.9548 45.6907 35.8123 41.2861 40.2167C36.8801 44.6227 31.0235 47.0479 24.795 47.0479Z" fill="white"/>
<path fill-rule="evenodd" clip-rule="evenodd" d="M19.6294 41.1794H20.1656L20.9284 41.8059V42.791H22.2441V41.6193H21.5898L21.2618 41.353V41.1794H23.0991V41.6193H22.7714V44.6655H22.5684L22.2441 44.3991V43.1399H20.9284V43.5908H20.4985L19.9579 43.1399V42.791H20.392V41.8891L20.0641 41.6193H19.6294V41.1794Z" fill="#4FBBC2"/>
<path fill-rule="evenodd" clip-rule="evenodd" d="M23.0991 41.1794H24.5415V41.6193H24.1424V44.6655H23.9389L23.616 44.3991V41.6193H23.0991V41.1794Z" fill="#4FBBC2"/>
<path fill-rule="evenodd" clip-rule="evenodd" d="M24.562 41.1794H26.9455V41.6193H26.2912L26.2954 42.5413L26.2805 42.6749L26.2408 42.7952L26.154 42.8904L26.0486 42.9692L25.9079 43.0161L25.7499 43.0448L25.6436 43.0524L25.543 43.0657L25.4451 43.1526L25.4311 43.2504L25.4409 43.3616L25.5471 43.5643L25.7003 43.7433L25.8758 43.9363L26.0953 44.1396L26.3225 44.3186L26.4924 44.4683L26.7483 44.6507L26.5448 44.6395L26.1499 44.4013L25.8758 44.2061L25.5892 43.9935L25.357 43.7943L25.1081 43.5643L24.9515 43.3616L24.8508 43.1399L24.8088 42.9583L24.8237 42.7952L24.8649 42.6553L24.9669 42.5799L25.1277 42.5009L25.3103 42.4722H25.4829L25.6045 42.517L25.6758 42.5799L25.7499 42.5449L25.7598 42.4722V41.6193H24.562V41.1794Z" fill="#4FBBC2"/>
<path fill-rule="evenodd" clip-rule="evenodd" d="M26.9888 41.1792L30.3082 41.1702V41.6191H29.9182V44.6652H29.7147L29.3875 44.3989V42.874H27.9242L27.7851 42.9124L27.6969 42.9956L27.6529 43.1117L27.6773 43.2578L27.7227 43.3976L27.7934 43.5445L27.8949 43.7068L28.0115 43.8471L28.1318 43.9933L28.2899 44.1479L28.4457 44.294L28.6233 44.4219L28.826 44.5751L28.6687 44.5793L28.5171 44.5121L28.3869 44.4219L28.273 44.3499L28.1318 44.2338L28.0018 44.1352L27.7431 43.9025L27.6256 43.778L27.5054 43.6277L27.4081 43.497L27.3222 43.3536L27.2537 43.2116L27.216 43.0655V42.9124L27.2341 42.7783L27.3019 42.6629L27.3942 42.5672L27.5433 42.4887L27.6773 42.4496L27.8949 42.4328H29.3875V41.6191H26.9888V41.1792Z" fill="#4FBBC2"/>
<path d="M9.27946 42.7226C9.24317 42.6923 9.20669 42.6623 9.17041 42.6331" stroke="black"/>
<mask id="mask0" mask-type="alpha" maskUnits="userSpaceOnUse" x="0" y="0" width="50" height="56">
<path d="M0 0H49.6423V56H0V0Z" fill="white"/>
</mask>
<g mask="url(#mask0)">
<path fill-rule="evenodd" clip-rule="evenodd" d="M24.8264 54.9768C17.5232 54.9768 10.6012 52.4879 5.03108 47.9106L9.27898 42.7224C13.6541 46.3165 19.0907 48.2714 24.8264 48.2714C30.6509 48.2714 36.1651 46.2565 40.5745 42.5573L44.9959 47.6009C39.3628 52.376 32.2953 54.9768 24.8264 54.9768ZM1.87035 23.7259C1.87035 17.5931 4.25909 11.8294 8.59386 7.49414C12.9307 3.15733 18.6949 0.770631 24.8264 0.770631C30.9585 0.770631 36.7229 3.15733 41.0582 7.49414C45.3942 11.8294 47.7825 17.5931 47.7825 23.7259C47.7825 29.8582 45.3942 35.6219 41.0582 39.958C36.7229 44.294 30.9585 46.6815 24.8264 46.6815C18.6949 46.6815 12.9307 44.294 8.59386 39.958C4.25909 35.6219 1.87035 29.8582 1.87035 23.7259ZM46.2544 45.1524C47.5093 43.897 48.6406 42.5518 49.6423 41.1297L43.8443 37.9136C46.801 33.9564 48.5516 29.045 48.5516 23.7259C48.5516 10.6228 37.9296 0 24.8264 0C11.7233 0 1.10196 10.6228 1.10196 23.7259C1.10196 29.1248 2.90557 34.1006 5.94267 38.0877L0 41.1142C1.00468 42.5411 2.14088 43.8926 3.39994 45.1524C3.78943 45.5411 4.18652 45.9194 4.59275 46.2852L3.23768 47.7253C9.17354 53.0773 16.7744 56.0058 24.8264 56.0058C32.9008 56.0058 40.5228 53.0611 46.4654 47.6805L45.2839 46.0825C45.6124 45.7803 45.9369 45.4699 46.2544 45.1524Z" fill="#4FBBC2"/>
</g>
<path fill-rule="evenodd" clip-rule="evenodd" d="M24.8267 39.0101C20.7452 39.0101 16.907 37.4202 14.0194 34.5334C11.1326 31.6468 9.54346 27.8085 9.54346 23.7261C9.54346 19.6432 11.1326 15.8057 14.0194 12.9183C16.907 10.0307 20.7452 8.44238 24.8267 8.44238C28.9097 8.44238 32.748 10.0307 35.6347 12.9183C38.5215 15.8057 40.1112 19.6432 40.1112 23.7261C40.1112 27.8085 38.5215 31.6468 35.6347 34.5334C32.748 37.4202 28.9097 39.0101 24.8267 39.0101Z" fill="#4FBBC2"/>
<path fill-rule="evenodd" clip-rule="evenodd" d="M32.3792 27.1028C32.3338 27.1028 32.291 27.0936 32.2513 27.0734C32.2184 27.0559 28.9101 25.4493 25.3814 26.8133C25.3486 26.8258 25.3136 26.8323 25.2786 26.8323H24.2132C24.1754 26.8323 24.1378 26.8245 24.1028 26.8099C21.1119 25.5451 17.6924 26.777 17.6587 26.7896C17.582 26.8182 17.496 26.8119 17.4232 26.7728L11.8742 23.7629C11.763 23.7015 11.7049 23.5748 11.7315 23.4519C11.7588 23.3275 11.8643 23.2372 11.9903 23.2275L15.4852 22.989L13.3248 21.5027C13.222 21.4328 13.1773 21.3034 13.2136 21.184C13.2515 21.065 13.3613 20.9846 13.4857 20.9846H16.6269L13.9947 18.402C13.8967 18.3047 13.8812 18.1503 13.9603 18.037C14.0393 17.9224 14.189 17.8818 14.3148 17.9399L18.0071 19.6603L16.7604 16.169C16.7172 16.048 16.7597 15.9139 16.8653 15.8403C16.9702 15.767 17.1113 15.7719 17.21 15.8536L19.6227 17.8497L18.4048 12.7739C18.3725 12.641 18.4411 12.5026 18.5664 12.4474C18.6921 12.3928 18.839 12.4341 18.9165 12.5473L21.7026 16.6277V13.2982C21.7026 13.1674 21.7913 13.0536 21.9186 13.0221C22.0467 12.9906 22.1795 13.05 22.2395 13.1654L23.7686 16.0816L24.8983 11.0513C24.9285 10.917 25.0501 10.824 25.1885 10.8288C25.3277 10.8366 25.4396 10.9402 25.4576 11.0771L26.1226 16.1892L27.8257 13.4437C27.8935 13.3347 28.0243 13.2844 28.1467 13.3201C28.269 13.355 28.352 13.4662 28.352 13.5932V17.0792L32.1269 13.6206C32.2253 13.529 32.3758 13.5206 32.4853 13.5982C32.5945 13.6765 32.6336 13.8199 32.5798 13.9436L30.76 18.1007L33.8824 16.1844C33.9983 16.1144 34.148 16.134 34.2396 16.234C34.3325 16.3331 34.3416 16.4836 34.262 16.5932L32.0232 19.6981L36.7838 19.3318C36.9151 19.3214 37.0369 19.4039 37.0774 19.5291C37.118 19.6549 37.0661 19.7912 36.9529 19.8588L33.9928 21.6425H36.8055C36.9355 21.6425 37.0487 21.7292 37.0816 21.8544C37.1137 21.9802 37.0585 22.1117 36.9459 22.1753L33.9767 23.8434L38.1548 24.5901C38.2834 24.6131 38.3785 24.7187 38.3883 24.848C38.398 24.9781 38.3189 25.0976 38.1966 25.1389L32.4694 27.088C32.4407 27.0971 32.4091 27.1028 32.3792 27.1028ZM28.4157 25.6877C30.4251 25.6877 31.973 26.3196 32.3953 26.5119L36.9682 24.9557L33.0958 24.2643C32.9776 24.244 32.8853 24.1503 32.8644 24.0314C32.8449 23.9126 32.9015 23.7952 33.0063 23.7357L35.7189 22.2108H32.9685C32.8407 22.2108 32.7287 22.1263 32.6946 22.0026C32.6601 21.8795 32.7126 21.7495 32.8216 21.683L35.6309 19.9911L31.4563 20.3127C31.3458 20.3211 31.2396 20.2638 31.185 20.168C31.1313 20.0715 31.1375 19.9519 31.2033 19.8625L32.9693 17.4119L30.2832 19.0613C30.1775 19.1262 30.0418 19.1151 29.9476 19.0333C29.854 18.9508 29.8245 18.8187 29.8735 18.7046L31.5179 14.9503L28.2612 17.9364C28.178 18.0125 28.0572 18.0321 27.9537 17.9866C27.8516 17.9413 27.783 17.8393 27.783 17.7266V14.5924L26.1848 17.1687C26.1211 17.2708 26.0002 17.3219 25.8828 17.2959C25.7652 17.2708 25.6758 17.1735 25.6603 17.0547L25.1004 12.7466L24.1545 16.9624C24.1278 17.0785 24.0329 17.1659 23.9139 17.1821C23.7965 17.198 23.6805 17.1372 23.6253 17.0316L22.2732 14.4531V17.5491C22.2732 17.6736 22.1907 17.7847 22.0718 17.821C21.9522 17.8573 21.8236 17.8126 21.7522 17.7099L19.3199 14.1471L20.3749 18.546C20.4036 18.6642 20.3525 18.7886 20.2484 18.8536C20.1456 18.9186 20.0107 18.9095 19.917 18.8312L17.6441 16.952L18.7725 20.11C18.8103 20.2184 18.7809 20.3386 18.6956 20.4161C18.6111 20.4939 18.4881 20.5126 18.3845 20.4636L15.5776 19.1571L17.5225 21.0658C17.605 21.1461 17.6301 21.2697 17.5867 21.3762C17.5434 21.4832 17.4393 21.5536 17.3232 21.5536H14.403L16.4808 22.982C16.5815 23.0512 16.6261 23.1756 16.594 23.2918C16.5625 23.4086 16.4597 23.4923 16.3389 23.5001L13.0075 23.7287L17.5847 26.2135C18.2497 25.9904 21.3789 25.0681 24.2705 26.263H25.2262C26.347 25.8372 27.437 25.6877 28.4157 25.6877Z" fill="#FFFFFE"/>
<path fill-rule="evenodd" clip-rule="evenodd" d="M24.5052 36.3923L24.0985 36.1979C21.5248 34.9689 17.5965 35.6344 17.5558 35.6415L17.2231 35.6987V26.5232H17.7921V35.0317C18.2005 34.9773 18.95 34.8961 19.8546 34.8864C21.4718 34.8674 22.8421 35.0764 23.9362 35.5071V26.5469H24.5052V36.3923Z" fill="#FFFFFE"/>
<path fill-rule="evenodd" clip-rule="evenodd" d="M24.9937 36.4119L24.9932 35.9406V26.5469H25.5621V35.5113C26.3892 35.2073 28.4545 34.657 31.9599 35.0135V26.8182H32.529V35.6498L32.2116 35.6135C29.7933 35.3359 28.0728 35.5085 27.0548 35.7029C25.953 35.9112 25.4166 36.1888 25.4112 36.193L24.9937 36.4119Z" fill="#FFFFFE"/>
<path fill-rule="evenodd" clip-rule="evenodd" d="M27.7784 23.0668C27.3714 22.755 26.6541 22.409 25.6802 22.7341C25.7446 22.4419 25.8081 21.9664 25.8081 21.6217C25.8081 20.3667 25.3314 19.3481 24.7413 19.3481C24.1512 19.3481 23.673 20.3667 23.673 21.6217C23.673 22.0761 23.736 22.4998 23.8435 22.8543C23.3032 22.446 22.1203 22.4641 21.5357 23.0899C21.3687 23.2681 21.2897 23.5108 21.2931 23.7555C21.3071 24.5518 21.6434 26.5815 24.7315 26.5471C27.5777 26.5171 28.0888 24.8252 28.1637 23.9506C28.1916 23.61 28.0503 23.2765 27.7784 23.0668ZM22.7319 23.8604C22.1537 23.9457 21.6546 23.8009 21.614 23.5358C21.5756 23.2716 22.0125 22.9872 22.5908 22.9019C23.1689 22.8173 23.6702 22.9619 23.7094 23.227C23.7486 23.4912 23.3108 23.775 22.7319 23.8604ZM24.7337 23.422C24.3666 23.422 24.0695 22.6151 24.0695 21.6217C24.0695 20.6276 24.3666 19.8215 24.7337 19.8215C25.0999 19.8215 25.3971 20.6276 25.3971 21.6217C25.3971 22.6151 25.0999 23.422 24.7337 23.422ZM27.723 23.5757C27.6735 23.8392 27.1673 23.9652 26.5926 23.8583C26.0178 23.7499 25.5915 23.45 25.6411 23.1865C25.6901 22.9235 26.1968 22.7977 26.7702 22.9053C27.3455 23.013 27.7713 23.313 27.723 23.5757Z" fill="#FFFFFE"/>
<path fill-rule="evenodd" clip-rule="evenodd" d="M18.7739 27.5741H19.2485V27.0044H18.7739V27.5741Z" fill="#FFFFFE"/>
<path fill-rule="evenodd" clip-rule="evenodd" d="M21.0656 27.5741H21.9743V27.0044H21.0656V27.5741ZM19.7021 27.5741H20.6117V27.0044H19.7021V27.5741Z" fill="#FFFFFE"/>
<path fill-rule="evenodd" clip-rule="evenodd" d="M22.4292 27.5741H22.904V27.0044H22.4292V27.5741Z" fill="#FFFFFE"/>
<path fill-rule="evenodd" clip-rule="evenodd" d="M18.7739 28.5221H19.2485V27.9536H18.7739V28.5221Z" fill="#FFFFFE"/>
<path fill-rule="evenodd" clip-rule="evenodd" d="M21.0656 28.5221H21.9743V27.9536H21.0656V28.5221ZM19.7021 28.5221H20.6117V27.9536H19.7021V28.5221Z" fill="#FFFFFE"/>
<path fill-rule="evenodd" clip-rule="evenodd" d="M22.4292 28.5221H22.904V27.9536H22.4292V28.5221Z" fill="#FFFFFE"/>
<path fill-rule="evenodd" clip-rule="evenodd" d="M18.7739 29.4717H19.2485V28.9019H18.7739V29.4717Z" fill="#FFFFFE"/>
<path fill-rule="evenodd" clip-rule="evenodd" d="M21.0656 29.4717H21.9743V28.9019H21.0656V29.4717ZM19.7021 29.4717H20.6117V28.9019H19.7021V29.4717Z" fill="#FFFFFE"/>
<path fill-rule="evenodd" clip-rule="evenodd" d="M22.4292 29.4717H22.904V28.9019H22.4292V29.4717Z" fill="#FFFFFE"/>
<path fill-rule="evenodd" clip-rule="evenodd" d="M18.7739 30.4204H19.2485V29.8506H18.7739V30.4204Z" fill="#FFFFFE"/>
<path fill-rule="evenodd" clip-rule="evenodd" d="M21.0656 30.4204H21.9743V29.8506H21.0656V30.4204ZM19.7021 30.4204H20.6117V29.8506H19.7021V30.4204Z" fill="#FFFFFE"/>
<path fill-rule="evenodd" clip-rule="evenodd" d="M22.4292 30.4204H22.904V29.8506H22.4292V30.4204Z" fill="#FFFFFE"/>
<path fill-rule="evenodd" clip-rule="evenodd" d="M18.7739 31.3684H19.2485V30.7993H18.7739V31.3684Z" fill="#FFFFFE"/>
<path fill-rule="evenodd" clip-rule="evenodd" d="M21.0656 31.3684H21.9743V30.7993H21.0656V31.3684ZM19.7021 31.3684H20.6117V30.7993H19.7021V31.3684Z" fill="#FFFFFE"/>
<path fill-rule="evenodd" clip-rule="evenodd" d="M22.4292 31.3684H22.904V30.7993H22.4292V31.3684Z" fill="#FFFFFE"/>
<path fill-rule="evenodd" clip-rule="evenodd" d="M18.7739 32.3165H19.2485V31.7488H18.7739V32.3165Z" fill="#FFFFFE"/>
<path fill-rule="evenodd" clip-rule="evenodd" d="M21.0656 32.3165H21.9743V31.7488H21.0656V32.3165ZM19.7021 32.3165H20.6117V31.7488H19.7021V32.3165Z" fill="#FFFFFE"/>
<path fill-rule="evenodd" clip-rule="evenodd" d="M22.4292 32.3165H22.904V31.7488H22.4292V32.3165Z" fill="#FFFFFE"/>
<path fill-rule="evenodd" clip-rule="evenodd" d="M18.7739 33.2656H19.2485V32.6965H18.7739V33.2656Z" fill="#FFFFFE"/>
<path fill-rule="evenodd" clip-rule="evenodd" d="M21.0656 33.2656H21.9743V32.6965H21.0656V33.2656ZM19.7021 33.2656H20.6117V32.6965H19.7021V33.2656Z" fill="#FFFFFE"/>
<path fill-rule="evenodd" clip-rule="evenodd" d="M22.4292 33.2656H22.904V32.6965H22.4292V33.2656Z" fill="#FFFFFE"/>
<path fill-rule="evenodd" clip-rule="evenodd" d="M18.7739 34.2146H19.2485V33.6448H18.7739V34.2146Z" fill="#FFFFFE"/>
<path fill-rule="evenodd" clip-rule="evenodd" d="M21.0656 34.2146H21.9743V33.6448H21.0656V34.2146ZM19.7021 34.2146H20.6117V33.6448H19.7021V34.2146Z" fill="#FFFFFE"/>
<path fill-rule="evenodd" clip-rule="evenodd" d="M22.4292 34.2146H22.904V33.6448H22.4292V34.2146Z" fill="#FFFFFE"/>
<path fill-rule="evenodd" clip-rule="evenodd" d="M26.6973 27.5741H27.172V27.0044H26.6973V27.5741Z" fill="#FFFFFE"/>
<path fill-rule="evenodd" clip-rule="evenodd" d="M28.9881 27.5741H29.8977V27.0044H28.9881V27.5741ZM27.6255 27.5741H28.5344V27.0044H27.6255V27.5741Z" fill="#FFFFFE"/>
<path fill-rule="evenodd" clip-rule="evenodd" d="M30.3525 27.5741H30.8266V27.0044H30.3525V27.5741Z" fill="#FFFFFE"/>
<path fill-rule="evenodd" clip-rule="evenodd" d="M26.6973 28.5221H27.172V27.9536H26.6973V28.5221Z" fill="#FFFFFE"/>
<path fill-rule="evenodd" clip-rule="evenodd" d="M28.9881 28.5221H29.8977V27.9536H28.9881V28.5221ZM27.6255 28.5221H28.5344V27.9536H27.6255V28.5221Z" fill="#FFFFFE"/>
<path fill-rule="evenodd" clip-rule="evenodd" d="M30.3525 28.5221H30.8266V27.9536H30.3525V28.5221Z" fill="#FFFFFE"/>
<path fill-rule="evenodd" clip-rule="evenodd" d="M26.6973 29.4717H27.172V28.9019H26.6973V29.4717Z" fill="#FFFFFE"/>
<path fill-rule="evenodd" clip-rule="evenodd" d="M28.9881 29.4717H29.8977V28.9019H28.9881V29.4717ZM27.6255 29.4717H28.5344V28.9019H27.6255V29.4717Z" fill="#FFFFFE"/>
<path fill-rule="evenodd" clip-rule="evenodd" d="M30.3525 29.4717H30.8266V28.9019H30.3525V29.4717Z" fill="#FFFFFE"/>
<path fill-rule="evenodd" clip-rule="evenodd" d="M26.6973 30.4204H27.172V29.8506H26.6973V30.4204Z" fill="#FFFFFE"/>
<path fill-rule="evenodd" clip-rule="evenodd" d="M28.9881 30.4204H29.8977V29.8506H28.9881V30.4204ZM27.6255 30.4204H28.5344V29.8506H27.6255V30.4204Z" fill="#FFFFFE"/>
<path fill-rule="evenodd" clip-rule="evenodd" d="M30.3525 30.4204H30.8266V29.8506H30.3525V30.4204Z" fill="#FFFFFE"/>
<path fill-rule="evenodd" clip-rule="evenodd" d="M26.6973 31.3684H27.172V30.7993H26.6973V31.3684Z" fill="#FFFFFE"/>
<path fill-rule="evenodd" clip-rule="evenodd" d="M28.9881 31.3684H29.8977V30.7993H28.9881V31.3684ZM27.6255 31.3684H28.5344V30.7993H27.6255V31.3684Z" fill="#FFFFFE"/>
<path fill-rule="evenodd" clip-rule="evenodd" d="M30.3525 31.3684H30.8266V30.7993H30.3525V31.3684Z" fill="#FFFFFE"/>
<path fill-rule="evenodd" clip-rule="evenodd" d="M26.6973 32.3165H27.172V31.7488H26.6973V32.3165Z" fill="#FFFFFE"/>
<path fill-rule="evenodd" clip-rule="evenodd" d="M28.9881 32.3165H29.8977V31.7488H28.9881V32.3165ZM27.6255 32.3165H28.5344V31.7488H27.6255V32.3165Z" fill="#FFFFFE"/>
<path fill-rule="evenodd" clip-rule="evenodd" d="M30.3525 32.3165H30.8266V31.7488H30.3525V32.3165Z" fill="#FFFFFE"/>
<path fill-rule="evenodd" clip-rule="evenodd" d="M26.6973 33.2656H27.172V32.6965H26.6973V33.2656Z" fill="#FFFFFE"/>
<path fill-rule="evenodd" clip-rule="evenodd" d="M28.9881 33.2656H29.8977V32.6965H28.9881V33.2656ZM27.6255 33.2656H28.5344V32.6965H27.6255V33.2656Z" fill="#FFFFFE"/>
<path fill-rule="evenodd" clip-rule="evenodd" d="M30.3525 33.2656H30.8266V32.6965H30.3525V33.2656Z" fill="#FFFFFE"/>
<path fill-rule="evenodd" clip-rule="evenodd" d="M26.6973 34.2146H27.172V33.6448H26.6973V34.2146Z" fill="#FFFFFE"/>
<path fill-rule="evenodd" clip-rule="evenodd" d="M28.9881 34.2146H29.8977V33.6448H28.9881V34.2146ZM27.6255 34.2146H28.5344V33.6448H27.6255V34.2146Z" fill="#FFFFFE"/>
<path fill-rule="evenodd" clip-rule="evenodd" d="M30.3525 34.2146H30.8266V33.6448H30.3525V34.2146Z" fill="#FFFFFE"/>
<path fill-rule="evenodd" clip-rule="evenodd" d="M8.71652 17.8127L9.03462 18.261L9.28345 18.5686L9.39182 18.5224L9.47781 18.4197L9.51624 18.2981L9.70642 18.6236L9.66653 18.7265L9.56322 18.8447L9.45408 18.8921L9.38132 18.8957L9.22402 18.86L9.0962 18.7671L8.83812 18.3748L8.5459 17.9134L8.71652 17.8127Z" fill="#4FBBC2"/>
<path fill-rule="evenodd" clip-rule="evenodd" d="M6.21277 20.8771L6.42405 19.3999L6.90431 19.4669L6.7546 20.5186V20.6185L6.80577 20.6751L6.89371 20.652L6.97562 20.6031H7.12951L7.29313 20.6464L7.3693 20.7317L7.35733 20.9071L7.25607 21.0931L7.08963 21.2233L6.92863 21.3385L6.80499 21.3889L6.63019 21.3931L6.46374 21.3694L6.33514 21.3106L6.23942 21.1854L6.20654 21.0295L6.21277 20.8771Z" fill="#4FBBC2"/>
<path fill-rule="evenodd" clip-rule="evenodd" d="M10.1907 12.8664L10.1291 13.0685L9.98565 13.2824L9.84032 13.4144L9.67601 13.4872L9.43778 13.5313L9.23136 13.5718L8.95665 13.5705L9.14478 13.4132L9.24605 13.2613L9.29712 13.0377L9.32163 12.8574L9.28798 12.6868L9.22436 12.5154L9.11395 12.3938L9.02581 12.3093L8.87474 12.2386L8.72737 12.2183L8.58544 12.2307L8.46306 12.2644L8.37221 12.2917L8.07931 12.4035C8.31695 12.0429 8.56715 11.6883 8.82941 11.3422L8.97698 11.4423L10.0676 12.1491L10.1208 12.2435L10.1646 12.4189L10.1955 12.6435L10.1907 12.8664ZM6.61256 24.4484L6.72783 24.5197L6.87531 24.6579L6.99 24.7693L7.09963 24.9063L7.19982 25.032L7.28153 25.1628L7.30887 25.3642L7.25225 25.5669L7.14865 25.6929L7.01305 25.7704L6.89564 25.8033L6.7683 25.8284L6.62637 25.8033L6.5181 25.7642L6.38795 25.6851L6.30837 25.5859L6.23065 25.4495L6.1468 25.2705L6.17189 25.102L6.23979 24.9272L6.31596 24.7964L6.44816 24.6316L6.61256 24.4484ZM9.17134 10.9599L9.14187 10.9409C9.30471 10.7374 9.47115 10.5363 9.64391 10.3377L9.337 10.009C8.22046 11.2946 7.26607 12.7217 6.50614 14.2598L6.15234 14.129C6.07539 14.092 5.98746 14.0604 5.89096 14.0361C5.79514 14.0108 5.69524 13.9892 5.58881 13.9717C5.38687 13.9375 5.18754 13.9417 4.99114 13.985C4.79328 14.0283 4.62402 14.129 4.48005 14.2877C4.45699 14.3158 4.44016 14.3395 4.42762 14.3584C4.41633 14.3758 4.39833 14.4108 4.37304 14.4619C4.32898 14.552 4.30252 14.6498 4.29347 14.7562C4.28296 14.8611 4.29133 14.9673 4.31643 15.0743C4.34172 15.1825 4.38141 15.2785 4.4354 15.3643C4.48783 15.451 4.55563 15.5259 4.63812 15.5903C4.68978 15.6279 4.79182 15.6832 4.94494 15.7568C4.99678 15.7805 5.0428 15.8006 5.08346 15.8176C5.1247 15.8321 5.16721 15.8467 5.21128 15.8616C5.29815 15.8888 5.34358 15.8971 5.34825 15.888L5.33998 15.8838L5.56868 15.4379L5.33161 15.3372C5.30292 15.3245 5.2679 15.3099 5.22821 15.2931C5.18832 15.2764 5.14922 15.2603 5.11342 15.2469C5.07354 15.2287 5.03385 15.207 4.99533 15.1841C4.9569 15.1609 4.92324 15.1392 4.89746 15.1205C4.79824 15.0422 4.7318 14.9449 4.69678 14.8275C4.66186 14.7113 4.66731 14.608 4.71089 14.517C4.73248 14.4737 4.75631 14.4387 4.78132 14.415C4.95272 14.2634 5.16303 14.1997 5.41274 14.2241C5.63366 14.2472 6.09436 14.4296 6.36703 14.5514C5.15544 17.1067 4.47946 19.9577 4.47869 22.9634C4.47869 23.2661 4.48491 23.5667 4.4996 23.8653L4.24104 23.8988L4.0493 23.9645L3.87683 24.019L3.69424 24.0736L3.55514 24.1442L3.42576 24.2155L3.26914 24.2937L3.15309 24.37L3.06223 24.4665L2.98606 24.5602L2.89219 24.6846L2.83713 24.8195L2.80347 24.9483L2.74268 25.9549L3.18937 25.6011L3.22799 24.9812L3.28665 24.7719L3.36622 24.6461L3.47605 24.5259L3.62294 24.4197L3.78442 24.3371L3.9459 24.2778L4.07742 24.2371L4.24366 24.1918L4.51653 24.1709C4.56322 24.9497 4.65485 25.7179 4.79046 26.4701L5.24572 26.4646C5.12889 25.8262 5.04484 25.1797 4.99319 24.5273L6.45517 24.4414L6.08872 24.8006L5.92092 24.9999L5.82238 25.209L5.81129 25.3992L5.82306 25.6011L5.9358 25.8445L6.03152 25.9955L6.16927 26.1053L6.31596 26.1906L6.4753 26.2528L6.69768 26.2619L6.88571 26.2416L7.02502 26.187L7.17375 26.0975L7.34379 25.9395L7.44584 25.7879L7.52959 25.6306L7.58835 25.481L7.6115 25.3139L7.59535 25.0636L7.52278 24.7693L7.35138 24.5588L7.19408 24.3973L8.35324 24.3281L8.6441 24.0078L8.63155 23.8191L6.85994 23.9253L6.72005 23.7743L6.57812 23.599L6.49777 23.4766L6.4216 23.3717L6.36207 23.2423L6.3503 23.0542L6.37958 22.9193L6.45653 22.8066L6.56139 22.7193L6.71723 22.6962L6.88095 22.7096L7.00673 22.7829L7.17794 22.8857L7.25225 22.9627L7.34175 23.0647L7.40459 23.1696L7.45625 23.2619L7.46121 23.3654L7.94779 22.983L7.79049 22.8215L7.60372 22.6292L7.43669 22.5012L7.25284 22.4382L7.07044 22.4004L6.94389 22.3852L6.75157 22.4103L6.5753 22.4739L6.41168 22.5627L6.28872 22.6404L6.18804 22.7284L6.06917 22.8437L5.97549 22.9577L5.91965 23.0563L5.89718 23.199L5.90496 23.3277L5.9251 23.4297L5.97967 23.5765L6.06567 23.7052L6.17189 23.8442L6.24962 23.9624L4.96245 24.0814C4.94075 23.7106 4.93034 23.3381 4.93034 22.9634C4.93034 20.7401 5.30574 18.5728 6.02734 16.5326L6.60478 16.7312L6.52151 16.8572L6.45653 16.9963L6.39369 17.1145L6.31324 17.3172L6.23979 17.4779L6.20195 17.7079L6.20837 17.954L6.27549 18.1867L6.34048 18.3462L6.46625 18.5091L6.63892 18.6811L6.83484 18.7979L7.01431 18.8692L7.20401 18.9139L7.40517 18.9209L7.57784 18.9167L7.78271 18.8671L8.01559 18.7763L8.23787 18.6428L8.42464 18.5029L8.56589 18.3805L8.70363 18.1932L8.82863 18.0051L8.89507 17.7988L8.92017 17.643L8.91677 17.4695L8.87212 17.2961L8.82445 17.187L9.32426 16.9472L9.69343 16.7962L9.76619 16.8893L9.79002 17.02L9.76493 17.1452L10.0905 16.9501L10.1054 16.8418L10.0731 16.6879L10.0018 16.5956L9.93895 16.5564L9.78506 16.5131L9.62718 16.5326L9.20762 16.7523L8.72581 17.0186L8.61258 16.8502L8.4834 16.7004L8.26092 16.5747L8.04147 16.5621L7.9115 16.6034L7.79603 16.6929L7.68563 16.8717L7.67366 17.0242L7.67804 17.1346L7.71714 17.2506L7.82882 17.3417L8.01355 17.4004L8.15392 17.4025L8.32396 17.3828L8.42678 17.5044L8.45314 17.6597L8.419 17.8919L8.3512 18.1001L8.21627 18.2848L8.05343 18.391L7.85207 18.4686L7.58358 18.493L7.31568 18.4435L7.04875 18.326L6.89204 18.1826L6.7683 18.0106L6.72083 17.8463L6.71451 17.696L6.69495 17.5652L6.73542 17.3647L6.80196 17.1577L6.91859 16.948L7.05079 16.776L7.15838 16.5655L7.18367 16.4166L7.00673 16.3004L6.21314 16.0321C6.38532 15.5903 6.5719 15.1526 6.7753 14.7234L6.89904 14.7813L9.81736 16.1629L10.229 16.0231L10.3123 15.8517L7.11509 14.3381L6.98717 14.2897C7.2612 13.7481 7.56189 13.218 7.88757 12.7022C8.0261 12.6196 8.08894 12.6057 8.08894 12.6057L8.14215 12.5624L8.24701 12.5279L8.39108 12.4966L8.54264 12.4938L8.6903 12.5441L8.82591 12.6762L8.89585 12.8076L8.90762 12.9383L8.91891 13.0649L8.89585 13.1971L8.86093 13.2984L8.78603 13.4118L8.70704 13.5047L8.56715 13.5655L8.49176 13.6691L8.68748 13.774L8.89021 13.8027L9.11035 13.8206L9.34809 13.8298L9.60549 13.8248L9.8732 13.7724L10.0851 13.7263L10.2669 13.6446L10.4172 13.5683L10.5276 13.4293L10.6408 13.1971L10.659 13.0125L10.6486 12.763L10.6058 12.4791L11.5993 13.123L12.0272 13.039L12.1328 12.8804L9.17134 10.9599Z" fill="#4FBBC2"/>
<path fill-rule="evenodd" clip-rule="evenodd" d="M40.1461 11.6827L40.2062 11.5511L40.3027 11.4329L40.4446 11.3372L40.604 11.2944L40.7382 11.3023L40.8654 11.3651L40.9536 11.4427L41.034 11.5511L41.076 11.6365L41.101 11.7503L41.0976 11.8617L41.0437 11.9532L40.9599 12.0552L40.8354 12.0936L40.7097 12.1077L40.5446 12.1055L40.3872 12.0636L40.237 12.0153L40.1203 11.9749L40.1117 11.835L40.1461 11.6827ZM43.4739 15.3657C42.9664 14.1533 42.3406 13.0005 41.6101 11.9224L41.2493 12.1831C41.3898 12.3886 41.5234 12.5997 41.6555 12.8102L40.7431 13.4303L40.0293 12.4019L40.0139 12.3307L40.2424 12.372L40.4475 12.3991L40.6194 12.3977L40.753 12.3879L40.8725 12.3419L40.9529 12.2887L41.0431 12.2L41.1115 12.1041L41.1855 11.9887L41.2359 11.8418L41.2417 11.7064L41.2479 11.5707L41.1879 11.3594L41.1115 11.2162L40.915 11.0414L40.7872 10.9597L40.6369 10.9294L40.4446 10.9498L40.2628 11.0219L40.0951 11.1345L39.958 11.2764L39.8811 11.4379L39.8399 11.5966L39.8252 11.7202L39.8125 11.8958L39.6727 11.8643L39.4994 11.8246L39.2993 11.7664L39.1399 11.7481L38.9421 11.7307L38.7827 11.7399L38.5555 11.8259L38.3836 11.9412L38.2933 12.0469L38.2018 12.1615L38.1396 12.2817L38.0997 12.3943L38.0668 12.5251L38.0527 12.6655V12.7858L38.0864 12.9417L38.1213 13.0779L38.2291 13.2339L38.3353 13.3576L38.436 13.4374L38.5451 13.4953L38.6674 13.5108L38.4219 14.4455L38.5618 14.6462L38.8205 13.5778L38.9408 13.5898L39.1028 13.5961L39.2344 13.5561L39.347 13.499L39.454 13.3926L39.4937 13.2689L39.5057 13.1465L39.4407 12.9746L39.3392 12.8809L39.2252 12.8327L39.0757 12.8116L38.9687 12.8514L38.8758 12.9138L38.8128 12.99L38.7737 13.085L38.747 13.1927L38.6401 13.1578L38.5584 13.0625L38.4954 12.9738L38.4199 12.8319L38.4123 12.7508L38.431 12.6292L38.4709 12.5165L38.5422 12.4061L38.6254 12.3146L38.7527 12.23L38.9072 12.1894L39.0812 12.1697L39.2176 12.1818L39.3749 12.2021L39.5085 12.2264L39.7021 12.2608L39.8244 12.2929L39.842 12.4453L39.8657 12.6083L39.8993 12.7977L39.9265 12.9725L40.3993 13.6618L38.9387 14.6433L38.8905 15.0915L38.9758 15.2126L41.9302 13.2655C42.1485 13.6402 42.3546 14.0205 42.5469 14.4071L39.5643 15.82L39.4183 16.224L39.5023 16.3947L42.765 14.8622C42.8733 15.0944 42.9776 15.3286 43.0755 15.5634L43.4739 15.3657Z" fill="#4FBBC2"/>
<path fill-rule="evenodd" clip-rule="evenodd" d="M40.4472 10.3705C39.0678 8.70499 37.4165 7.26354 35.5651 6.10915L36.0196 5.55837L36.2377 5.33113L36.5202 5.20593L36.7804 5.17509L37.0676 5.26615L37.341 5.48064L37.527 5.7464L37.6598 6.05253L37.7472 6.42734L37.8143 6.75663L37.8592 7.14671L37.8787 7.39272L38.0165 7.48504V7.25439L38.0212 7.02589L38.0094 6.7112L37.9773 6.3861L37.9282 6.07491L37.8555 5.79319L37.7548 5.49183L37.5815 5.24085L37.3102 4.99484L37.0439 4.84999L36.8166 4.78355L36.5518 4.74805L36.3524 4.77879L36.084 4.86206L35.8315 5.02276L35.6379 5.25622L35.1568 5.86177C34.8046 5.65331 34.4451 5.4535 34.0796 5.26673L33.8669 5.65049C34.2333 5.8393 34.5941 6.03921 34.9486 6.24894L33.1943 8.73661L33.2692 9.15947L33.4273 9.26726L35.3729 6.50828C35.9974 6.90196 36.6022 7.33134 37.1837 7.79419L36.9893 7.99536L36.7726 7.91919L36.6454 7.87512L36.4602 7.79973L36.2531 7.72006L36.2322 8.25703L36.4098 8.24429L36.5523 8.24643L36.6992 8.27085L36.8558 8.3296L36.9676 8.36404L37.0921 8.43943L37.2074 8.5477L37.2998 8.68962L37.3284 8.8547L37.3194 9.00218L37.2802 9.10286L37.1865 9.24138L37.06 9.3729L36.8894 9.47699L36.5719 9.56726L36.2789 9.54479L36.0833 9.49372L35.814 9.39372L35.7091 9.33224L35.803 9.21482L35.8714 9.10286L35.8686 8.96871L35.8252 8.85529L35.7435 8.75898L35.5875 8.67571L35.4331 8.69458L35.3037 8.7512L35.1897 8.87017L35.1177 8.98544L35.0976 9.11696L35.0912 9.24838L35.1437 9.40918L35.1835 9.53856L35.2688 9.67553L35.3045 9.83283L35.3394 10.0356L35.4715 11.2067L35.7923 11.517L35.6561 11.0757L35.5925 10.4739L35.568 10.0447L35.5742 9.8266L35.7169 9.89576L36.0315 9.98176L36.3692 10.0335L36.6588 10.0076L36.8685 9.93409L37.0613 9.81882L37.1761 9.70004L37.311 9.53778L37.4263 9.35043L37.4863 9.20432L37.5417 9.05198L37.5612 8.91346L37.5654 8.78612L37.5557 8.66453L37.5228 8.54147L37.4151 8.3904L37.3347 8.31627L37.5192 8.06822C37.9416 8.42055 38.3506 8.78972 38.7462 9.17854C38.7736 9.20568 38.7994 9.23224 38.8252 9.25938L36.5789 11.6505L36.5936 12.0826L36.7328 12.2127L39.198 9.63983C39.5161 9.97398 39.8223 10.316 40.113 10.6675L40.4472 10.3705Z" fill="#4FBBC2"/>
<path fill-rule="evenodd" clip-rule="evenodd" d="M42.8845 20.092L42.6782 20.1248L42.4455 19.9835L42.2624 19.8276L43.0928 18.8642L43.1711 19.1118L43.2047 19.4074L43.1964 19.6815L43.0341 19.9592L42.8845 20.092ZM42.0239 19.5563L41.9532 19.4585L41.889 19.2936L41.8567 19.0103L41.8812 18.8068L41.9652 18.6027L42.0777 18.4658L42.2203 18.3573L42.4589 18.3064L42.6587 18.326L42.8048 18.3888L42.9034 18.5371L42.0239 19.5563ZM46.755 19.7283L46.2481 20.0549L46.2593 20.5407L46.2068 20.8483L46.1202 21.0672L45.9326 21.2965L45.7265 21.4768L45.4777 21.5754L45.27 21.6286L44.9546 21.6607C44.852 20.0961 44.5666 18.5824 44.1192 17.136L43.6774 17.2185C43.9522 18.0993 44.1625 19.0027 44.3086 19.9213L43.1229 20.1178L43.2872 19.9193L43.4046 19.7283L43.499 19.5529L43.5614 19.3369L43.5815 19.2208L43.5921 19.0601L43.5381 18.8629L43.4927 18.674L43.4291 18.5112L43.3187 18.3505L43.1781 18.177L43.0208 18.0505L42.846 17.9443L42.6146 17.9028L42.4322 17.9008L42.2295 17.9505L42.0148 18.075L41.8142 18.2581L41.636 18.505L41.5561 18.7035L41.4941 18.9328L41.4945 19.1152L41.5086 19.3719L41.6149 19.6787L41.745 19.878L41.8408 19.9821L41.998 20.1402L42.1958 20.2626L41.1024 20.4338L40.8457 20.7841L40.8752 20.9707L44.3806 20.4157C44.4338 20.8162 44.4737 21.219 44.5009 21.6252L41.3185 21.6777L40.9597 21.9733L40.9647 22.1718L44.5282 22.1173C44.5408 22.3999 44.5463 22.68 44.5463 22.9634C44.5463 23.8092 44.4912 24.6474 44.3835 25.4739L44.2807 25.4661L43.9368 25.4354L44.0759 24.0685L44.0682 23.8546L43.9913 23.6904L43.8214 23.5793L43.5773 23.5443L43.33 23.5674L43.1447 23.6448L42.9592 23.7526L42.7719 23.9183L42.623 24.0532L42.5363 24.1971L42.4593 24.3777L42.4385 24.6699L42.5321 24.8677L42.6266 25.0439L42.6979 25.1677L42.7581 25.3404L42.7098 25.5026L42.6013 25.6102L42.4176 25.6451L42.1797 25.6088L41.9811 25.5397L41.8128 25.4194L41.6407 25.2592L41.5254 25.0579L41.4604 24.8167L41.5121 24.4685L41.6274 24.242L41.9386 23.8945L42.2595 23.6364L42.781 23.271L42.6251 23.2563L42.4126 23.3541L42.1035 23.5352L41.8645 23.698L41.5932 23.8762L41.3709 24.0644L41.1674 24.2707L40.9864 24.5846L40.9548 24.9174L41.001 25.151L41.0576 25.3067L41.1885 25.5313L41.3388 25.7075L41.5198 25.8514L41.7106 25.936L41.9616 25.9871L42.2161 25.9962L42.4846 25.9268L42.7111 25.8339L42.8692 25.7207L43.0236 25.5152L43.1103 25.3292L43.1306 25.0082L43.1293 24.8047L43.0615 24.5272L42.9832 24.3748L42.9104 24.2063L42.9963 24.0498L43.1669 24.0078L43.6585 24.058L43.4873 25.8724L44.2011 25.9381L44.3156 25.9527C44.2856 26.1549 44.2506 26.3568 44.2136 26.5575L44.6673 26.5708C44.6882 26.4575 44.708 26.343 44.7275 26.2268L44.7931 26.1815L44.9658 26.0988L45.1063 26.0199L45.2867 25.9723L45.4378 25.9373H45.635L45.816 25.9864L45.9608 26.0576L46.0811 26.1471L46.1536 26.2339L46.1977 26.3618L46.1844 26.4995L46.1132 26.6478L46.0271 26.7275L45.8475 26.8344L45.6894 26.9149L45.672 27.0028L45.9551 26.9743L46.146 26.9149L46.3388 26.7967L46.4844 26.6316L46.5248 26.4233L46.4941 26.2248L46.4299 26.0597L46.3279 25.9206L46.2173 25.8319L46.0636 25.734L45.8355 25.6633L45.6076 25.6479L45.3294 25.678L45.0224 25.8066L44.7693 25.9626C44.9196 24.9853 44.9981 23.9832 44.9981 22.9634C44.9981 22.6389 44.9895 22.3166 44.9743 21.9957L45.2483 21.9496L45.4699 21.9041L45.6531 21.8467L45.8601 21.7706L46.0474 21.6777L46.1935 21.5615L46.3613 21.4259L46.5061 21.2469L46.5922 21.1287L46.6522 21.0183L46.7367 20.8415L46.7682 20.5534L46.755 19.7283Z" fill="#4FBBC2"/>
<path fill-rule="evenodd" clip-rule="evenodd" d="M26.6419 5.02283L25.3988 4.94452L25.5163 3.48458C25.9329 3.50073 26.3469 3.52738 26.7594 3.56785L26.6419 5.02283ZM21.5536 3.85871L21.8339 5.213L21.8032 5.31709L21.7087 5.47157L21.5689 5.65134L21.404 5.80581L21.2151 5.90513L20.9608 5.95679L20.7635 5.9492L20.5944 5.88558L20.3943 5.7492L20.2196 5.6346L20.0267 5.44365L20.2735 5.46262L20.4546 5.42614L20.6502 5.30376L20.7985 5.19345L20.8964 5.04938L20.9746 4.88508L20.9845 4.72068L20.9831 4.59987L20.9279 4.4452L20.8384 4.32778L20.7286 4.23829L20.6187 4.17749L20.535 4.13216L20.4875 4.10054L20.1637 3.98449C20.6083 3.88108 21.0607 3.79451 21.5159 3.72252L21.5536 3.85871ZM14.1504 8.25292L13.1632 8.99962L12.2403 7.84727C12.5634 7.58715 12.892 7.33773 13.2276 7.09853L14.1504 8.25292ZM29.707 5.85114L29.5238 5.94083L29.379 6.00795L29.2104 6.06301L29.0568 6.1134L28.9036 6.14414L28.7015 6.10008L28.5282 5.97848L28.4429 5.84015L28.415 5.6884L28.4246 5.56884L28.4429 5.44229L28.5157 5.32069L28.5911 5.23178L28.7101 5.13888L28.8317 5.099L28.9882 5.07448L29.1889 5.05697L29.3406 5.13742L29.4839 5.2597L29.5838 5.37585L29.6958 5.55425L29.8146 5.76817L29.707 5.85114ZM32.5551 5.03956L32.7258 4.63411C30.276 3.59859 27.5752 3.02543 24.7395 3.02543C24.3382 3.02543 23.9411 3.03798 23.5468 3.06036L23.5237 2.61638L23.5482 2.30461L23.6895 2.03272L23.8726 1.84799L24.153 1.74176L24.5026 1.74099L24.8178 1.83466L25.1163 1.9907L25.4226 2.22971L25.6847 2.44518L25.9678 2.72203L26.1392 2.90092L26.3057 2.88973L26.1588 2.7087L26.0162 2.52689L25.8071 2.28914L25.5749 2.05568L25.3393 1.84303L25.1038 1.66774L24.8339 1.49555L24.5381 1.40606L24.1705 1.38232L23.8719 1.43271L23.6524 1.52007L23.423 1.65577L23.2874 1.80334L23.1296 2.03321L23.0351 2.31366L23.033 2.6156L23.0763 3.09324C18.4856 3.45949 14.328 5.33178 11.1133 8.2073L11.4154 8.54932C11.567 8.41158 11.7222 8.27879 11.879 8.14727L12.771 9.29592L12.441 9.54622L12.632 9.79165L13.5085 9.90702L13.7483 9.72521L13.4274 9.31616L14.4175 8.56732L15.3103 9.71188L15.7431 9.77005L15.8948 9.65449L13.6758 6.79162C14.0126 6.56652 14.3567 6.35047 14.7055 6.14628L16.4457 9.00857L16.8658 9.12404L17.033 9.03094L15.1389 5.90153C15.5872 5.65474 16.0471 5.42614 16.5156 5.21583L16.3987 5.41777L16.3114 5.59132L16.2764 5.72196L16.3009 5.89891L16.3987 6.01836L16.5688 6.10581L16.7442 6.13938L16.8939 6.15192L17.1036 6.12245L17.2652 6.07294L17.1658 6.27352L17.1063 6.41545L17.0687 6.57489L17.0924 6.76088L17.1887 6.92791L17.2931 7.06769L17.4377 7.16847L17.5503 7.24046L17.7168 7.31945L17.9075 7.38735L18.0718 7.42431L18.2928 7.44396L18.506 7.42431L18.7283 7.37266L18.9185 7.29649L19.0695 7.19785L19.2164 7.07479L19.3555 6.91117L19.4638 6.70641L19.1569 5.96515L19.1562 6.14074L19.1191 6.31418L19.0577 6.46448L18.9654 6.64483L18.8906 6.76302L18.7914 6.87207L18.6738 6.97693L18.5472 7.05806L18.4116 7.11254L18.2446 7.16429L18.0747 7.14386L17.9558 7.10894L17.8202 7.05514L17.6922 6.95806L17.6139 6.85592L17.5433 6.68316L17.5294 6.49794L17.5887 6.33169L17.6915 6.16729L17.8125 6.0455L17.9383 5.92186L18.1264 5.80231L18.2767 5.74151L17.6998 5.47235L17.632 5.57167L17.5762 5.64997L17.4971 5.74424L17.3818 5.81564L17.2182 5.89677L17.0392 5.91768L16.8918 5.88354L16.7729 5.81359L16.7288 5.70299L16.7296 5.54093L16.782 5.40318L16.8274 5.27585L16.9168 5.15357L17.0246 4.99491C17.9117 4.62419 18.8284 4.31815 19.7679 4.08099C20.0651 4.1308 20.1546 4.16076 20.1546 4.16076L20.1791 4.16368L20.2769 4.21251L20.4001 4.28945L20.5105 4.39354L20.5769 4.53206L20.5775 4.71942L20.5328 4.86213L20.4455 4.96203L20.3636 5.05989L20.2532 5.13684L20.1546 5.18509L20.0197 5.21145L19.8981 5.22263L19.7554 5.16758L19.6276 5.18849L19.6918 5.39822L19.8128 5.55902L19.9539 5.72536L20.1168 5.89813L20.3014 6.07498L20.528 6.22401L20.7126 6.33928L20.8992 6.40844L21.0599 6.45952L21.2368 6.4386L21.4844 6.35261L21.6297 6.23578L21.8024 6.05124L21.9766 5.82196L22.2143 6.96857L22.5772 7.20758L22.7652 7.16993L22.0836 3.88108L22.0332 3.64684C22.387 3.60015 22.7429 3.56309 23.1014 3.53439L23.3413 6.83578L23.6691 7.11886L23.86 7.10631L23.6098 3.50005C23.9845 3.4804 24.3613 3.46863 24.7395 3.46863C24.8269 3.46863 24.9157 3.47077 25.003 3.47203L24.9053 4.91456L24.4899 4.88849L24.4697 5.19763L25.0514 5.85114L25.3526 5.86943L25.3863 5.35415L26.6315 5.43188L26.5391 6.87129L26.8251 7.19503L27.0173 7.20758L27.2571 3.62447C28.2947 3.75248 29.3141 3.96153 30.3075 4.24607L29.8748 5.62546L29.6566 5.16476L29.5238 4.94034L29.3573 4.77808L29.1813 4.70191L28.9827 4.64529L28.7127 4.66621L28.5345 4.70395L28.3842 4.79423L28.2514 4.90045L28.138 5.02623L28.0534 5.22896L28.008 5.41019L28.013 5.55688L28.0471 5.72468L28.1408 5.93646L28.2506 6.08276L28.3722 6.21272L28.4946 6.31837L28.6469 6.39667L28.8917 6.46866L29.1966 6.50076L29.4568 6.41409L29.6642 6.32391L29.335 7.42013L29.5419 7.79766L29.7257 7.85146L30.2298 6.17644L30.4216 6.09803L30.6381 6.02751L30.7822 5.99385L30.9074 5.96039L31.0527 5.9492L31.2366 6.00299L31.3535 6.07576L31.4359 6.1848L31.4828 6.31272L31.4526 6.46292L31.3834 6.61059L31.2702 6.70144L31.1137 6.82586L31.0156 6.86711L30.887 6.91536L30.7654 6.93773L30.6606 6.9532L30.5593 6.9245L30.7591 7.50398L30.9668 7.4139L31.2136 7.3069L31.3926 7.19581L31.5149 7.04756L31.6141 6.89162L31.6722 6.77965L31.7135 6.59308L31.7127 6.40786L31.684 6.22741L31.6511 6.08626L31.6029 5.96389L31.5317 5.81418L31.4562 5.68704L31.3814 5.60309L31.2528 5.53392L31.1262 5.49764L31.0214 5.48071H30.8627L30.7109 5.51719L30.5424 5.56807L30.4019 5.59958L30.7787 4.388C31.3822 4.57671 31.9749 4.79423 32.5551 5.03956Z" fill="#4FBBC2"/>
<path fill-rule="evenodd" clip-rule="evenodd" d="M7.64817 28.4551C7.64817 28.7858 7.38124 29.0543 7.04913 29.0543C6.71907 29.0543 6.45068 28.7858 6.45068 28.4551C6.45068 28.1244 6.71907 27.856 7.04913 27.856C7.38124 27.856 7.64817 28.1244 7.64817 28.4551Z" fill="#4FBBC2"/>
<path fill-rule="evenodd" clip-rule="evenodd" d="M43.7996 28.4551C43.7996 28.7858 43.5311 29.0543 43.2004 29.0543C42.869 29.0543 42.6006 28.7858 42.6006 28.4551C42.6006 28.1244 42.869 27.856 43.2004 27.856C43.5311 27.856 43.7996 28.1244 43.7996 28.4551Z" fill="#4FBBC2"/>
<path fill-rule="evenodd" clip-rule="evenodd" d="M32.2007 52.7002L32.993 53.3393C33.0076 53.3616 33.0131 53.3903 33.0061 53.4168C33.0006 53.4427 32.9839 53.4658 32.9601 53.4792L32.9495 53.4839C32.9447 53.4875 32.939 53.4902 32.9336 53.4917C32.9111 53.5001 32.8866 53.4993 32.8642 53.4888L32.033 53.1212L31.5996 52.9045L32.2007 52.7002Z" fill="#4FBBC2"/>
<path fill-rule="evenodd" clip-rule="evenodd" d="M10.4422 48.0327C10.4436 48.0327 10.4436 48.0315 10.4436 48.0315C10.4442 48.0307 10.445 48.0307 10.4458 48.0293C10.5799 47.8455 10.619 47.6553 10.5624 47.4574C10.5415 47.3918 10.5162 47.3288 10.4855 47.2707L10.4296 47.1708L10.5024 47.1861C10.5618 47.1987 10.6135 47.2036 10.6576 47.1966C10.7434 47.1861 10.8176 47.1645 10.8785 47.1317C10.9393 47.0996 10.9994 47.0435 11.0575 46.9652C11.1525 46.8358 11.1909 46.6967 11.1708 46.5478C11.1363 46.3353 10.9965 46.1389 10.7505 45.9556C10.6463 45.8788 10.5407 45.8206 10.4358 45.7815C10.236 45.7124 10.0604 45.7166 9.91093 45.7969C9.80607 45.8676 9.73253 45.9255 9.68914 45.9725L9.96959 46.1919L10.0688 46.1194L10.1394 46.0933C10.217 46.0779 10.2877 46.08 10.3527 46.1011C10.4178 46.1206 10.4925 46.1619 10.5765 46.2248C10.6156 46.2534 10.6618 46.301 10.7135 46.3654C10.8212 46.501 10.8351 46.6226 10.7547 46.731C10.6931 46.8149 10.6051 46.8582 10.4912 46.859C10.3296 46.8603 10.1689 46.7954 10.0095 46.6652L9.92552 46.6018L9.91852 46.5773L9.86813 46.566L9.6654 46.8394L9.69128 46.8849L9.70743 46.8799L9.73613 46.8945L9.78642 46.9226L9.8585 46.9756C9.91298 47.0127 9.97455 47.0679 10.0395 47.1434L10.1711 47.326C10.2423 47.5008 10.2261 47.6573 10.1241 47.7951C10.0904 47.8397 10.0451 47.8812 9.98768 47.9167C9.93603 47.9404 9.88146 47.9462 9.82562 47.9342C9.76959 47.9224 9.71502 47.9055 9.6654 47.8825C9.61589 47.858 9.5655 47.8342 9.51443 47.8092L9.40529 47.7281C9.35499 47.6902 9.3117 47.6545 9.27746 47.6195C9.15723 47.5008 9.09351 47.3944 9.08447 47.2994C9.07814 47.2379 9.08106 47.1854 9.09565 47.1434C9.11024 47.1016 9.14731 47.0393 9.20752 46.9576L8.92084 46.7442L8.88797 46.7729L8.85664 46.8149C8.81102 46.8765 8.77133 46.9498 8.73689 47.038C8.71189 47.1674 8.69934 47.2449 8.70139 47.2714C8.70975 47.5308 8.86919 47.7742 9.18096 48.0048C9.24254 48.0495 9.30334 48.0915 9.36414 48.1272C9.53603 48.2285 9.70607 48.2874 9.87309 48.302C10.1025 48.3216 10.2933 48.2328 10.4422 48.0327Z" fill="#4FBBC2"/>
<path fill-rule="evenodd" clip-rule="evenodd" d="M19.8956 50.1041C19.6552 50.0543 19.4168 49.9997 19.1784 49.9431L19.1722 49.8935L19.1365 49.7656L19.1086 49.6454L19.0546 49.4607L19.0071 49.3251L18.947 49.2035L18.9105 49.1398L18.833 49.0315L18.6786 48.8421L18.5975 48.754L18.5009 48.6645L18.3976 48.5882L18.2883 48.5058L18.1737 48.4289C18.1591 48.4127 18.1396 48.4002 18.1163 48.3932L18.0465 48.3603L17.9626 48.3569C17.9102 48.3561 17.8737 48.3764 17.852 48.4189L17.8361 48.4526L17.8241 48.4931L17.8151 48.5455C17.8207 48.5966 17.8234 48.6232 17.8234 48.6266L17.8486 48.6937L17.9087 48.7469L18.1185 48.8559L18.2359 48.9224L18.3394 48.9986L18.4261 49.0761L18.5066 49.1435C18.5443 49.174 18.5716 49.2063 18.5904 49.2412L18.6687 49.3496L18.731 49.4677L18.8232 49.6522L18.9254 49.8753C18.926 49.8773 18.9274 49.8795 18.9288 49.8823C16.2379 49.2133 13.7062 48.0938 11.4432 46.5635L11.2417 46.8747C11.3761 46.9642 11.5136 47.0516 11.6508 47.1403L11.2013 47.7479L10.8181 47.4661L10.6188 47.7338L11.0021 48.0169L10.3008 48.9645L10.6096 49.2055L11.9984 47.355C12.4667 47.6415 12.9483 47.9128 13.4406 48.1687L13.4398 48.1897L13.4818 48.2457L13.5355 48.3372L13.5608 48.3785C13.6426 48.5603 13.6467 48.7219 13.5776 48.8609C13.5397 48.9364 13.4881 48.9994 13.4223 49.0532C13.3603 49.0923 13.2929 49.1126 13.221 49.116C13.0756 49.1098 12.9519 49.0748 12.8463 49.0112L12.7252 48.9384L12.5966 48.8218L12.4633 48.6895L12.3094 48.9978L12.5492 49.1832L12.5051 49.2726C12.4653 49.3433 12.4317 49.4383 12.4023 49.5601C12.3869 49.667 12.3827 49.7579 12.3869 49.834C12.4051 50.1249 12.5883 50.3417 12.9323 50.4871L13.1685 50.5885L13.3629 50.6451L13.5126 50.3094L13.3561 50.3073L13.2666 50.2984L13.1946 50.2676C13.0848 50.2207 12.9869 50.1494 12.8974 50.055C12.8197 49.9767 12.7714 49.8922 12.7547 49.8012C12.7317 49.6767 12.7533 49.5468 12.8212 49.4132L12.8414 49.3712L12.8562 49.3552C12.947 49.4007 13.0414 49.4299 13.1406 49.4447C13.2014 49.4481 13.2588 49.4495 13.3099 49.4481C13.5833 49.4369 13.7853 49.3 13.9175 49.0349C13.9858 48.8979 14.002 48.7546 13.9671 48.6043L13.9292 48.4526L13.918 48.4114C14.2214 48.5588 14.5285 48.7022 14.8382 48.8393L14.45 49.5846L13.874 49.2972L13.7187 49.6055L14.2956 49.8935L13.7915 50.9003L14.1349 51.0897L15.1836 48.9867C15.9365 49.3034 16.7098 49.5859 17.5025 49.8299L17.3822 50.3431L17.353 50.329C17.3292 50.3067 17.311 50.2927 17.2971 50.2893L17.2446 50.257L17.174 50.2186C17.1166 50.1795 17.055 50.1466 16.9901 50.1236L16.8294 50.0746L16.5993 50.0234L16.3902 50.0081L16.1875 50.0438L16.0043 50.1067C15.7771 50.2144 15.6268 50.3864 15.5534 50.6248C15.445 50.9757 15.5024 51.277 15.7282 51.5316L15.8771 51.6699L16.1176 51.8267L16.2951 51.5916L16.1218 51.4456L16.0274 51.3394C15.9553 51.2408 15.91 51.1414 15.8903 51.0402C15.87 50.9394 15.8771 50.8359 15.9092 50.7304C15.9567 50.5766 16.0615 50.4689 16.2238 50.4067C16.277 50.3864 16.319 50.3738 16.3496 50.3689C16.365 50.3662 16.4078 50.3662 16.4761 50.3696C16.5854 50.3704 16.6749 50.3837 16.7433 50.4087L16.8852 50.4641L16.9559 50.4996L17.0363 50.5429L17.1096 50.5927L17.1816 50.631L17.2334 50.6801L17.2697 50.708L16.8565 52.0433L17.2181 52.1665L17.899 49.9446C18.2192 50.0375 18.5421 50.1236 18.868 50.2032L18.443 52.4153L18.8168 52.4978L19.24 50.2927C19.4427 50.3396 19.6462 50.3837 19.8523 50.4249L19.8956 50.1041Z" fill="#4FBBC2"/>
<path fill-rule="evenodd" clip-rule="evenodd" d="M22.9609 51.4351L22.1813 51.4044L22.1975 50.7829C22.4563 50.81 22.7157 50.8338 22.9771 50.8528L22.9609 51.4351ZM21.7697 52.1847C21.7663 52.198 21.7543 52.2197 21.736 52.2518C21.6977 52.3027 21.6228 52.3272 21.5117 52.3246C21.3943 52.3216 21.3124 52.2825 21.2649 52.2098C21.232 52.1594 21.2187 52.0853 21.2244 51.9853C21.2257 51.94 21.2376 51.8966 21.2607 51.8539C21.2839 51.8105 21.318 51.7819 21.3626 51.7658L21.4146 51.7461L21.5061 51.7274L21.7754 51.7351L21.7668 52.0483L21.7822 52.0952L21.7697 52.1847ZM25.3751 50.9199L25.3577 50.6087C25.2137 50.6107 25.0697 50.6123 24.9256 50.6123C23.4391 50.6123 21.9744 50.4829 20.5477 50.2285L20.4482 50.5382C20.8944 50.6165 21.3452 50.6822 21.8012 50.7373L21.7842 51.3945L21.5117 51.3869L21.3167 51.414L21.1852 51.4477C20.9635 51.5442 20.8489 51.7218 20.8427 51.9833C20.8398 52.0882 20.8559 52.1839 20.891 52.2685C20.9259 52.3545 20.9727 52.43 21.0355 52.4944C21.1258 52.5594 21.1944 52.6034 21.2426 52.6264C21.3194 52.6531 21.4075 52.6671 21.5061 52.6698C21.8928 52.6796 22.1115 52.5453 22.1597 52.2672L22.1731 51.7441L22.9525 51.7756L22.9212 53.0256L23.3189 53.046L23.3841 50.88C23.7076 50.8988 24.035 50.9115 24.3635 50.9191L24.369 53.0837L24.7509 53.0928L24.7446 50.9233C24.79 50.9233 24.8354 50.9248 24.8808 50.9248C25.0458 50.9248 25.2108 50.9233 25.3751 50.9199Z" fill="#4FBBC2"/>
<path fill-rule="evenodd" clip-rule="evenodd" d="M39.7639 47.6192L39.7115 47.7366C39.6844 47.7924 39.664 47.8302 39.6515 47.8498C39.5571 47.9714 39.4382 48.0741 39.2962 48.1582C39.2096 48.2106 39.1146 48.2525 39.0118 48.2846C38.9173 48.3043 38.8342 48.3097 38.7629 48.2986L38.6412 48.2672L38.5315 48.2168L38.4405 48.1371C38.4245 48.1224 38.405 48.0958 38.3813 48.0567L38.5559 47.9714L38.7692 47.8203C38.8342 47.7582 38.8838 47.698 38.9195 47.64C39.0209 47.4631 39.0215 47.2911 38.9229 47.124C38.8404 47.0136 38.7593 46.9424 38.6777 46.9059L38.5607 46.8542L38.5495 46.8534C38.758 46.7144 38.9628 46.5725 39.1663 46.4276L39.1712 46.436L39.8032 47.4994L39.7639 47.6192ZM37.2422 48.3364L36.5647 48.7439L36.2424 48.2098C36.4822 48.0861 36.7186 47.9601 36.9521 47.8302L37.2422 48.3364ZM36.4927 49.8801C36.3927 49.9403 36.3026 49.9521 36.2229 49.915C36.1691 49.8913 36.1172 49.8347 36.0692 49.7486C36.0452 49.7095 36.0327 49.6654 36.0293 49.6166C36.0251 49.569 36.0384 49.5255 36.0669 49.4885L36.0998 49.4446L36.1676 49.3794L36.3984 49.2396L36.5613 49.5096L36.5984 49.5417L36.6346 49.6236C36.6403 49.6369 36.6424 49.662 36.6437 49.6977C36.6382 49.7613 36.5878 49.8235 36.4927 49.8801ZM39.4509 46.2208C39.6172 46.0971 39.7836 45.9726 39.9471 45.8439L39.7494 45.5818C35.8978 48.6189 31.1122 50.3674 26.0239 50.5884L26.0566 50.8981C26.4657 50.879 26.8719 50.8491 27.2747 50.8114L27.306 50.8282L27.3493 50.8519C27.5124 50.9638 27.6003 51.0987 27.613 51.2547C27.6186 51.3385 27.6082 51.4188 27.5802 51.4992C27.5474 51.5657 27.5004 51.6174 27.4404 51.6573C27.313 51.7272 27.1878 51.7614 27.065 51.7609L26.9251 51.7614L26.7531 51.728L26.5706 51.6852L26.5992 52.0292L26.9006 52.0635L26.909 52.1629C26.9111 52.2433 26.9321 52.3424 26.9698 52.4619C27.0126 52.5592 27.0551 52.6403 27.0991 52.7032C27.2656 52.9422 27.5333 53.0345 27.9038 52.98L28.1584 52.9438L28.3527 52.8905L28.3087 52.5271L28.1738 52.6067L28.0913 52.6453L28.0151 52.6571C27.8969 52.6725 27.7751 52.6633 27.6501 52.6278C27.5432 52.6011 27.4584 52.5543 27.3976 52.4851C27.3124 52.3914 27.2635 52.2684 27.2516 52.1187L27.2481 52.0719L27.2516 52.0502C27.3535 52.0426 27.4501 52.0194 27.5432 51.9803C27.5962 51.9516 27.6445 51.9229 27.6893 51.8942C27.9158 51.7447 28.0177 51.5217 27.994 51.2281C27.9822 51.0755 27.9212 50.9434 27.813 50.8336L27.743 50.7632C28.0548 50.7287 28.3639 50.6883 28.6715 50.6408L28.7345 51.4217L28.0926 51.4734L28.1205 51.8181L28.7618 51.7663L28.8533 52.8877L29.2442 52.8725L29.0602 50.58C29.788 50.459 30.5054 50.3066 31.2072 50.1248L31.2521 50.5743L30.7606 50.6534L30.5557 50.7303C30.4921 50.754 30.4452 50.7807 30.4151 50.8114C30.1998 50.9946 30.1179 51.2364 30.167 51.5378C30.1845 51.6482 30.2257 51.7593 30.2907 51.8725C30.3593 51.9685 30.4494 52.046 30.5612 52.1061C30.7697 52.2174 31.0081 52.248 31.2758 52.1971L31.4449 52.1642L31.5143 52.1321L31.543 52.1117L31.7764 52.5355L32.1428 52.3432L31.8211 51.9656L32.0869 51.8055L31.9658 51.544L31.5484 51.3734L31.2834 51.5266L31.3953 51.8175L31.3757 51.8307L31.2171 51.8725C31.1305 51.8866 31.0514 51.8908 30.9807 51.8853C30.9116 51.8791 30.8466 51.8594 30.7877 51.8265C30.6507 51.7502 30.5696 51.6385 30.5466 51.4916C30.5325 51.4063 30.5403 51.3181 30.5675 51.2302C30.6011 51.1498 30.657 51.0867 30.7332 51.0393L30.8276 50.9925C30.8941 50.9665 30.945 50.9498 30.9786 50.9414L31.6582 50.831L31.543 50.0353C31.9974 49.9116 32.4475 49.7739 32.8915 49.6249C32.986 49.6654 33.0935 49.7131 33.1355 49.7402C33.2258 49.8164 33.2914 49.8751 33.3334 49.915C33.4459 50.0353 33.5375 50.1849 33.6081 50.3638C33.7032 50.603 33.7339 50.7841 33.6998 50.9072C33.6719 51.0078 33.6067 51.0791 33.5033 51.1204C33.4026 51.1609 33.3053 51.1595 33.209 51.119L33.0893 51.0429C33.0655 51.0217 33.0418 50.9826 33.0201 50.9231C32.988 50.8092 33.0081 50.7267 33.0802 50.6799C33.09 50.6687 33.1117 50.6562 33.1446 50.6434C33.1586 50.6302 33.1921 50.6127 33.2481 50.5918L33.1327 50.2758L33.0321 50.3324L32.8929 50.4337L32.7916 50.519L32.7175 50.6043C32.6222 50.7429 32.6098 50.8994 32.6776 51.07C32.7139 51.1616 32.7642 51.2398 32.8271 51.3064C32.8929 51.3734 32.9685 51.428 33.0579 51.472C33.1586 51.507 33.2508 51.5231 33.334 51.5217C33.4186 51.5209 33.5067 51.5013 33.5977 51.465C33.8772 51.3546 34.0387 51.1728 34.0822 50.9197C34.1136 50.7351 34.0744 50.5036 33.964 50.2255C33.9317 50.1444 33.8934 50.0737 33.8508 50.0123L33.6956 49.7934C33.6591 49.7507 33.6348 49.722 33.6215 49.7095C33.5675 49.6606 33.5292 49.6249 33.5059 49.604L33.3019 49.483C33.5641 49.3886 33.8242 49.2915 34.0822 49.1892L34.9505 51.3231L35.3202 51.1874L34.4806 49.0285C34.9588 48.83 35.4266 48.6161 35.8866 48.3895L36.2229 48.9489L35.9907 49.0893L35.8405 49.2159L35.7475 49.3152C35.6119 49.5166 35.6111 49.7277 35.7454 49.9513C35.7999 50.0408 35.8649 50.1136 35.9398 50.166C36.0147 50.2192 36.0963 50.2576 36.183 50.2792C36.2936 50.2855 36.376 50.2855 36.4292 50.2786C36.5075 50.2605 36.5892 50.2255 36.6739 50.1751C37.0045 49.9758 37.1172 49.7452 37.0094 49.4843L36.7395 49.0355L37.4163 48.6285L38.0616 49.6997L38.4084 49.5039L37.2871 47.6393C37.5981 47.459 37.9035 47.2724 38.2043 47.0794L38.2672 47.0968C38.3288 47.1115 38.3741 47.1297 38.4014 47.15C38.4462 47.1681 38.4812 47.1892 38.5083 47.2108C38.5357 47.2331 38.5573 47.2562 38.5706 47.2813C38.6343 47.3848 38.6265 47.4765 38.5511 47.5547C38.5232 47.5953 38.4937 47.6246 38.4636 47.6429L38.2344 47.7799L38.0847 47.8443L37.9085 47.8876L37.9463 47.9812L38.0022 48.0749C38.0721 48.1923 38.1449 48.2888 38.2224 48.3643C38.3413 48.4525 38.4313 48.5168 38.4951 48.5565C38.7909 48.6964 39.1208 48.6586 39.4851 48.442C39.56 48.3979 39.6341 48.3406 39.7081 48.2735C39.7968 48.1832 39.8584 48.1162 39.8926 48.0713L39.9772 47.9364L40.0157 47.8582L40.3513 48.4203L40.6855 48.2344L39.4509 46.2208Z" fill="#4FBBC2"/>
</svg>
