<svg class="icb ldlz" style="position: absolute; bottom: 0px; min-width: 100%; left: 0px; right: 0px; transform: translate(calc(-720px + 49vw), 0px); margin: auto; opacity: 1; visibility: visible;" xmlns="http://www.w3.org/2000/svg" viewBox="0 0 1344 571.8"><style type="text/css">
@keyframes cloud-wander {
  0% { transform: translate(-35px,0); animation-timing-function: cubic-bezier(.3,0,.7,1); }
  50% { transform: translate(35px,0); animation-timing-function: cubic-bezier(.3,0,.7,1); }
  100% { transform: translate(-35px,0); }
}
.icb .cw { animation: cloud-wander 8s linear infinite }
.icb .cw1 { animation-delay: -1s }
.icb .cw2 { animation-delay: -5.7s }
.icb .cw3 { animation-delay: -2.5s }
.icb .cw4 { animation-delay: -7.2s; animation-duration: 7s }
.icb .cw5 { animation-delay: -0s; animation-duration: 8s}
.icb .cw6 { animation-delay: -3s; animation-duration: 9s }
.icb .cw7 { animation-delay: -4.3s; animation-duration: 12s }
</style>
<path fill="#38BEE0" d="M25.9-117.7h1349.9v669.9H25.9z"/>
<path class="cw cw1" fill="#48D0F2" d="M1526-2.3c0-53.7-60.9-97.2-136-97.2-63.2 0-116.4 30.8-131.6 72.6-14.6-4.4-30.6-6.9-47.4-6.9-59.4 0-108.9 30.6-119.1 71-10.9-6-24.6-9.5-39.4-9.5-26.5 0-49.2 11.3-59.4 27.5-6.5-1-13.3-1.6-20.3-1.6-34.2 0-64.1 13.1-80.4 32.6-3.9-.4-7.9-.5-12-.5-39.6 0-73.4 17.8-86.6 42.9-10-5.9-22.8-9.4-36.8-9.4-5.7 0-11.3.6-16.5 1.7-11.1-15.4-33.6-26-59.6-26-16.6 0-31.8 4.3-43.6 11.5C626.8 94 607.7 85.7 586 85.7c-2.7 0-5.4.1-8 .4-14.9-22.3-46.7-37.7-83.5-37.7-25.6 0-48.8 7.4-65.5 19.5-10.8-33.6-53-58.7-103.4-58.7-17.8 0-34.6 3.2-49.4 8.7-10.7-14.5-32-24.4-56.6-24.4-15.5 0-29.7 3.9-40.8 10.5-9.6-6.6-21.7-11.4-35.3-13.5v-1.3c0-52.9-60-95.8-134-95.8s-134 42.9-134 95.8c0 51.8 57.4 93.9 129.3 95.7 4.4 29.8 39.7 52.9 82.5 52.9 2.6 0 5.2-.1 7.7-.3 7.2 34.3 48.6 60.6 98.6 60.6 15.6 0 30.3-2.6 43.5-7.1 7.2 31.8 45.8 56.1 92.3 56.1 16.9 0 32.8-3.2 46.4-8.8 14.2 22.5 45.8 38.1 82.5 38.1 9.9 0 19.4-1.1 28.2-3.2 4.9 26.3 36.4 46.7 74.6 46.7 30.9 0 57.4-13.3 69-32.3 10.8 22 40.1 37.8 74.7 37.8 30.6 0 57.1-12.4 70.3-30.6 19.8 12.9 46.2 20.8 75.1 20.8 54.9 0 100.5-28.3 109.9-65.6 11.9 8 27.9 12.9 45.5 12.9 34 0 61.9-18.3 65.8-41.8 12.2 3.8 25.8 6 40 6 38.3 0 71.5-15.5 88.2-38.1 13.5 5.3 29.1 8.4 45.7 8.4 47.9 0 87.5-25.4 93.8-58.5 35.6-2.6 64.6-21 73-45.3C1476.7 86.1 1526 46 1526-2.3z"></path>
<path class="cw cw2" fill="#62D7F4" d="M1420.9 65.8c0-39.7-45-71.8-100.5-71.8-46.8 0-86.2 22.9-97.3 53.9-4-.3-8-.5-12.1-.5-55.7 0-101.8 28.9-110.7 66.9-37.6.1-69.1 18.7-77.8 43.7-5.3-.9-10.7-1.4-16.4-1.4-21.4 0-40.5 6.8-53.3 17.6-15.1-29.4-54.7-50.4-101.2-50.4-34.9 0-65.9 11.8-85.6 30.2-4-.4-8-.6-12.2-.6-24.3 0-46.4 6.9-62.6 18.2-12.8-6-28.1-9.5-44.5-9.5-38.4 0-70.6 19.1-78.9 44.8h-2.1c-7.1 0-13.9 1-20.1 2.8-14.2-22.2-45.6-37.7-82-37.7-5.1 0-10.1.3-14.9.9-12.7-20.7-41.6-35.2-75.2-35.2-3.4 0-6.7.2-10 .4-16.9-15.1-42.9-24.8-72.1-24.8-17.9 0-34.6 3.6-48.7 9.9-15.7-8-34.8-12.6-55.5-12.6-8.8 0-17.2.8-25.3 2.4-5-20.9-24.1-38.3-50-47-11.8-54-77.1-95.3-156-95.3-87.2 0-157.9 50.5-157.9 112.8s70.7 112.8 157.9 112.8c8.7 0 17.2-.5 25.5-1.5 6.1 23.6 35 41.5 69.8 41.5 22.7 0 42.9-7.6 55.8-19.4 17.2 18.6 46.6 30.9 80.2 30.9 8.3 0 16.3-.8 24-2.2 16.5 20.1 47 33.6 82 33.6 13.2 0 25.8-1.9 37.2-5.4 6.6 15.6 26.8 27 50.8 27 13.5 0 25.9-3.6 35.2-9.6 13.7 6.1 29.9 9.6 47.3 9.6 5 0 9.8-.3 14.6-.8 1.8 22.7 28.2 40.7 60.4 40.7 20.3 0 38.3-7.2 49.3-18.2 11.6 6.2 26.1 9.9 41.7 9.9 3.8 0 7.5-.2 11.1-.6 18.1 16.7 46.5 27.4 78.3 27.4 42.9 0 79.4-19.5 93.2-46.7 11.5 6.3 25.9 10.1 41.6 10.1 28.3 0 52.6-12.3 63-29.8 10.5 5 23.2 8 36.8 8 21.7 0 40.9-7.4 53.1-18.9 11.6 8.8 28 14.3 46.2 14.3 30 0 55.2-14.9 61.7-35 17.4 11.2 40.4 18 65.6 18 37.8 0 70.6-15.3 86.9-37.7 7.4 1.3 15.1 2 23.1 2 54.1 0 98-31.4 98-70 0-16.6-8.1-31.8-21.5-43.8 32-12 54.1-36.1 54.1-63.9z"></path>
<path class="cw cw3" fill="#7DDEF6" d="M1522.4 172.3c0-56.3-63.8-101.9-142.6-101.9-63.2 0-116.8 29.4-135.5 70.2-7.6-1.9-15.8-2.9-24.4-2.9-37.4 0-68.4 19.6-74 45.2-11.2-6.6-25.6-10.6-41.3-10.6-23.2 0-43.6 8.7-55.1 21.8-8.8-1.9-18.2-2.9-27.9-2.9-44.5 0-82 21.6-93.1 50.9-28.3 2.2-52.3 14.5-65 31.8-1.3-.4-2.6-.7-3.9-1-8.9-6-20-10.2-32.5-11.9-8.6-29.5-45.2-51.7-89-51.7-19.5 0-37.5 4.4-52.3 11.8-12.3-4.3-26.1-6.7-40.7-6.7-41.4 0-76.4 19.3-88.5 46-2.2-.2-4.4-.3-6.6-.3-5.6 0-11 .6-16.1 1.6-16.5-25.4-52.4-43-94.2-43-10.6 0-20.8 1.1-30.5 3.3-18.2-21.7-51.4-36.2-89.3-36.2-10.1 0-19.8 1-29 2.9-12.3-47.2-70.3-83-139.9-83-26.8 0-51.9 5.3-73.3 14.5-14.4-54.6-81.5-96-162.1-96-91.1 0-165 52.8-165 117.9S-175.5 260-84.4 260h3c5.7 35 47.3 62.2 97.8 62.2 23.8 0 45.7-6.1 62.7-16.1 8.9 5.6 19.7 9.7 31.7 11.7-.1 1.4-.1 2.7-.1 4.1 0 48 54.4 86.9 121.6 86.9 27.6 0 53-6.6 73.4-17.6 21.5 30.5 65.7 51.5 116.8 51.5 22 0 42.7-3.9 60.9-10.7 20.2 27.8 60.8 46.8 107.6 46.8 46 0 85.9-18.3 106.5-45.2 26.4 24 67.5 39.5 113.6 39.5 68.9 0 126.5-34.5 140.8-80.6 25.4 19.7 61.7 32 102.1 32 51.9 0 97.1-20.3 120.9-50.4 21.9 9.3 47.5 14.7 74.8 14.7 80.8 0 146.2-46.8 146.2-104.5 0-3.6-.3-7.2-.8-10.7 71.6-5.5 127.3-48.7 127.3-101.3z"></path>
<path class="cw cw4" fill="#98E5F9" d="M1452 226.2c0-40.3-45.7-72.9-102-72.9-48.3 0-88.7 23.9-99.3 56.1-4.7-.9-9.6-1.4-14.7-1.4-21.8 0-40.8 8.6-50.7 21.3-13.8-8.8-32.1-14.2-52-14.2-35 0-64.6 16.4-74.6 39-6-.9-12.3-1.3-18.7-1.3-40.3 0-74.6 18.2-87.7 43.8-16.2-7.4-35.4-11.7-56-11.7-43.1 0-80.1 18.7-96 45.3-2.7-.3-5.5-.4-8.3-.4-22.3 0-41.9 8.1-53.3 20.5-11-11-29.1-18.2-49.5-18.2-6.4 0-12.5.7-18.3 2-17.4-16.1-44.6-26.4-75.2-26.4-17.2 0-33.3 3.3-47.2 9-13.1-7.5-29.7-12-47.8-12-24.9 0-47.1 8.5-61.1 21.7-9-4.4-19.8-7-31.6-7h-.7c-5.4-30.6-42-54.3-86.3-54.3-15.7 0-30.5 3-43.2 8.2-11.6-46.1-68-81.1-135.8-81.1-21.5 0-41.9 3.5-60 9.8-15.6-54.5-83.1-95.5-164-95.5-92.4 0-167.4 53.6-167.4 119.6s75 119.7 167.4 119.7h.8c7.6 54.9 72.4 97.8 151.2 97.8 36.5 0 70.1-9.2 96.3-24.6 22.8 25.3 62.5 42 107.7 42 28.2 0 54.3-6.5 75.5-17.6 18.2 17.6 47.5 29 80.5 29 20.9 0 40.3-4.6 56.4-12.4 19.9 21.4 53.9 35.5 92.5 35.5 28 0 53.6-7.4 73.1-19.6 15.8 7.8 35 12.3 55.6 12.3 21.5 0 41.4-4.9 57.6-13.3 23.8 22.5 61.6 37 104.1 37 57.3 0 106-26.4 123.6-63.1 24.3 14.8 55.7 23.7 90 23.7 57.7 0 107.2-25.1 128.2-61 21.1 8.8 45.6 13.8 71.8 13.8 79 0 143-45.8 143-102.2 0-14.3-4.1-28-11.6-40.4 23-13.4 37.7-33.7 37.7-56.5z"></path>
<path class="cw cw5" fill="#B2EDFB" d="M1496.6 329.1c1.7-6 2.6-12.3 2.6-18.6 0-51.2-58-92.6-129.6-92.6-62.4 0-114.5 31.5-126.8 73.5-3.9-.4-7.8-.6-11.8-.6-24.8 0-47 7.6-62.6 19.6-14.7-4-30.8-6.2-47.5-6.2-46.2 0-86.9 16.9-110.7 42.5-28.2 4.2-52.6 16-68.7 32.3-6.7-1-13.6-1.5-20.6-1.5-31.5 0-59.5 10.5-77.6 26.9-17.3-24.6-52.9-41.4-94-41.4-40.7 0-75.9 16.5-93.4 40.6-20.5 1.5-39.1 7.7-53.6 17.1-15.6-10.8-36.8-17.5-60.2-17.5-1.7 0-3.4 0-5 .1-8.5-12.9-26.8-21.8-48-21.8-3.1 0-6.2.2-9.2.6-23.2-22.5-60.5-37.1-102.6-37.1-7.5 0-14.8.5-21.9 1.3-24.9-10.7-54.2-16.9-85.4-16.9-16.1 0-31.7 1.7-46.5 4.7-17.1-12.6-41-20.4-67.5-20.4-11.5 0-22.5 1.5-32.7 4.2-11.9-46.7-69-82.1-137.7-82.1-77.3 0-140 44.8-140 100 0 38.1 29.9 71.3 73.8 88.2-.9 5.1-1.4 10.2-1.4 15.4 0 64.7 73.4 117.2 164 117.2 30.6 0 59.1-6 83.6-16.4 28.5 16.5 64.8 26.4 104.4 26.4 37.1 0 71.3-8.7 99-23.4 22.2 27.6 63.9 46.3 111.7 46.3 44.3 0 83.4-16 106.6-40.4 17.5 9.9 39.7 15.8 63.8 15.8 21.4 0 41.2-4.7 57.7-12.6 22.7 18.4 56 30.1 93.1 30.1 39.4 0 74.6-13.2 97.3-33.7 24.9 20.6 61.8 33.7 102.9 33.7 64.8 0 119-32.4 132.7-75.7 25.8 16 59.5 25.7 96.3 25.7 54.6 0 102.2-21.2 127.5-52.8 18.4 7.5 39.6 11.7 62.3 11.7 69.6 0 126.1-40.3 126.1-90.1-.1-29.5-19.8-55.6-50.4-72.1z"></path>
<path class="cw cw6" fill="#CDF4FE" d="M1466 321.8c-12.3 0-24.2 1.2-35.5 3.5-13.7-23.5-46.2-40.1-84.1-40.1-50.3 0-91.1 29.2-91.1 65.1 0 8.9 2.5 17.4 7 25.1-9.4.1-18.2 2-25.9 5.1-20.3-16.7-50.2-27.2-83.6-27.2-59.4 0-107.9 33.4-110.6 75.4-13.7-5.3-29.4-8.2-46.1-8.2-43.1 0-79.7 19.9-92.8 47.5-5.5-1.1-11.2-1.7-17.2-1.7-21.5 0-40.4 7.8-51.6 19.7-11.4-6.1-25.6-9.7-40.9-9.7-23.5 0-44.3 8.5-56.6 21.4-8.2-4.4-18.3-7.1-29.4-7.1-12.2 0-23.4 3.2-31.9 8.6-14.6-13-37-21.4-62.2-21.4-31 0-57.8 12.7-70.9 31.1-8.9-6-20.8-9.7-34-9.7-8.4 0-16.4 1.5-23.3 4.2-4.8-21-30.4-37.1-61.2-37.1-10 0-19.5 1.7-27.9 4.7-11.5-11.7-27.8-20.9-46.9-26-12.7-26.6-42.3-47.6-79.7-56.4-21.7-33.8-69.5-57.3-124.9-57.3-11.7 0-23 1-33.8 3-18.9-20.5-51.2-34-87.9-34-58 0-105 33.6-105 75 0 27.1 20.1 50.9 50.3 64-47.6 26.5-78.3 67.8-78.3 114.3 0 79.9 90.7 144.8 202.6 144.8 60 0 113.9-18.6 151-48.2 24.3 31.7 71.4 53.2 125.5 53.2 32.6 0 62.7-7.8 86.7-20.9C483.6 723 541.9 751 609.4 751c53.2 0 100.7-17.4 132.1-44.6 30.4 24.9 75.1 40.7 125 40.7 91.5 0 165.6-53 165.6-118.3 0-6.2-.7-12.4-2-18.3 17.9 6.4 38.1 10 59.5 10 70.1 0 127.5-38.6 133.1-87.6 22.8 15.4 53.6 24.8 87.5 24.8 50.7 0 94.5-21.2 115-51.8 12.9 3 26.7 4.6 40.9 4.6 72.9 0 132-42.2 132-94.3s-59.2-94.4-132.1-94.4z"></path>
<path class="cw cw7" fill="#FFF" d="M1587.5 475c0-65.7-74.6-119-166.5-119-64.5 0-120.4 26.2-148.1 64.5-2.4-.1-4.8-.1-7.2-.1-42.5 0-80.8 12.7-107.9 33.1-9.3-1.6-18.9-2.5-28.9-2.5-45.9 0-85.8 18.6-105.7 45.8-8.1-1.2-16.6-1.9-25.2-1.9-41 0-77.2 14.5-99.1 36.8-19.2-6.1-40.4-9.4-62.7-9.4-34.8 0-66.9 8.2-92.8 22-6.8-1.8-14.3-2.8-22-2.8-20.1 0-38 6.7-49.6 17.2-11.9-6.7-27-10.6-43.3-10.6-26.1 0-48.8 10.1-61 25.2-15.5-7.1-33.9-11.2-53.7-11.2h-2.7c-11.6-12.3-29.7-21.3-50.7-24.5-23.9-29.7-68.7-49.8-120.1-49.8-35.8 0-68.5 9.7-93 25.7-18.2 1.8-35.1 6.7-49.5 13.9-8.2-7.5-17.7-14.1-28.3-19.7.1-1.4.1-2.8.1-4.2 0-44.4-45.7-80.7-103.2-83C54.3 391.9 17.1 371-26.9 371c-53.8 0-97.5 31.2-97.5 69.7 0 11.2 3.7 21.8 10.3 31.2-46.7 12.5-80 44.6-80 82.4 0 32.2 24.2 60.3 60.2 75.6 4.6 62.6 77 112.3 165.8 112.3 12.7 0 25.1-1 37-3 24.3 32.4 72 54.4 127 54.4 16.8 0 33-2.1 48-5.9 25.9 38.2 80.7 64.5 144 64.5 50.3 0 95.2-16.6 124.6-42.6 31.9 17.8 72 28.4 115.5 28.4 43.4 0 83.4-10.5 115.2-28.2 27.5 12.6 60.2 20 95.3 20 69 0 128.7-28.3 157.7-69.5 34.9 20.8 79.8 33.4 128.8 33.4 58.7 0 111.5-18 148.2-46.6 16.8 3.4 34.5 5.2 52.8 5.2 107.1 0 194-62.1 194-138.6 0-13.6-2.7-26.7-7.8-39.1 45.3-21.4 75.3-58 75.3-99.6z"></path>
</svg>