<svg width="80" height="80" viewBox="0 0 80 80" fill="none" xmlns="http://www.w3.org/2000/svg">
<path d="M66.6888 13.7198C80.7811 27.8121 83.9929 47.4543 69.9007 61.5465C55.8084 75.6388 29.7465 78.8506 15.6542 64.7584C1.56196 50.6661 -5.37645 34.7465 8.7198 20.6542C22.8161 6.56196 52.5965 -0.376449 66.6888 13.7198Z" fill="#FFEDF2"/>
<path d="M70 43H10C10 43 18.9863 17 40.3759 17C61.7656 17 70 42 70 42" fill="#FF98C3"/>
<path fill-rule="evenodd" clip-rule="evenodd" d="M20.846 32.3273C25.1527 27.2495 31.5505 22.0894 39.7852 22.0894C48.0156 22.0894 54.4126 27.1288 58.721 32.0921C60.8803 34.5796 62.5304 37.065 63.6406 38.9279C64.1959 39.8598 64.6169 40.6371 64.8996 41.1826C65.041 41.4553 65.1478 41.6702 65.2196 41.8176C65.2555 41.8913 65.2826 41.9482 65.301 41.9869C65.3101 42.0063 65.3171 42.0211 65.3218 42.0313L65.3273 42.0431L65.3292 42.0473C65.3294 42.0475 65.3295 42.0477 64.9294 42.2317C64.6951 42.3395 64.598 42.3842 64.5578 42.4027C64.5294 42.4158 64.5294 42.4158 64.5294 42.4158L64.5292 42.4154L64.5282 42.4132L64.5237 42.4036C64.5196 42.3948 64.5133 42.3814 64.5049 42.3635C64.4879 42.3277 64.4622 42.2739 64.4278 42.2033C64.359 42.0621 64.2555 41.8537 64.1177 41.5878C63.842 41.0558 63.4295 40.2939 62.884 39.3787C61.7927 37.5474 60.1723 35.1074 58.056 32.6694C53.813 27.7816 47.638 22.97 39.7852 22.97C31.9366 22.97 25.7623 27.8924 21.5177 32.897C19.4009 35.3927 17.7802 37.8906 16.6886 39.7654C16.143 40.7023 15.7303 41.4823 15.4546 42.027C15.3167 42.2993 15.2131 42.5127 15.1442 42.6573C15.1098 42.7297 15.0841 42.7848 15.0671 42.8215C15.0587 42.8398 15.0524 42.8536 15.0483 42.8625L15.0438 42.8724L15.0428 42.8746L15.0426 42.8751C15.0426 42.8751 15.0426 42.8751 15.0322 42.8704C15.0075 42.8593 14.9238 42.8217 14.6409 42.6946C14.2393 42.5141 14.2394 42.5139 14.2395 42.5136L14.2414 42.5094L14.2469 42.4974C14.2516 42.487 14.2586 42.4718 14.2677 42.452C14.286 42.4124 14.3131 42.3542 14.349 42.2789C14.4208 42.1281 14.5275 41.9083 14.6688 41.6292C14.9514 41.0711 15.3723 40.2758 15.9275 39.3222C17.0374 37.4161 18.6871 34.8728 20.846 32.3273Z" fill="#FFD4E4"/>
<path fill-rule="evenodd" clip-rule="evenodd" d="M25.9086 35.0148C29.132 31.3361 33.91 27.5792 39.9999 27.5792C46.0882 27.5792 50.7586 31.2492 53.8773 34.847C55.4412 36.6512 56.6296 38.4534 57.4269 39.8038C57.8258 40.4795 58.1275 41.0433 58.3301 41.4394C58.4314 41.6375 58.508 41.7937 58.5595 41.9011C58.5853 41.9548 58.6048 41.9963 58.618 42.0247C58.6246 42.0389 58.6297 42.0499 58.6332 42.0575L58.6372 42.0663L58.6383 42.0688L58.6387 42.0695C58.6388 42.0698 58.6389 42.07 58.2376 42.2514C57.8364 42.4328 57.8365 42.4329 57.8365 42.433L57.8357 42.4313L57.8327 42.4247C57.831 42.4209 57.8286 42.4158 57.8257 42.4094C57.8239 42.4056 57.8219 42.4012 57.8196 42.3964C57.8078 42.371 57.7897 42.3326 57.7655 42.2821C57.717 42.181 57.6437 42.0315 57.546 41.8404C57.3505 41.4582 57.0573 40.9101 56.6685 40.2516C55.8903 38.9335 54.7321 37.1777 53.2118 35.4239C50.1622 31.9057 45.7137 28.4598 39.9999 28.4598C34.2877 28.4598 29.7314 31.9884 26.571 35.5952C24.9963 37.3924 23.7839 39.1915 22.9651 40.5421C22.556 41.2169 22.2459 41.7786 22.0386 42.1704C21.9349 42.3663 21.857 42.5196 21.8054 42.6233C21.7795 42.6751 21.7603 42.7146 21.7476 42.7407C21.7413 42.7538 21.7366 42.7635 21.7336 42.7698L21.7303 42.7766L21.7295 42.7784C21.7295 42.7783 21.7296 42.7783 21.3312 42.5906C20.9329 42.4028 20.933 42.4027 20.9331 42.4024L20.9347 42.3991L20.9389 42.3902C20.9426 42.3825 20.948 42.3713 20.955 42.3568C20.969 42.3278 20.9898 42.2854 21.0171 42.2305C21.0718 42.1208 21.1529 41.9611 21.2601 41.7585C21.4744 41.3535 21.793 40.7767 22.212 40.0855C23.0495 38.7041 24.2914 36.8605 25.9086 35.0148Z" fill="#FFD4E4"/>
<path fill-rule="evenodd" clip-rule="evenodd" d="M30.6451 38.4736C32.7129 36.3438 35.8012 34.1626 39.7847 34.1626C43.7638 34.1626 46.8509 36.2844 48.9201 38.3597C49.9576 39.4003 50.75 40.4395 51.2832 41.2184C51.55 41.6083 51.7527 41.934 51.8893 42.1635C51.9576 42.2783 52.0094 42.3691 52.0446 42.4319C52.0622 42.4634 52.0756 42.4878 52.0848 42.5047C52.0894 42.5132 52.0929 42.5198 52.0955 42.5245L52.0984 42.53L52.0993 42.5317L52.0996 42.5323C52.0997 42.5325 52.0998 42.5326 51.7104 42.7383C51.3211 42.944 51.3211 42.9441 51.3212 42.9442L51.3209 42.9436L51.3191 42.9403C51.318 42.9382 51.3164 42.9352 51.3143 42.9314L51.3109 42.9252C51.3034 42.9114 51.2918 42.8901 51.276 42.8619C51.2445 42.8056 51.1966 42.7216 51.1325 42.6139C51.0043 42.3986 50.8116 42.0887 50.5564 41.7159C50.0455 40.9695 49.2868 39.9748 48.2965 38.9815C46.31 36.9892 43.4343 35.0433 39.7847 35.0433C36.1395 35.0433 33.265 37.0395 31.277 39.0871C30.2863 40.1075 29.5272 41.1295 29.016 41.8965C28.7606 42.2796 28.5678 42.5981 28.4395 42.8195C28.3753 42.9302 28.3273 43.0166 28.2957 43.0746C28.2799 43.1036 28.2683 43.1254 28.2607 43.1397C28.2569 43.1468 28.2542 43.1521 28.2525 43.1553L28.2507 43.1587L28.2504 43.1593C28.2505 43.1592 28.2505 43.1591 27.8589 42.9577C27.4673 42.7563 27.4674 42.7562 27.4675 42.756L27.4687 42.7537L27.4716 42.7481C27.4741 42.7433 27.4777 42.7365 27.4823 42.7279C27.4914 42.7105 27.5048 42.6855 27.5224 42.6533C27.5574 42.5889 27.6092 42.4957 27.6775 42.378C27.8139 42.1425 28.0164 41.8082 28.2831 41.4081C28.816 40.6086 29.608 39.5419 30.6451 38.4736Z" fill="#FFD4E4"/>
<path d="M57 18L41 34C41 34 44.8962 35.1885 45.9774 36.1859C47 36.5 48 37 49 38L57 18Z" fill="#FFD4E4"/>
<path d="M41.7727 34.3873C41.7727 34.3873 44.9207 35.0296 46.0658 35.9433L56.9998 18L41.7727 34.3873Z" fill="#FF6782"/>
<path d="M57 18L46.0664 35.9475C46.7806 36.518 48.5282 38.2456 48.8354 39.287L57 18Z" fill="#E34C67"/>
<path d="M39.6212 63.4418C48.1335 63.4418 55.0341 56.5413 55.0341 48.0289C55.0341 39.5166 48.1335 32.616 39.6212 32.616C31.1088 32.616 24.2083 39.5166 24.2083 48.0289C24.2083 56.5413 31.1088 63.4418 39.6212 63.4418Z" fill="#FFEDF2"/>
<path fill-rule="evenodd" clip-rule="evenodd" d="M39.6216 33.0563C31.3524 33.0563 24.649 39.7598 24.649 48.0289C24.649 56.298 31.3524 63.0015 39.6216 63.0015C47.8907 63.0015 54.5941 56.298 54.5941 48.0289C54.5941 39.7598 47.8907 33.0563 39.6216 33.0563ZM23.7683 48.0289C23.7683 39.2734 30.8661 32.1757 39.6216 32.1757C48.3771 32.1757 55.4748 39.2734 55.4748 48.0289C55.4748 56.7844 48.3771 63.8822 39.6216 63.8822C30.8661 63.8822 23.7683 56.7844 23.7683 48.0289Z" fill="#FF98C3"/>
<path d="M46.7266 49.6849C46.571 49.6849 46.2718 49.5811 45.8209 49.3777C45.3701 49.1702 44.8833 48.9667 44.3527 48.7592C43.822 48.5518 43.3831 48.452 43.02 48.452C42.6849 48.452 42.3138 48.5597 41.8989 48.7712C41.4879 48.9827 41.077 49.242 40.662 49.5412C40.2511 49.8445 39.8242 50.1477 39.3773 50.4469C38.9344 50.7502 38.4357 51.0055 37.8811 51.217C37.3265 51.4285 36.7759 51.5362 36.2213 51.5362C35.551 51.5362 34.9725 51.3726 34.4857 51.0454C33.9949 50.7183 33.7516 50.2634 33.7516 49.6849C33.7516 49.2619 33.8912 48.8909 34.1665 48.5757C34.4418 48.2605 34.777 48.0211 35.172 47.8535C35.563 47.6859 36.0298 47.5543 36.5724 47.4585C37.111 47.3628 37.5938 47.3029 38.0207 47.275C38.4437 47.251 38.8746 47.2351 39.3135 47.2351V47.2151C39.1459 47.2151 39.0022 47.1553 38.8786 47.0316C38.7549 46.9079 38.695 46.7643 38.695 46.5967C38.695 46.4291 38.7549 46.2855 38.8786 46.1618C39.0022 46.0381 39.1459 45.9783 39.3135 45.9783C36.9714 45.9783 35.2158 46.3852 34.0468 47.1952C34.0069 47.2191 33.8673 47.3189 33.6239 47.4944C33.3805 47.67 33.2249 47.7737 33.1611 47.8136C33.0972 47.8535 32.9536 47.9293 32.7262 48.045C32.4987 48.1607 32.3072 48.2366 32.1476 48.2764C31.988 48.3163 31.7726 48.3523 31.5092 48.3922C31.2459 48.4321 30.9666 48.452 30.6714 48.452C30.0928 48.452 29.638 48.2086 29.3108 47.7179C28.9837 47.2271 28.8201 46.6486 28.8201 45.9823C28.8201 45.0806 29.1033 44.2387 29.6699 43.4527C30.2365 42.6667 30.9826 42.0163 31.9082 41.4936C32.8339 40.971 33.8912 40.56 35.0722 40.2568C36.2572 39.9536 37.4661 39.8019 38.699 39.8019C40.4865 39.8019 42.1383 40.1331 43.6584 40.7954C45.1746 41.4577 46.3755 42.3595 47.2573 43.4966C48.1391 44.6337 48.578 45.8745 48.578 47.2112C48.578 47.7897 48.4104 48.3483 48.0752 48.8789C47.7401 49.4215 47.2932 49.6849 46.7266 49.6849ZM37.7335 52.1586L39.9319 51.5402C39.9319 51.217 40.3508 50.83 41.1847 50.3711C42.0226 49.9163 42.633 49.6849 43.0161 49.6849C43.8659 49.6849 44.5921 49.8963 45.1985 50.3233C45.805 50.7462 46.1042 51.1532 46.1042 51.5402C46.1042 51.8634 45.6853 52.2504 44.8514 52.7092C44.0135 53.1641 43.4031 53.3955 43.02 53.3955C42.7368 53.3955 42.5652 53.7027 42.4974 54.3211C42.4295 54.9396 42.4016 56.2762 42.4016 58.3349H41.1648C41.1648 57.6926 40.7857 56.7829 40.0276 55.6138C39.2696 54.4448 38.5673 53.7027 37.925 53.3955C37.7694 53.3197 37.6457 53.18 37.5499 52.9805C37.4542 52.781 37.4222 52.5935 37.4542 52.4219C37.4861 52.2424 37.5779 52.1586 37.7335 52.1586Z" fill="#F55E79"/>
</svg>
