<svg width="80" height="80" viewBox="0 0 80 80" fill="none" xmlns="http://www.w3.org/2000/svg">
<path d="M66.8325 13.2819C81.1701 27.6824 84.4378 47.7542 70.1002 62.1546C55.7626 76.5551 29.247 79.8372 14.9094 65.4367C0.571741 51.0363 -6.48746 34.7685 7.85421 20.368C22.1959 5.9675 52.4948 -1.12266 66.8325 13.2819Z" fill="#EAF8FF"/>
<path d="M61.9114 49.3134L29.0145 61.8838C27.7114 62.3812 26.2541 61.7248 25.7589 60.4159L13.9746 29.306C13.4794 27.9972 14.1329 26.5335 15.436 26.036L47.4804 9.34349C48.7835 8.84606 50.2408 9.5025 50.736 10.8113L63.3687 46.0475C63.868 47.3522 63.2145 48.816 61.9114 49.3134Z" fill="#BBF2FF"/>
<path d="M46.2065 16.055L15.7086 27.708C13.7439 28.4582 12.7575 30.6681 13.5044 32.6415L17.6693 43.6421L55.2832 29.2696L51.1183 18.269C50.3714 16.2956 48.1712 15.3048 46.2065 16.055Z" fill="#00C8FF"/>
<path d="M60.3926 49.8924L27.4957 62.4628C26.1927 62.9602 24.7354 62.3038 24.2401 60.9949L17.9765 44.4574C17.4813 43.1485 18.1349 41.6848 19.4379 41.1873L52.3348 28.617C53.6379 28.1196 55.0952 28.776 55.5904 30.0848L61.854 46.6183C62.3492 47.9312 61.6957 49.395 60.3926 49.8924Z" fill="white"/>
<path d="M46.486 17.1722L16.4185 28.6621C14.9896 29.2084 14.2711 30.8149 14.815 32.246L18.2533 41.3181L53.4925 27.8507L50.0542 18.7787C49.5143 17.3435 47.9149 16.6258 46.486 17.1722Z" fill="white"/>
<path d="M55.8142 42.1943L26.0105 53.5822C24.5085 54.1571 22.8279 53.3987 22.2596 51.8901L20.437 47.0789C19.8646 45.5703 20.6196 43.8823 22.1216 43.3115L51.9253 31.9235C53.4273 31.3486 55.1078 32.107 55.6762 33.6156L57.4988 38.4269C58.0671 39.9355 57.3161 41.6194 55.8142 42.1943Z" fill="#00C8FF"/>
<path d="M47.3065 53.2155L39.476 56.2082C38.3109 56.6526 37.0079 56.0655 36.5654 54.8953L36.2244 53.9983C35.782 52.8281 36.3665 51.5193 37.5316 51.0749L45.362 48.0822C46.5271 47.6377 47.8301 48.2249 48.2726 49.395L48.6136 50.2921C49.056 51.4582 48.4715 52.767 47.3065 53.2155Z" fill="#D5D8D6"/>
<path d="M55.4734 33.0831L20.2397 46.5646L20.3836 46.9459L55.6173 33.4644L55.4734 33.0831Z" fill="white"/>
<path d="M56.2966 35.2564L21.063 48.7379L21.2069 49.1192L56.4405 35.6377L56.2966 35.2564Z" fill="white"/>
<path d="M57.1194 37.4293L21.8857 50.9108L22.0296 51.2921L57.2633 37.8106L57.1194 37.4293Z" fill="white"/>
<path d="M57.9451 39.6062L22.7114 53.0878L22.8553 53.469L58.0889 39.9875L57.9451 39.6062Z" fill="white"/>
<path d="M47.3558 33.6663L46.9766 33.8117L50.8567 44.0853L51.236 43.9399L47.3558 33.6663Z" fill="white"/>
<path d="M42.2782 35.6079L41.8989 35.7532L45.7791 46.0268L46.1583 45.8815L42.2782 35.6079Z" fill="white"/>
<path d="M37.202 37.5446L36.8228 37.69L40.7029 47.9636L41.0822 47.8182L37.202 37.5446Z" fill="white"/>
<path d="M32.1253 39.4865L31.7461 39.6319L35.6263 49.9055L36.0055 49.7601L32.1253 39.4865Z" fill="white"/>
<path d="M27.0511 41.4261L26.6719 41.5715L30.5521 51.845L30.9313 51.6997L27.0511 41.4261Z" fill="white"/>
<path d="M53.0298 26.6353L17.8037 40.132L18.2516 41.3175L53.4777 27.8208L53.0298 26.6353Z" fill="#01A5F2"/>
<path d="M25.747 29.6321L23.5469 34.2109L28.8768 32.3435L29.8957 31.9847L25.747 29.6321Z" fill="#E4687B"/>
<path d="M31.738 30.7003C32.85 30.7003 33.7515 29.7949 33.7515 28.678C33.7515 27.5611 32.85 26.6556 31.738 26.6556C30.6261 26.6556 29.7246 27.5611 29.7246 28.678C29.7246 29.7949 30.6261 30.7003 31.738 30.7003Z" fill="#00CA8D"/>
<path d="M38.8897 23.675L34.7744 25.1208L36.2072 29.2566L40.3226 27.8109L38.8897 23.675Z" fill="#00C8FF"/>
<g opacity="0.27">
<path opacity="0.27" d="M55.2016 69.6675C55.2016 69.6675 50.3426 66.3322 47.3508 65.4393L45.8123 59.992C45.8123 59.992 45.65 58.936 46.8637 58.4467C46.8637 58.4467 47.1073 58.039 44.355 54.7078C41.6028 51.3766 42.1711 49.6682 42.1711 49.6682C42.1711 49.6682 42.8977 47.7968 48.2439 53.8149L49.0517 54.7894C49.0517 54.7894 48.4834 52.9994 51.4792 53.3256C51.4792 53.3256 52.5306 52.188 54.5562 52.6732C54.5562 52.6732 55.2057 53.1625 55.4452 53.9739C55.4452 53.9739 56.9837 53.7293 57.7915 55.3561C58.5993 56.9829 60.6249 65.3577 60.6249 65.3577L62.4557 68.061C62.4557 68.061 57.3855 70.8703 55.092 71.6735L55.2016 69.6675Z" fill="#00C8FF"/>
</g>
<path d="M53.5823 68.6644C53.5823 68.6644 49.1576 65.6268 46.4297 64.8154L45.0293 59.8533C45.0293 59.8533 44.8831 58.891 45.9873 58.4466C45.9873 58.4466 46.2065 58.0756 43.7019 55.0421C41.1973 52.0085 41.7128 50.451 41.7128 50.451C41.7128 50.451 42.3745 48.7467 47.2416 54.2266L47.9804 55.1155C47.9804 55.1155 47.4649 53.4845 50.1928 53.7822C50.1928 53.7822 51.1508 52.7465 52.9937 53.191C52.9937 53.191 53.5823 53.6354 53.8056 54.3775C53.8056 54.3775 55.2061 54.1573 55.9449 55.6374C56.6837 57.1174 58.5266 64.7461 58.5266 64.7461L61.2504 68.7663C61.2504 68.7663 57.1911 70.9517 55.1005 71.6816L53.5823 68.6644Z" fill="#F5BE96"/>
<g opacity="0.27">
<path opacity="0.27" d="M34.6933 74.4176C34.6933 74.4176 33.4187 64.8441 36.106 61.8717C36.106 61.8717 38.9313 58.3163 39.5564 55.7924C40.1856 53.2727 40.0922 49.7132 40.4982 49.3544C40.4982 49.3544 39.3331 46.7897 37.8555 49.8029C36.3779 52.8201 36.7798 54.5733 36.7798 54.5733C36.7798 54.5733 35.6148 56.9137 35.972 54.1248C36.3292 51.3319 36.6905 44.8979 36.6905 43.2302C36.6905 41.5626 36.9138 38.998 35.9273 38.998C34.9409 38.998 34.3442 41.6972 33.6785 45.4361C33.0127 49.1709 32.4282 49.2076 31.6204 46.7775C30.8126 44.3474 32.3145 42.9734 32.3145 42.9734C32.3145 42.9734 32.8057 40.4291 30.297 42.9041C27.7884 45.379 29.473 48.7183 29.473 48.7183C29.473 48.7183 28.5312 49.3503 27.9954 47.0058C27.4595 44.6614 28.8478 44.0783 27.1876 43.7195C25.5273 43.3607 26.2905 48.0863 26.2905 48.0863C26.2905 48.0863 25.4989 45.2281 24.8291 47.8824C24.1552 50.5368 26.5137 58.353 26.5137 58.353L24.8291 72.0854" fill="#00C8FF"/>
</g>
<path d="M33.3057 70.7234C33.3057 70.7234 33.0865 61.3171 35.2947 58.8748C35.2947 58.8748 37.6167 55.9513 38.1322 53.876C38.6478 51.8006 38.5747 48.8772 38.9076 48.5795C38.9076 48.5795 37.9496 46.4675 36.7317 48.9506C35.5139 51.4337 35.8468 52.877 35.8468 52.877C35.8468 52.877 34.8888 54.8015 35.1851 52.506C35.4815 50.2105 35.7737 44.914 35.7737 43.544C35.7737 42.1741 35.9564 40.062 35.1486 40.062C34.3408 40.062 33.8456 42.2841 33.2975 45.3584C32.7495 48.4327 32.2665 48.4613 31.6048 46.4634C30.9431 44.4655 32.1772 43.3361 32.1772 43.3361C32.1772 43.3361 32.5831 41.2444 30.5169 43.279C28.4507 45.3136 29.839 48.0617 29.839 48.0617C29.839 48.0617 29.0636 48.5795 28.6212 46.655C28.1787 44.7305 29.3234 44.2494 27.9595 43.9518C26.5956 43.6541 27.2207 47.5439 27.2207 47.5439C27.2207 47.5439 26.0029 45.1383 25.4508 47.3237C24.8988 49.5092 27.1111 58.3936 27.1111 58.3936L25.7472 69.0191L24.8257 72.0975C24.8257 72.0975 29.4818 74.1076 33.7968 74.4175L33.3057 70.7234Z" fill="#F5BE96"/>
<path d="M43.1719 52.349C43.5723 52.1365 43.6914 51.5715 43.4381 51.0871C43.1847 50.6026 42.6547 50.3823 42.2543 50.5948C41.8539 50.8074 41.7347 51.3724 41.9881 51.8568C42.2415 52.3412 42.7715 52.5616 43.1719 52.349Z" fill="#F9DDC8"/>
<path d="M35.6017 41.0799C35.6454 40.6974 35.4226 40.3578 35.1041 40.3215C34.7855 40.2851 34.4919 40.5658 34.4482 40.9483C34.4046 41.3308 34.6274 41.6704 34.9459 41.7067C35.2644 41.7431 35.558 41.4624 35.6017 41.0799Z" fill="#F9DDC8"/>
<path d="M31.8687 42.4716C31.8687 42.4716 32.1772 43.4057 30.8052 43.2139C30.8052 43.2139 31.1827 42.5735 31.8687 42.4716Z" fill="#F9DDC8"/>
<path d="M38.4242 49.7088C38.4242 49.7088 37.0278 49.1257 38.5704 48.2573C38.5704 48.2573 38.9925 49.0238 38.4242 49.7088Z" fill="#F9DDC8"/>
<path d="M49.4944 57.3539C49.401 56.8809 49.2468 56.4283 49.056 56.0246C48.9585 55.8167 48.8489 55.6291 48.7312 55.4497C48.6825 55.3723 48.6297 55.2989 48.581 55.2173C48.577 55.2132 48.577 55.2092 48.5729 55.2051C48.5607 55.1847 48.5526 55.1643 48.5404 55.1439C48.5283 55.1195 48.5161 55.0909 48.5039 55.0665C48.4998 55.0542 48.4674 54.9808 48.4917 55.0461C48.4227 54.8585 48.1142 54.3855 47.9843 54.4752C47.8788 54.5486 47.9681 55.1113 48.0452 55.3152C48.1345 55.5557 48.2441 55.7474 48.3699 55.939C48.3984 55.9798 48.4268 56.0206 48.4511 56.0613C48.4633 56.0817 48.4755 56.098 48.4877 56.1184C48.4877 56.1225 48.5039 56.1429 48.508 56.1551C48.5161 56.1673 48.5364 56.204 48.5404 56.2081C48.5526 56.2285 48.5648 56.2489 48.577 56.2693C48.6013 56.3182 48.6297 56.3671 48.6541 56.4161C48.6987 56.5098 48.7434 56.6077 48.784 56.7056C48.8002 56.7504 48.8205 56.7912 48.8368 56.836C48.8408 56.8442 48.8408 56.8523 48.8449 56.8605C48.8571 56.889 48.8652 56.9217 48.8774 56.9543C48.9504 57.1704 49.0073 57.3946 49.0519 57.623C49.0925 57.8309 49.2752 57.9491 49.3807 57.8717C49.5106 57.782 49.539 57.5781 49.4944 57.3539Z" fill="#EDA677"/>
<path d="M51.5032 55.9677C51.2799 55.2256 50.9471 54.508 50.5208 53.8353C50.3991 53.6436 50.0662 53.8149 50.188 54.0065C50.598 54.6548 50.9146 55.3398 51.1297 56.0574C51.1947 56.2694 51.5682 56.1797 51.5032 55.9677Z" fill="#EDA677"/>
<path d="M53.9641 55.0054C53.9357 54.7077 53.8748 54.4101 53.7002 54.1491C53.5703 53.9493 53.2172 54.1287 53.3511 54.3326C53.4973 54.5569 53.5419 54.8137 53.5622 55.0706C53.5866 55.3805 53.5866 55.6903 53.5541 55.9961C53.546 56.094 53.6556 56.1755 53.7571 56.1755C53.8748 56.1755 53.9519 56.094 53.96 55.9961C53.9966 55.6659 54.0006 55.3356 53.9641 55.0054Z" fill="#EDA677"/>
<path d="M47.4283 60.897C47.3106 60.4893 47.132 60.0897 46.9452 59.7105C46.7342 59.2864 46.4947 58.8746 46.2552 58.4628C46.1212 58.2386 45.7721 58.4424 45.9061 58.6667C45.9223 58.6952 45.9385 58.7197 45.9507 58.7482C45.9426 58.7768 45.9426 58.8094 45.9466 58.842C46.105 59.6371 46.3932 60.4077 46.8072 61.109C46.9046 61.2721 47.0224 61.4637 47.2416 61.3904C47.4527 61.321 47.4811 61.0846 47.4283 60.897Z" fill="#EDA677"/>
<path d="M27.6026 49.9821C27.4037 49.2033 27.2048 48.4164 27.2779 47.605C27.2901 47.4949 27.1764 47.4011 27.0749 47.4011C26.9572 47.4011 26.8841 47.4949 26.872 47.605C26.7948 48.449 27.0019 49.2808 27.2089 50.0881C27.2779 50.345 27.6676 50.2389 27.6026 49.9821Z" fill="#EDA677"/>
</svg>
