<svg width="80" height="80" viewBox="0 0 80 80" fill="none" xmlns="http://www.w3.org/2000/svg">
<path d="M66.8325 13.2819C81.1701 27.6824 84.4378 47.7542 70.1002 62.1546C55.7626 76.5551 29.247 79.8372 14.9094 65.4367C0.571741 51.0363 -6.48746 34.7685 7.85421 20.368C22.1959 5.9675 52.4948 -1.12266 66.8325 13.2819Z" fill="#FFF7DB"/>
<mask id="mask0" mask-type="alpha" maskUnits="userSpaceOnUse" x="0" y="6" width="80" height="70">
<path d="M66.8325 13.8886C81.1701 28.2891 84.4378 48.3609 70.1002 62.7614C55.7626 77.1619 29.247 80.444 14.9094 66.0435C0.571741 51.643 -6.48746 35.3752 7.85421 20.9747C22.1959 6.57425 52.4948 -0.515911 66.8325 13.8886Z" fill="#EAF8FF"/>
</mask>
<g mask="url(#mask0)">
<rect x="37.2705" y="50.7527" width="10.6981" height="9.83629" rx="1.63594" fill="#00C8FF"/>
<rect opacity="0.1" x="37.0342" y="52.0327" width="11.1708" height="10.2709" rx="1.63594" fill="black" fill-opacity="0.8"/>
<rect x="18" y="20" width="49.2392" height="35.7076" rx="5.98267" fill="#00C8FF"/>
<rect x="33.5479" y="59.2883" width="18.1437" height="3.01532" rx="0.730072" fill="#00C8FF"/>
<rect x="18" y="20" width="47.3546" height="33.8518" rx="5.98267" fill="white" fill-opacity="0.3"/>
<path d="M46.0167 30.9481C45.5802 30.5634 44.7135 30.6841 44.1397 30.671C42.4125 30.6315 40.6854 30.6114 38.9575 30.6209C38.8682 30.6132 38.7884 30.6762 38.7753 30.7648C38.7606 31.9985 38.8027 33.2302 38.9015 34.4601C38.1907 33.5876 37.4209 32.7294 36.5129 31.9953C36.4624 31.9544 36.3623 32.0078 36.4083 32.059C37.2771 33.0272 38.1764 33.9665 38.9512 34.9898C39.0284 35.0918 39.2591 35.0661 39.2493 34.9285C39.1535 33.5932 39.11 32.2543 39.1335 30.9167C40.5038 30.9273 41.8743 30.9413 43.2443 30.9666C43.9212 30.9791 44.6089 30.9674 45.2836 31.0138C46.042 31.066 45.8765 31.66 46.0614 32.0912C46.0816 32.131 46.1221 32.1563 46.1668 32.157C46.2114 32.1577 46.2527 32.1337 46.2741 32.0945C46.4483 31.7446 46.3335 31.2273 46.0167 30.9481Z" fill="white"/>
<path d="M45.7462 33.4807C45.5348 33.682 45.268 34.1359 44.8623 34.0345C44.629 33.9762 44.5676 33.7014 44.4929 33.5396C44.4089 33.3579 44.3257 33.1759 44.2432 32.9937C44.2024 32.9035 44.0386 32.8592 43.9721 32.9603C43.8555 33.1393 43.7249 33.3089 43.5815 33.4674C43.4766 33.5823 43.213 33.9135 42.9963 33.8395C42.8253 33.7811 42.7598 33.5077 42.738 33.3492C42.861 33.1296 42.9076 32.8753 42.8704 32.6263C42.8532 32.5245 42.6447 32.4961 42.5924 32.592C42.4676 32.8105 42.4117 33.0616 42.4322 33.3124C42.3879 33.3876 42.3382 33.4595 42.2833 33.5274C42.0979 33.7562 41.8287 34.0382 41.5065 34.141C41.0833 34.2762 40.8228 33.9338 40.7218 33.6445C40.6663 33.4854 40.5299 32.8976 40.8154 32.8698C40.9032 32.8612 40.8781 32.7532 40.7983 32.7484C40.7473 32.7454 40.6962 32.7423 40.6452 32.7392C40.6149 32.7375 40.5856 32.7507 40.5668 32.7745C40.3671 33.1071 40.3492 33.5182 40.5194 33.8669C40.6694 34.1785 40.9871 34.4642 41.4304 34.4119C41.8749 34.3595 42.2164 34.0272 42.4665 33.7477C42.4865 33.7254 42.5011 33.7012 42.5199 33.6785C42.5714 33.837 42.679 33.9712 42.8226 34.0558C43.3039 34.2978 43.796 33.7127 44.072 33.3182C44.1587 33.5161 44.2451 33.7143 44.3426 33.9082C44.4304 34.1144 44.6208 34.2587 44.8431 34.2876C45.4008 34.3684 45.785 33.9425 45.8703 33.5426C45.8726 33.5123 45.8563 33.4836 45.8291 33.47C45.8019 33.4564 45.7691 33.4606 45.7462 33.4807Z" fill="white"/>
<path d="M48.2297 30.1573C48.154 30.1041 48.0626 30.0778 47.9701 30.0826C47.877 30.0775 47.7849 30.061 47.6959 30.0334C47.5695 29.9915 47.4428 29.8985 47.4277 29.7809C47.4204 29.6659 47.2049 29.66 47.2073 29.7775C47.2075 29.7858 47.2116 29.7932 47.2123 29.8014L47.2107 29.8016C47.2433 29.9561 47.2374 30.1162 47.1937 30.2679C47.1683 30.3462 47.1282 30.419 47.0757 30.4823C47.032 30.5345 46.9351 30.6345 46.8506 30.6346C46.7702 30.6348 46.7529 30.5279 46.744 30.4783C46.7255 30.3686 46.7145 30.2577 46.7111 30.1465C46.7024 29.9261 46.7182 29.7055 46.7583 29.4886C46.766 29.4461 46.6763 29.4344 46.6663 29.477C46.6181 29.6801 46.5908 29.8877 46.5849 30.0965C46.5823 30.2005 46.5852 30.3046 46.5937 30.4083C46.5943 30.4865 46.6105 30.5637 46.6414 30.6356C46.6729 30.7007 46.7333 30.7472 46.8043 30.7611C46.9035 30.7712 47.0027 30.7411 47.0795 30.6775C47.2092 30.5869 47.3069 30.4576 47.3585 30.308C47.3793 30.2444 47.3948 30.1792 47.4047 30.113C47.4456 30.1432 47.4895 30.1689 47.5359 30.1898C47.6454 30.2365 47.7612 30.2667 47.8796 30.2796C48.0001 30.2951 48.13 30.3118 48.2278 30.239C48.2407 30.2296 48.2485 30.2146 48.2489 30.1986C48.2493 30.1826 48.2422 30.1673 48.2297 30.1573Z" fill="white"/>
<path d="M35.9137 40.033C35.8222 40.14 35.5948 40.1429 35.4694 40.0768C35.3024 39.9887 35.2291 39.8087 35.1699 39.6628C35.145 39.6142 35.0977 39.5811 35.0435 39.5744C34.9893 39.5677 34.9353 39.5883 34.8994 39.6295C34.762 39.7941 34.6245 39.9587 34.4871 40.1234C34.4259 40.1968 34.122 40.6147 34.0785 40.3604C34.0123 39.9736 34.1018 39.531 34.1979 39.1533C34.2342 39.0104 33.9681 38.9445 33.9311 39.0884C33.8396 39.4419 33.6643 39.7683 33.4202 40.0398C33.2279 40.2561 32.7962 40.7034 32.414 40.6253C32.1877 40.5791 32.1504 40.3486 32.1179 40.1886C32.0792 39.9951 32.0663 39.7973 32.0793 39.6004C32.1084 39.1959 32.2391 38.8052 32.4593 38.4646C32.5187 38.3706 32.3492 38.284 32.287 38.3783C32.0202 38.773 31.8663 39.2331 31.842 39.7088C31.8281 40.0459 31.8164 40.6627 32.2798 40.8164C32.7415 40.9695 33.2251 40.5767 33.4938 40.3183C33.601 40.2135 33.6994 40.1002 33.7882 39.9794C33.7881 39.9804 33.7879 39.9814 33.7878 39.9823C33.7776 40.1764 33.71 40.5138 33.9345 40.646C34.1421 40.7681 34.386 40.6548 34.5213 40.5132C34.6913 40.3352 34.8429 40.143 34.995 39.9524C35.0881 40.1406 35.2556 40.2814 35.457 40.3407C35.7194 40.4105 36.0145 40.3293 36.0882 40.0966C36.1161 40.0082 35.9761 39.96 35.9137 40.033Z" fill="white"/>
<path d="M38.6483 40.4431C38.5909 40.3739 38.5234 40.3136 38.4481 40.2645C38.3712 40.2014 38.2943 40.1383 38.2174 40.0753C38.1888 40.0518 38.1595 40.0289 38.1308 40.0055C38.1522 39.9543 38.1768 39.9041 38.1968 39.8527C38.322 39.5559 38.3903 39.2382 38.3984 38.9162C38.3982 38.8387 38.2608 38.8378 38.2529 38.9139C38.2096 39.229 38.1081 39.5334 37.9535 39.8113C37.9473 39.8233 37.94 39.8348 37.9337 39.8467C37.8773 39.8015 37.8222 39.7551 37.7647 39.7106L36.8411 38.9956C36.7511 38.9261 36.6187 39.0296 36.7024 39.1052C36.991 39.3657 37.2796 39.6261 37.5681 39.8866C37.6436 39.9547 37.7222 40.0205 37.7997 40.0871C37.7743 40.1315 37.7503 40.1765 37.725 40.221C37.6339 40.3681 37.5536 40.5217 37.485 40.6805C37.4347 40.8119 37.6746 40.904 37.7573 40.7798C37.8476 40.6323 37.9271 40.4785 37.9953 40.3196C38.0025 40.3044 38.0081 40.2887 38.0152 40.2735L38.218 40.4462C38.2927 40.5098 38.3665 40.5964 38.4703 40.6259C38.6038 40.6638 38.7052 40.5366 38.6483 40.4431Z" fill="white"/>
<path d="M46.5042 39.1117C46.486 39.0885 46.4563 39.0776 46.4274 39.0835C46.3985 39.0894 46.3755 39.1113 46.368 39.1398C46.3289 39.3886 46.1488 39.6931 45.8287 39.7571C45.4498 39.8328 45.1172 39.5408 45.1297 39.2434C45.1365 39.0793 44.824 39.0334 44.7761 39.1985C44.6975 39.4694 44.5713 39.915 44.1542 39.9398C43.5581 39.975 43.4697 39.3474 43.5117 38.9996C43.5286 38.8589 43.2487 38.8228 43.2106 38.9613C43.1041 39.3484 42.8064 39.771 42.334 39.9203C41.631 40.1425 41.5441 39.4109 41.5736 39.0177C41.5817 38.8873 41.3228 38.8489 41.2913 38.9818C41.289 38.9915 41.2888 39.0031 41.2867 39.0131H41.2855C41.2858 39.0162 41.285 39.0202 41.2852 39.0232C41.2692 39.1089 41.262 39.1961 41.2638 39.2833C41.2239 39.4811 41.128 39.6874 40.9521 39.789C40.8802 39.8305 40.7478 39.8688 40.6927 39.8303C40.6445 39.7967 40.6629 39.6537 40.6663 39.5922C40.6801 39.4151 40.7443 39.2457 40.8514 39.104C40.893 39.0454 40.7904 38.9961 40.7432 39.0498C40.573 39.2437 40.1797 40.0534 40.7376 40.0943C40.9787 40.112 41.1935 39.8851 41.3125 39.7401C41.323 39.7273 41.3295 39.7136 41.3392 39.7006C41.4531 40.0096 41.7007 40.259 42.1471 40.2287C42.6253 40.1963 42.9909 39.9161 43.2319 39.5794C43.3283 39.9071 43.5763 40.186 44.046 40.2279C44.4955 40.2681 44.768 40.018 44.9388 39.7188C45.161 39.9866 45.5064 40.1198 45.8509 40.0704C46.371 39.9981 46.7955 39.5136 46.5042 39.1117Z" fill="white"/>
<path fill-rule="evenodd" clip-rule="evenodd" d="M29.9273 26.3207C29.9625 26.3331 29.9912 26.3592 30.0069 26.3931C30.4089 27.8954 30.629 29.4405 30.6627 30.9954C30.6572 31.0508 30.6144 31.0952 30.5592 31.1027C28.3828 31.3554 26.1893 31.429 24.0009 31.3228C24.0004 31.3555 23.9979 31.388 23.9936 31.4204C23.9623 31.5924 23.845 31.8216 23.5872 31.7724C23.5702 31.7708 23.5559 31.759 23.5511 31.7426C23.5462 31.7263 23.5517 31.7086 23.5651 31.698C23.6871 31.6049 23.7629 31.4635 23.7731 31.3104C22.8234 31.2541 21.8795 31.1625 20.9513 31.0202C20.9162 31.0144 20.887 30.9901 20.8749 30.9566C20.8629 30.9232 20.8699 30.8858 20.8933 30.859C20.9167 30.8322 20.9528 30.8203 20.9876 30.8277C21.9139 30.9242 22.8366 31.0087 23.7626 31.0672C23.7354 30.9245 23.6933 30.785 23.637 30.6511C23.5531 30.4459 23.4379 30.2549 23.2955 30.085C23.2211 29.9978 23.14 29.9166 23.053 29.8421C22.9571 29.8884 22.8615 29.9352 22.766 29.982C22.6449 30.0414 22.5238 30.1008 22.4019 30.1591C22.3437 30.1869 22.2969 30.1148 22.3515 30.0851C22.47 30.0204 22.5901 29.9575 22.7101 29.8946C22.7943 29.8505 22.8785 29.8064 22.9622 29.7617C22.9247 29.7293 22.8877 29.6963 22.8506 29.6632L22.8495 29.6674C22.8575 29.7044 22.8009 29.7229 22.776 29.6915C22.7386 29.6448 22.7393 29.5782 22.7777 29.5324C22.8036 29.5026 22.8463 29.4942 22.8816 29.5118C22.9712 29.5553 23.0556 29.6087 23.1332 29.6712C25.0935 28.6298 27.1062 27.6493 29.1141 26.6712C29.3495 26.5565 29.5848 26.4419 29.8199 26.3272C29.8534 26.3107 29.8921 26.3083 29.9273 26.3207ZM23.9904 31.0808C24.5522 31.1132 25.1152 31.1382 25.6822 31.1427C27.2523 31.1541 28.8217 31.0712 30.382 30.8947C30.3275 29.4421 30.1287 27.9985 29.7888 26.5852C28.3042 27.2774 26.8382 27.9946 25.3721 28.7119C24.6607 29.06 23.9492 29.408 23.2356 29.7533C23.3336 29.8436 23.4249 29.9411 23.5086 30.0449C23.6746 30.2458 23.8048 30.4738 23.8935 30.7188C23.9368 30.8362 23.9692 30.9574 23.9904 31.0808Z" fill="white"/>
<path d="M33.2816 27.8289C33.1359 27.8498 32.9938 27.8907 32.8593 27.9503C32.7204 27.9991 32.5843 28.0529 32.4475 28.1056C32.1608 28.2023 31.88 28.3156 31.6065 28.4449C31.5658 28.4664 31.5882 28.5242 31.6393 28.5123C31.9284 28.4324 32.2127 28.336 32.4908 28.2235C32.6294 28.174 32.7694 28.1264 32.9059 28.073C33.0404 28.0203 33.2024 27.9754 33.3101 27.8885C33.3214 27.8783 33.3247 27.8618 33.3181 27.8481C33.3115 27.8343 33.2967 27.8265 33.2816 27.8289Z" fill="white"/>
<path d="M34.3686 27.3556C34.2723 27.3026 34.1482 27.3267 34.0419 27.3379C33.902 27.3526 33.7621 27.3673 33.6221 27.3819C33.4822 27.3966 33.3423 27.4112 33.2024 27.4259C33.1324 27.4333 33.0628 27.4398 32.9939 27.4522C32.9191 27.4577 32.8456 27.4748 32.7761 27.5029C32.7295 27.5293 32.7369 27.581 32.789 27.5982C32.8437 27.6107 32.9 27.6143 32.9559 27.6089C33.0164 27.6086 33.076 27.6085 33.1362 27.6039C33.2566 27.5947 33.377 27.5855 33.4975 27.5762L33.8587 27.5486C33.9695 27.5401 34.0858 27.5218 34.1971 27.5238L34.2005 27.524C34.1845 27.5608 34.166 27.5965 34.1451 27.6308C34.1005 27.7085 34.0511 27.7834 33.9972 27.8551C33.9444 27.9252 33.8878 27.9922 33.8275 28.0559C33.7957 28.0894 33.7612 28.1211 33.7309 28.1555C33.7015 28.192 33.6768 28.232 33.6573 28.2745C33.6241 28.3362 33.7227 28.3814 33.783 28.357C33.8906 28.3102 33.9854 28.2384 34.0596 28.1475C34.1346 28.0668 34.2037 27.9808 34.2663 27.8902C34.3263 27.8031 34.3801 27.7119 34.4272 27.6173C34.4727 27.5262 34.48 27.417 34.3686 27.3556Z" fill="white"/>
<path d="M40.5294 26.909C40.4224 26.891 40.3128 26.8802 40.2068 26.859C40.0889 26.8354 39.9953 26.7848 39.8829 26.7536C39.7614 26.7169 39.63 26.7333 39.5213 26.7989C39.4 26.8719 39.3348 26.9875 39.2363 27.0777C38.9924 27.3011 38.7691 27.0464 38.6572 26.8531C38.6004 26.755 38.4307 26.8066 38.4223 26.9014C38.4072 27.0711 38.1667 27.1259 38.012 27.0529C37.8818 26.9923 37.7987 26.8616 37.7989 26.718C37.7953 26.6203 37.6414 26.5796 37.5748 26.6644C37.4196 26.8663 37.236 27.0448 37.0297 27.1941C36.9633 27.2438 36.8773 27.2591 36.7979 27.2352C36.7185 27.2113 36.6551 27.1512 36.6271 27.0731C36.5747 26.9493 36.5788 26.8088 36.6384 26.6883C36.6797 26.5683 36.4698 26.5217 36.4156 26.6341C36.3453 26.8535 36.2024 27.0424 36.0105 27.1698C35.864 27.2695 35.5876 27.3424 35.4731 27.1768C35.3935 27.0616 35.3801 26.859 35.3972 26.7288C35.3993 26.7132 35.3707 26.7108 35.3651 26.7247C35.2918 26.9067 35.1845 27.0643 35.2966 27.2578C35.3902 27.4053 35.5586 27.4878 35.7324 27.4714C35.9847 27.4423 36.2158 27.3163 36.377 27.1201C36.4264 27.3135 36.5881 27.4577 36.7859 27.4847C37.117 27.5412 37.4243 27.2255 37.6299 26.967C37.7082 27.1413 37.8683 27.2651 38.0567 27.2969C38.2452 27.3287 38.4371 27.2644 38.5683 27.1255C38.7684 27.3511 39.0702 27.5203 39.3761 27.2744C39.5304 27.1503 39.6096 26.8958 39.8609 26.9822C40.0985 27.0638 40.3017 27.1336 40.5437 27.0149C40.5672 27.0056 40.5813 26.9814 40.5779 26.9564C40.5745 26.9314 40.5545 26.9118 40.5294 26.909Z" fill="white"/>
<path d="M40.9681 28.1957C40.7697 28.1479 40.5515 28.184 40.3446 28.1442C40.1321 28.0936 39.917 28.0546 39.7002 28.0273C39.4998 28.0075 39.2978 28.0413 39.1148 28.1253C39.0028 28.1782 38.565 28.4649 38.502 28.2253C38.48 28.1417 38.3523 28.1209 38.2804 28.1735C38.0779 28.3216 37.8325 28.4878 37.5424 28.4663C37.2863 28.4474 37.0499 28.1948 37.3064 28.032C37.4044 27.9698 37.2774 27.8269 37.176 27.8877C36.8734 28.0694 36.9237 28.4435 37.2419 28.5956C37.6221 28.7773 38.0212 28.6179 38.3355 28.4185C38.4462 28.5062 38.5866 28.5476 38.7271 28.5339C39.0236 28.5135 39.2135 28.2806 39.5084 28.2569C39.7916 28.2341 40.07 28.3374 40.3427 28.3833C40.5646 28.4206 40.8637 28.464 41.0122 28.2898C41.0411 28.2558 41.0136 28.2066 40.9681 28.1957Z" fill="white"/>
<path opacity="0.3" d="M14.9969 96.2431H14L17.3684 65.6249H20.1421L14.9969 96.2431Z" fill="#E34C67"/>
<path d="M73.7887 96.2431H74.7856L71.4172 65.6249H68.6436L73.7887 96.2431Z" fill="#E34C67"/>
<rect opacity="0.3" x="15.7925" y="63.6301" width="54.2005" height="2.68292" fill="#FF6782"/>
<g style="mix-blend-mode:multiply" opacity="0.3">
<rect x="15.793" y="63.6301" width="54.2001" height="0.644662" fill="#BF2449"/>
</g>
<rect opacity="0.3" x="14.6128" y="62" width="56.5599" height="1.65556" fill="#FF6782"/>
<path d="M16.9882 49.5889C16.918 47.8783 15.4363 44.7936 14.8293 41.7626C14.5191 40.214 14.3351 38.8364 15.3328 37.6121C16.18 36.5726 17.3633 35.8719 18.5294 35.2099C20.3858 34.156 22.3461 33.1203 24.4775 33.004C25.8657 32.9282 27.3649 33.3159 28.2515 34.3867C28.9801 35.2668 29.1875 36.456 29.3311 37.5895C29.5698 39.4742 29.7041 41.3707 29.7334 43.2703C29.7486 44.2572 29.7332 45.2601 29.4504 46.2059C29.1677 47.1516 28.583 48.0464 27.7064 48.5001C26.9507 48.8913 26.0496 48.9261 25.2939 49.3175C24.5382 49.7089 23.9813 50.7593 24.5427 51.3989L19.5446 52.7648L16.9882 49.5889Z" fill="#B66955"/>
<path d="M15.9452 47.0927C16.477 48.1537 17.408 49.0393 18.545 49.3798C19.6819 49.7204 21.0137 49.4576 21.8439 48.6094C22.3361 48.1065 22.6276 47.4472 22.9612 46.8275C23.2948 46.2079 23.7087 45.588 24.3365 45.27C24.9643 44.952 25.8525 45.0535 26.2159 45.6562C26.3323 45.8492 26.4036 46.094 26.605 46.1954C26.8571 46.3223 27.1756 46.1281 27.284 45.8675C27.3925 45.607 27.3504 45.3112 27.3043 45.0327C27.1322 43.9929 26.9281 42.9481 26.9659 41.8948C27.0038 40.8415 27.3101 39.7581 28.0331 38.9911C28.5886 38.4019 29.3401 38.0452 30.0038 37.5812C30.6675 37.1171 31.2879 36.461 31.3433 35.6531C31.3928 34.9309 30.9711 34.2485 30.4355 33.7615C29.2665 32.6985 24.6853 31.8796 23.2214 32.4742C23.2214 32.4742 17.0682 35.1498 16.7651 35.3648C16.462 35.5799 14.2333 36.3624 14.2972 39.0782C14.3612 41.7939 15.9452 47.0927 15.9452 47.0927Z" fill="#1A2E35"/>
<path d="M16.9882 49.5889C16.918 47.8783 15.4363 44.7936 14.8293 41.7626C14.5191 40.214 14.3351 38.8364 15.3328 37.6121C16.18 36.5726 17.3633 35.8719 18.5294 35.2099C20.3858 34.156 22.3461 33.1203 24.4775 33.004C25.8657 32.9282 27.3649 33.3159 28.2515 34.3867C28.9801 35.2668 29.1875 36.456 29.3311 37.5895C29.5698 39.4742 29.7041 41.3707 29.7334 43.2703C29.7486 44.2572 29.7332 45.2601 29.4504 46.2059C29.1677 47.1516 28.583 48.0464 27.7064 48.5001C26.9507 48.8913 26.0496 48.9261 25.2939 49.3175C24.5382 49.7089 23.9813 50.7593 24.5427 51.3989L19.5446 52.7648L16.9882 49.5889Z" fill="#FFC9AF"/>
<path d="M31.4451 33.5983C31.1511 33.3037 30.5876 33.2948 30.3512 33.6374C30.7214 33.1136 30.5942 32.3044 30.0812 31.9194C29.5682 31.5344 28.7557 31.6384 28.3562 32.1401C28.6431 31.6231 28.4101 30.9223 27.9329 30.5731C27.4557 30.2238 26.8051 30.1837 26.2341 30.3376C25.6632 30.4915 25.1554 30.8174 24.6701 31.1552C24.6821 30.763 24.4128 30.4006 24.0683 30.2129C23.7238 30.0252 23.3169 29.9867 22.9249 30.0036C21.3743 30.0866 19.9711 30.949 19.1967 32.295C18.4087 31.9761 17.5068 32.152 16.8964 32.7437C16.2861 33.3353 16.0821 34.2313 16.3763 35.0288C15.5532 35.1586 14.9235 35.9827 14.9458 36.8037C14.5601 37.3471 14.2738 38.0815 14.2972 39.0782C14.3612 41.7939 15.9452 47.0927 15.9452 47.0927C16.477 48.1537 17.408 49.0393 18.545 49.3798C19.682 49.7204 21.0137 49.4576 21.8439 48.6094C22.3361 48.1065 22.6276 47.4472 22.9612 46.8275C23.2948 46.2078 23.7087 45.588 24.3365 45.27C24.9643 44.952 25.6887 45.1716 26.3645 45.3683C26.9802 45.5475 26.9797 45.148 27.0167 44.6808L26.9659 41.8948C27.0038 40.8415 27.3101 39.7581 28.0332 38.9912C28.5887 38.402 29.3401 38.0452 30.0038 37.5812C30.6675 37.1171 31.2879 36.461 31.3433 35.6531C31.3499 35.5352 31.3443 35.4168 31.3268 35.3C31.4602 35.1405 31.5659 34.9597 31.6395 34.7651C31.7817 34.3739 31.7392 33.893 31.4451 33.5983Z" fill="#32353D"/>
<path d="M23.2068 38.1825C23.2029 38.2845 23.1786 38.3847 23.1353 38.4771C23.0314 38.7403 22.8661 38.9748 22.6533 39.1612C22.3313 39.4504 21.914 39.6108 21.4811 39.6115C20.937 39.611 20.4196 39.3755 20.062 38.9655L20.1814 38.9589C20.0565 39.1442 19.9025 39.3082 19.7254 39.4445C19.2337 39.8229 18.6073 39.9809 17.9949 39.8811C17.1582 39.7141 16.4983 39.0703 16.3107 38.238C16.2917 38.1503 16.2806 38.061 16.2778 37.9712C16.2764 37.9098 16.2782 37.8777 16.2834 37.8774C16.2975 37.8763 16.3061 38.0046 16.3679 38.2237C16.4584 38.5312 16.614 38.8155 16.8243 39.0574C17.1311 39.4172 17.553 39.6597 18.0184 39.7437C18.5911 39.8286 19.1738 39.6774 19.6329 39.3247C19.7972 39.1984 19.9403 39.0467 20.057 38.8755L20.1125 38.7934L20.1765 38.8689C20.5057 39.2481 20.9802 39.4697 21.4822 39.4788C21.8863 39.4846 22.2789 39.345 22.5886 39.0854C22.7978 38.9137 22.9673 38.6988 23.0857 38.4555C23.1686 38.2832 23.1949 38.1794 23.2068 38.1825Z" fill="#4D515F"/>
<path d="M27.203 36.3448C27.2144 36.3338 27.33 36.5208 27.2588 36.8386C27.2146 37.0213 27.1216 37.1886 26.9899 37.3227C26.8258 37.4838 26.6204 37.5964 26.3964 37.6482C25.9209 37.7643 25.4853 37.6367 25.2073 37.527C24.9245 37.4116 24.7673 37.3088 24.7752 37.2917C24.7845 37.2708 24.9588 37.3394 25.2424 37.426C25.5232 37.5081 25.9321 37.6068 26.3601 37.5013C26.5583 37.4556 26.7415 37.3599 26.8921 37.2233C27.0124 37.109 27.1029 36.9671 27.1558 36.8098C27.2456 36.5357 27.1771 36.35 27.203 36.3448Z" fill="#4D515F"/>
<path d="M30.0509 35.3521C30.0668 35.3517 30.0843 35.5488 29.9714 35.8401C29.6599 36.64 28.7688 37.0472 27.9602 36.7593C27.666 36.654 27.5284 36.5118 27.5392 36.5C27.5529 36.4786 27.7087 36.5846 27.9912 36.6569C28.7444 36.866 29.5388 36.5029 29.8737 35.7965C30.0038 35.5357 30.0256 35.3484 30.0509 35.3521Z" fill="#4D515F"/>
<path d="M26.5917 33.398C26.5761 33.426 26.3051 33.1394 25.7301 33.0371C24.9734 32.8957 24.2158 33.2788 23.8811 33.972C23.7767 34.1775 23.7147 34.4018 23.6985 34.6317L23.5514 34.6202C23.5819 34.2934 23.2692 34.0453 22.9994 33.9899C22.7205 33.9264 22.4566 34.0361 22.2716 34.1461C21.8984 34.3875 21.7342 34.6191 21.7151 34.5996C21.7086 34.5942 21.7439 34.535 21.8234 34.4368C21.9377 34.2953 22.0712 34.1705 22.22 34.0661C22.4512 33.8942 22.7414 33.8216 23.0263 33.8645C23.1987 33.8991 23.3578 33.9815 23.4854 34.1024C23.6335 34.2385 23.7118 34.4345 23.6983 34.6351L23.5511 34.6236C23.5659 34.3728 23.6323 34.1278 23.746 33.9038C23.9456 33.5045 24.2814 33.1898 24.6929 33.0167C25.0292 32.8846 25.3972 32.8552 25.7503 32.9321C25.9854 32.981 26.2078 33.0783 26.4034 33.2176C26.5388 33.3188 26.5973 33.3922 26.5917 33.398Z" fill="#4D515F"/>
<path d="M23.8647 31.2917C23.8646 31.3157 23.726 31.3197 23.5228 31.3869C22.9806 31.5539 22.6031 32.0453 22.5814 32.6122C22.5689 32.8259 22.6007 32.9607 22.5776 32.967C22.5613 32.9733 22.49 32.8449 22.4744 32.6124C22.4367 31.9771 22.8718 31.4107 23.4954 31.2834C23.7241 31.2386 23.8666 31.2744 23.8647 31.2917Z" fill="#4D515F"/>
<path d="M18.2097 34.6859C18.1941 34.6851 18.2413 34.4672 18.5081 34.264C18.6643 34.1492 18.8459 34.0738 19.0375 34.0441C19.2718 34.0112 19.5106 34.0342 19.7344 34.111C20.2111 34.2699 20.5459 34.583 20.7647 34.8046C20.9832 35.0327 21.1005 35.1873 21.0867 35.2011C21.071 35.2168 20.9251 35.0872 20.6913 34.8824C20.4567 34.6828 20.1256 34.3999 19.6872 34.2548C19.4848 34.1852 19.2697 34.1604 19.0568 34.1822C18.8838 34.2031 18.7173 34.2611 18.5687 34.3523C18.3129 34.5124 18.2323 34.6995 18.2097 34.6859Z" fill="#4D515F"/>
<path d="M21.151 37.0171C21.1163 37.037 20.9537 36.6614 21.0788 36.1978C21.1988 35.7327 21.5256 35.4863 21.5459 35.5207C21.5783 35.5516 21.3308 35.8188 21.2251 36.2364C21.111 36.6517 21.1944 37.0063 21.151 37.0171Z" fill="#4D515F"/>
<path d="M37.4497 48.2371L33.2366 49.6068L34.0447 57.3514L33.747 57.9402L30.6169 63.0743C30.5615 63.1633 33.7925 63.9223 35.0113 64.1829C36.5293 64.5075 40.5357 64.1829 39.9402 59.1515C39.5189 55.5925 37.4497 48.2371 37.4497 48.2371Z" fill="#FFC9AF"/>
<path d="M32.908 42.6791C32.2326 43.0169 31.7922 43.6931 31.7564 44.4475C31.7454 44.5504 31.7652 44.6543 31.8134 44.746C31.915 44.9076 32.1537 44.9319 32.3264 44.8505C32.4991 44.7692 32.621 44.6112 32.7362 44.459" fill="#FFC9AF"/>
<g style="mix-blend-mode:multiply">
<path d="M32.7361 44.459C32.7442 44.4652 32.7223 44.5124 32.6709 44.5913C32.5977 44.7078 32.4998 44.8067 32.3842 44.8812C32.2969 44.9334 32.1967 44.96 32.095 44.9577C31.9696 44.959 31.8505 44.9034 31.771 44.8065C31.6986 44.6959 31.6675 44.5635 31.6832 44.4323C31.6881 44.3045 31.7052 44.1775 31.7344 44.053C31.8382 43.6154 32.0818 43.2235 32.4283 42.9367C32.6952 42.7221 32.9025 42.6638 32.908 42.6791C32.9196 42.7015 32.7338 42.7934 32.4991 43.0169C32.1953 43.3076 31.9811 43.6791 31.8817 44.0877C31.8547 44.2029 31.8378 44.3202 31.8313 44.4384C31.8159 44.5363 31.834 44.6366 31.8827 44.723C31.986 44.8623 32.2087 44.8536 32.3329 44.7872C32.4425 44.7262 32.5412 44.6475 32.6251 44.5543C32.6894 44.4883 32.7277 44.4524 32.7361 44.459Z" fill="#FFC9AF"/>
</g>
<path d="M35.3799 42.6966C35.3799 42.6966 33.3056 43.5257 33.0506 44.1937C32.7956 44.8618 32.332 47.3533 32.332 47.3533L33.252 49.7653L37.3787 48.9416C37.3787 48.9416 38.0124 44.024 38.0566 43.8777C38.0566 43.8777 39.4939 39.7622 39.4911 39.3839C39.4873 38.8745 39.0861 38.7071 38.5873 39.3015C38.0885 39.8959 36.9765 42.1677 36.9765 42.1677L35.3799 42.6966Z" fill="#FFC9AF"/>
<path d="M34.9935 41.7092C34.5734 41.6837 34.1311 41.677 33.7574 41.8705C33.3982 42.0565 33.1479 42.409 33.0033 42.7868C32.8587 43.1645 32.8078 43.5706 32.7581 43.972C32.7207 44.2742 32.7077 44.6376 32.9522 44.8191C33.0745 44.91 33.2356 44.9298 33.3763 44.8713C33.517 44.8128 33.6166 44.6846 33.6385 44.5338" fill="#FFC9AF"/>
<g style="mix-blend-mode:multiply">
<path d="M33.6384 44.5338C33.6456 44.5326 33.659 44.6208 33.5787 44.7482C33.528 44.8253 33.4547 44.8851 33.3689 44.9192C33.2515 44.9639 33.1214 44.9614 33.0058 44.9123C32.8656 44.8484 32.76 44.7267 32.7166 44.5788C32.6717 44.4206 32.6577 44.2553 32.6753 44.0918C32.7029 43.7318 32.7601 43.3748 32.8464 43.0242C32.9346 42.6638 33.1174 42.3333 33.3759 42.067C33.5949 41.8525 33.878 41.7156 34.1821 41.677C34.38 41.6509 34.5803 41.6484 34.7788 41.6694C34.8522 41.6688 34.925 41.6823 34.9934 41.7091C34.9941 41.74 34.6789 41.7013 34.2003 41.7824C33.9243 41.8313 33.6705 41.9654 33.4744 42.1657C33.2398 42.4195 33.0739 42.7288 32.9922 43.0645C32.9086 43.4062 32.8491 43.7534 32.8143 44.1035C32.7948 44.2495 32.8022 44.398 32.8363 44.5414C32.8652 44.6589 32.943 44.7585 33.0501 44.8149C33.215 44.8956 33.4137 44.8535 33.5316 44.7128C33.5718 44.6559 33.6074 44.5961 33.6384 44.5338Z" fill="#FFC9AF"/>
</g>
<path d="M36.9141 42.1097C36.648 41.8421 36.3603 41.5623 35.9915 41.4824C35.5926 41.396 35.1717 41.5695 34.8705 41.8448C34.5693 42.1201 34.3684 42.4863 34.1889 42.8528C34.039 43.1585 33.9001 43.4694 33.7722 43.7854C33.6964 43.9521 33.6454 44.1292 33.6209 44.3108C33.5972 44.4945 33.6483 44.68 33.7627 44.8257C33.944 45.0347 34.2781 45.0626 34.525 44.9378C34.7677 44.7987 34.9483 44.5723 35.0298 44.3047" fill="#FFC9AF"/>
<g style="mix-blend-mode:multiply">
<path d="M35.0298 44.3047C35.0373 44.3069 35.0217 44.4122 34.9326 44.5811C34.8089 44.8337 34.5719 45.0118 34.2949 45.0605C34.0952 45.0924 33.8918 45.0315 33.7424 44.895C33.5855 44.7239 33.5168 44.4896 33.5564 44.2607C33.5974 44.0276 33.6721 43.8016 33.7783 43.59C33.8762 43.3696 33.977 43.1427 34.0807 42.9094C34.293 42.4501 34.545 42.0053 34.9102 41.7198C35.2689 41.4342 35.7205 41.3369 36.059 41.4443C36.3152 41.5336 36.5449 41.6856 36.7273 41.8864C36.8007 41.9508 36.8637 42.0261 36.9141 42.1098C36.8318 42.0587 36.7557 41.9982 36.6873 41.9296C36.4995 41.7552 36.2752 41.6247 36.0308 41.5475C35.7259 41.4643 35.3235 41.5606 34.9971 41.8288C34.6667 42.0957 34.4276 42.5184 34.217 42.9751C34.1137 43.2052 34.013 43.4293 33.915 43.6474C33.8125 43.8466 33.7383 44.0591 33.6947 44.2789C33.6573 44.4663 33.7076 44.6606 33.8312 44.8064C33.9521 44.9205 34.1177 44.9748 34.2827 44.9542C34.5969 44.9228 34.7844 44.6937 34.8822 44.5507C34.9827 44.3985 35.0178 44.3 35.0298 44.3047Z" fill="#FFC9AF"/>
</g>
<path d="M35.4619 45.8745C35.3712 45.4025 35.2805 44.9305 35.1898 44.4585C34.6674 44.3756 34.1739 44.1641 33.7537 43.843C33.614 43.4689 33.81 43.2326 34.3243 43.0881C34.8386 42.9436 36.4911 43.1824 36.6721 43.2801C37.3034 43.6211 37.3784 44.503 37.4688 45.2148" fill="#FFC9AF"/>
<g style="mix-blend-mode:multiply">
<path d="M37.4684 45.2148C37.4319 45.1065 37.4077 44.9944 37.3963 44.8807C37.3522 44.5775 37.2783 44.2793 37.1757 43.9906C37.1032 43.7982 36.9896 43.624 36.8428 43.48C36.764 43.4045 36.6692 43.3477 36.5654 43.3139C36.4522 43.2848 36.3278 43.2622 36.2011 43.2424C35.6528 43.1482 35.0963 43.1104 34.5404 43.1296C34.329 43.1479 34.1255 43.2184 33.9482 43.335C33.8716 43.3853 33.8159 43.4618 33.7915 43.5502C33.7762 43.6404 33.7864 43.733 33.8208 43.8177L33.7972 43.7857C34.2074 44.1016 34.6881 44.3133 35.1981 44.403L35.2381 44.4099L35.2445 44.4479C35.3139 44.8613 35.3723 45.2096 35.4191 45.4881C35.4567 45.7347 35.4724 45.8723 35.4614 45.8744C35.4505 45.8765 35.4141 45.7429 35.3577 45.4999C35.2978 45.2239 35.223 44.8788 35.1342 44.4691L35.1806 44.514C34.6463 44.4365 34.1403 44.2254 33.7095 43.9002L33.6932 43.8879L33.6857 43.8681C33.6401 43.7573 33.6269 43.6357 33.6479 43.5176C33.6793 43.3944 33.7544 43.2868 33.8592 43.2148C34.0577 43.0805 34.2874 42.9993 34.5263 42.9789C35.0952 42.9581 35.6646 43.0003 36.2242 43.1049C36.3534 43.1272 36.4778 43.1516 36.6019 43.1859C36.725 43.2271 36.8367 43.2964 36.9284 43.3883C37.0851 43.548 37.2038 43.7408 37.2758 43.9526C37.3724 44.2511 37.4324 44.5601 37.4547 44.8729C37.4727 44.9859 37.4773 45.1007 37.4684 45.2148Z" fill="#FFC9AF"/>
</g>
<g style="mix-blend-mode:multiply">
<path d="M35.0287 45.3796C35.0261 45.4031 34.8756 45.3933 34.642 45.4282C34.0275 45.5118 33.4894 45.8828 33.1928 46.4274C33.0772 46.6333 33.0329 46.7774 33.01 46.7716C32.9924 46.7682 32.9996 46.6115 33.0968 46.3802C33.3635 45.7624 33.9598 45.3512 34.6321 45.3216C34.8828 45.3131 35.0319 45.362 35.0287 45.3796Z" fill="#FFC9AF"/>
</g>
<g style="mix-blend-mode:multiply">
<path d="M36.5779 58.6352C36.5574 58.6733 35.9857 58.4016 35.268 58.1C34.5508 57.7964 33.9574 57.5766 33.9704 57.5352C33.982 57.4967 34.602 57.6538 35.3268 57.9606C36.0522 58.2655 36.5974 58.6 36.5779 58.6352Z" fill="#FFC9AF"/>
</g>
<path d="M22.3768 50.4276C22.6427 50.339 26.8182 51.0901 28.0323 51.6297C28.7188 51.9348 34.5325 56.6516 34.5325 56.6516L30.2622 63.6561L27.4614 62.6376L27.4289 74.8902L10 74.8436L10.3785 55.2757C10.3785 55.2757 11.63 50.1449 13.7572 49.5245C15.8843 48.904 22.3768 50.4276 22.3768 50.4276Z" fill="#FF6782"/>
<path d="M27.0809 62.8206C27.0325 62.8205 26.9843 62.8137 26.9378 62.8003C26.8016 62.7763 26.6669 62.7439 26.5347 62.7034C26.0451 62.557 25.5801 62.3383 25.1552 62.0544C24.5197 61.6358 23.9732 61.0957 23.5472 60.4651C22.448 58.9032 22.2799 56.8687 23.1079 55.1476C23.4246 54.4556 23.8751 53.8331 24.4334 53.3158C24.8059 52.9661 25.2286 52.674 25.6875 52.4493C25.8113 52.3876 25.9388 52.3336 26.0692 52.2876C26.1129 52.2667 26.1593 52.2521 26.207 52.2441C26.2321 52.2835 25.432 52.508 24.5069 53.3935C23.971 53.9106 23.5391 54.5257 23.2347 55.2054C22.443 56.8854 22.6061 58.86 23.6629 60.3873C24.0746 61.0078 24.6015 61.5436 25.215 61.9657C26.2728 62.6874 27.0991 62.7776 27.0809 62.8206Z" fill="#E34C67"/>
<path d="M24.1152 74.0159C24.0734 74.0135 24.1774 71.5686 24.3472 68.5557C24.5171 65.5417 24.6885 63.1011 24.7303 63.1035C24.772 63.1058 24.6681 65.5502 24.4983 68.5642C24.3284 71.5771 24.1569 74.0182 24.1152 74.0159Z" fill="#E34C67"/>
<path d="M19.6945 66.759C19.6224 66.853 19.54 66.9387 19.4488 67.0144C19.2845 67.172 19.0406 67.3934 18.7344 67.6616C18.1224 68.1983 17.2544 68.9147 16.259 69.6584C15.2628 70.4016 14.3291 71.0303 13.6406 71.4646C13.2965 71.6819 13.0149 71.8528 12.8171 71.9655C12.7186 72.0314 12.6131 72.086 12.5024 72.1284C12.5887 72.0472 12.6837 71.9759 12.7857 71.9157C12.9997 71.7704 13.266 71.5896 13.5819 71.3751C14.254 70.9188 15.1752 70.2782 16.1685 69.5372C17.1609 68.7956 18.0369 68.0946 18.6653 67.5799C18.9608 67.338 19.2099 67.134 19.41 66.9701C19.4967 66.8894 19.5921 66.8186 19.6945 66.759V66.759Z" fill="#E34C67"/>
<g opacity="0.6" filter="url(#filter0_f)">
<path d="M48.0435 31.2893C48.0435 29.5551 49.4493 28.1492 51.1836 28.1492H63.8424C65.5622 28.1492 66.9563 29.5433 66.9563 31.2631C66.9563 32.9829 65.5622 34.3771 63.8424 34.3771H48.0435V31.2893Z" fill="#FF6782"/>
</g>
<path fill-rule="evenodd" clip-rule="evenodd" d="M50.1403 13.8616C48.4061 13.8616 47.0002 15.2675 47.0002 17.0017V33.8887H64.8599C66.5941 33.8887 68 32.4828 68 30.7485V17.0017C68 15.2675 66.5941 13.8616 64.8599 13.8616H50.1403ZM47 33.8887H48.5652L47.4405 34.9417C47.2734 35.0982 47 34.9796 47 34.7506V33.8887Z" fill="#FF6782"/>
<path d="M48.0435 20.0198C48.0435 18.5746 49.215 17.403 50.6602 17.403H64.3396C65.7848 17.403 66.9563 18.5746 66.9563 20.0198V30.295C66.9563 31.7402 65.7848 32.9118 64.3396 32.9118H50.6602C49.215 32.9118 48.0435 31.7402 48.0435 30.295V20.0198Z" fill="#5EFFCF"/>
<path d="M63.0995 21.8555C63.2495 21.5915 63.5833 21.47 63.8843 21.5698C64.1854 21.6697 64.363 21.9608 64.302 22.2543C64.241 22.5478 63.9597 22.7553 63.6406 22.7422C63.3228 22.7291 63.0655 22.5047 62.8486 22.2867" fill="#4D515F"/>
<path d="M62.8456 21.7442C62.8524 21.712 62.8727 21.6837 62.9019 21.6655C62.9311 21.6474 62.9668 21.6409 63.0011 21.6476C63.0703 21.6648 63.1239 21.7161 63.1407 21.7813C63.1563 21.8456 63.1533 21.9126 63.132 21.9755C63.1036 22.0745 63.055 22.1673 62.9887 22.2488C62.9437 22.3043 62.8715 22.3587 62.802 22.3337C62.729 22.3074 62.7177 22.2158 62.7251 22.1429C62.742 21.9772 62.7929 21.8162 62.8748 21.6685" fill="#FFB100"/>
<path d="M61.0522 19.1007C60.7117 18.6345 60.2693 18.223 59.729 17.9718C59.1887 17.7205 58.5446 17.6409 57.9728 17.8208C57.401 18.0008 56.9209 18.4594 56.8091 19.0145C56.7206 19.4544 56.7969 20.139 56.4456 20.4426C55.7269 21.0639 55.8353 22.2406 56.2585 22.9129C56.2585 22.9129 56.912 23.6526 56.2065 24.3377C56.2065 24.3377 55.79 24.614 55.9982 25.3629C56.3231 26.5314 54.902 27.1805 55.7612 26.9988L58.6349 26.702L58.9573 23.6526" fill="#4D515F"/>
<path d="M62.749 20.7458C62.929 20.8698 62.9922 21.0995 62.9755 21.3081C62.9588 21.5167 62.8763 21.7149 62.8192 21.9172C62.7622 22.1195 62.7315 22.34 62.8157 22.5337C62.9597 22.8647 63.3703 22.9993 63.682 23.2056C64.17 23.5365 64.4402 24.0803 64.3962 24.6429C64.3815 24.8045 64.3416 24.9735 64.405 25.1245C64.4774 25.2972 64.6657 25.4005 64.78 25.552C64.9588 25.7891 64.9322 26.121 64.7945 26.381C64.6568 26.6411 64.4256 26.8453 64.1992 27.0436C63.1384 26.1811 61.9563 25.4587 60.686 24.8966" fill="#4D515F"/>
<path d="M52.0003 25.0637L50.5937 25.489C50.5937 25.489 49.6165 24.927 49.5611 24.7205C49.5034 24.5052 49.6078 24.4828 49.6457 24.4867C49.6457 24.4867 49.2971 24.2017 49.4819 23.9413C49.4819 23.9413 49.1715 23.6344 49.3803 23.451L49.4934 23.3645C49.4934 23.3645 49.3425 23.0814 49.4631 22.8677C49.5048 22.7976 49.5953 22.7669 49.6752 22.7959L50.8258 23.1973L51.5619 23.659L52.0003 25.0637Z" fill="#FFC9AF"/>
<path d="M50.2813 23.2192L49.8884 21.8834L49.5635 21.8546L49.8706 22.9153L50.2813 23.2192Z" fill="#FAFAFA"/>
<path d="M51.8799 24.6483L51.5341 23.5716L50.288 22.699C50.2102 22.8226 50.2107 22.976 50.2891 23.0991C50.4208 23.3196 50.6108 23.4984 50.6533 23.5596C50.6958 23.6208 50.874 23.9393 50.874 23.9393C50.874 23.9393 50.6836 24.3172 50.8343 24.8283" fill="#FFC9AF"/>
<g style="mix-blend-mode:multiply">
<path d="M50.834 24.8282C50.8319 24.8071 50.828 24.7862 50.8222 24.7658C50.8171 24.7456 50.8122 24.7205 50.8078 24.6906C50.8021 24.6609 50.7972 24.6264 50.7938 24.5875C50.7841 24.4934 50.7842 24.3987 50.794 24.3046C50.8056 24.1811 50.8369 24.0599 50.8869 23.9451L50.8899 23.9386L50.8867 23.933C50.8374 23.8473 50.7849 23.7558 50.7294 23.6593C50.7155 23.6351 50.7014 23.6106 50.6871 23.5858C50.6798 23.5734 50.6732 23.5609 50.6651 23.5485C50.6559 23.5358 50.6463 23.5244 50.6366 23.5131C50.5974 23.4688 50.5574 23.4234 50.5166 23.3771C50.4323 23.2822 50.358 23.1798 50.2947 23.0715C50.2311 22.9572 50.2343 22.8204 50.3033 22.7089L50.2765 22.7131C50.3104 22.7368 50.3468 22.7623 50.3834 22.7879C50.8043 23.0814 51.1963 23.3546 51.5245 23.5834L51.5188 23.5758C51.6248 23.8968 51.7131 24.1643 51.7762 24.3557C51.8072 24.4465 51.8321 24.5191 51.8503 24.5726C51.8586 24.5953 51.8654 24.6139 51.871 24.6292C51.8661 24.6318 51.864 24.6375 51.8662 24.6424C51.8684 24.6472 51.8742 24.6498 51.8796 24.6483C51.885 24.6467 51.8884 24.6416 51.8874 24.6364C51.8863 24.6312 51.8813 24.6276 51.8757 24.6279C51.8713 24.6123 51.866 24.5932 51.8595 24.57C51.8433 24.5159 51.8212 24.4425 51.7936 24.3508C51.7336 24.1586 51.6497 23.8898 51.549 23.5673L51.5476 23.5627L51.5434 23.5597C51.2162 23.3296 50.8255 23.0549 50.4059 22.7598C50.3693 22.7342 50.3329 22.7087 50.299 22.685L50.2825 22.6734L50.2722 22.6892C50.1957 22.8111 50.1917 22.9615 50.2619 23.0868C50.3267 23.1972 50.4029 23.3013 50.4894 23.3977C50.5306 23.4438 50.5709 23.4889 50.6103 23.533C50.62 23.544 50.6293 23.555 50.6373 23.5658C50.645 23.5776 50.6519 23.5904 50.6592 23.6025C50.6736 23.627 50.6878 23.6512 50.7018 23.6751C50.7579 23.7705 50.8111 23.8609 50.861 23.9456L50.8607 23.9335C50.8106 24.0515 50.7803 24.176 50.7708 24.3027C50.7626 24.3981 50.7649 24.4941 50.7776 24.5891C50.7816 24.6239 50.7876 24.6585 50.7955 24.6926C50.8001 24.7179 50.8063 24.7429 50.8139 24.7676C50.8188 24.7883 50.8255 24.8086 50.834 24.8282Z" fill="#FFC9AF"/>
</g>
<g style="mix-blend-mode:multiply">
<path d="M49.4951 23.3686C49.5209 23.3886 49.5487 23.4062 49.5782 23.4211C49.6395 23.4556 49.7178 23.4998 49.8116 23.5527C49.913 23.6083 50.0307 23.6729 50.1603 23.744C50.2293 23.7889 50.312 23.8116 50.396 23.8085C50.4431 23.8043 50.4867 23.7831 50.5173 23.7492C50.5466 23.7134 50.5615 23.6691 50.5594 23.624C50.5563 23.5326 50.4999 23.4604 50.4498 23.3998C50.4004 23.3406 50.3474 23.2841 50.2912 23.2305C50.1962 23.1398 50.0923 23.0576 49.9809 22.985C49.9059 22.9362 49.8274 22.8924 49.7459 22.8539C49.7168 22.8382 49.6859 22.8258 49.6537 22.8169C49.6807 22.8353 49.7092 22.8517 49.7389 22.8659C49.8169 22.9087 49.8925 22.9552 49.9654 23.0052C50.0731 23.0797 50.1738 23.1626 50.2663 23.2531C50.3209 23.3064 50.3725 23.3624 50.4207 23.4209C50.4701 23.4807 50.5198 23.5483 50.5218 23.6248C50.5237 23.6615 50.5118 23.6977 50.4883 23.7272C50.4638 23.7541 50.429 23.771 50.3914 23.7743C50.3152 23.7767 50.2402 23.7562 50.1773 23.7158C50.0463 23.6472 49.9273 23.5848 49.8248 23.5311C49.7287 23.4821 49.6483 23.4412 49.5854 23.4092C49.5568 23.3929 49.5266 23.3794 49.4951 23.3686H49.4951Z" fill="#FFC9AF"/>
</g>
<path d="M49.4824 23.9414C49.5047 23.9622 49.5293 23.9807 49.5559 23.9965C49.6048 24.0299 49.6765 24.077 49.7669 24.1328C49.8725 24.1989 49.9817 24.2597 50.0942 24.315C50.1275 24.3335 50.1641 24.3464 50.2022 24.353C50.2451 24.3585 50.2886 24.3479 50.3233 24.3235C50.3918 24.27 50.4235 24.1856 50.4059 24.1037C50.3862 24.0272 50.3446 23.9571 50.2855 23.901C50.2341 23.8491 50.1795 23.8002 50.1219 23.7545C50.0246 23.6778 49.922 23.607 49.8149 23.5427C49.724 23.4874 49.6485 23.4459 49.5961 23.4176C49.5698 23.4014 49.5417 23.3879 49.5124 23.3772C49.5357 23.3969 49.5612 23.4144 49.5883 23.4293C49.6446 23.4648 49.7155 23.5098 49.8001 23.5633C49.904 23.6299 50.0039 23.7019 50.0993 23.779C50.1551 23.8245 50.2081 23.8729 50.258 23.924C50.3122 23.9756 50.3505 24.04 50.369 24.1102C50.3838 24.179 50.3579 24.2499 50.3013 24.2959C50.2744 24.3152 50.2404 24.3238 50.2068 24.3197C50.1729 24.3139 50.1402 24.3026 50.1103 24.2863C49.9826 24.2266 49.8734 24.1647 49.7812 24.1118C49.6945 24.0612 49.6217 24.0188 49.5641 23.9852C49.5385 23.9681 49.5111 23.9535 49.4824 23.9414H49.4824Z" fill="#FF9A6C"/>
<path d="M49.646 24.4867C49.6638 24.5027 49.6837 24.5164 49.7053 24.5275C49.7448 24.5517 49.8019 24.5866 49.8746 24.6272C49.9596 24.6757 50.0485 24.7179 50.1405 24.7535C50.1955 24.7756 50.253 24.792 50.3119 24.8023C50.3463 24.8077 50.3816 24.8032 50.4132 24.7892C50.4461 24.7709 50.4673 24.7388 50.4702 24.7031C50.4745 24.671 50.4716 24.6384 50.4618 24.6074C50.4525 24.5772 50.4351 24.5496 50.4114 24.5273C50.3717 24.4859 50.3282 24.4479 50.2814 24.4137C50.2034 24.356 50.1217 24.303 50.0366 24.2549C49.9644 24.2135 49.9044 24.1826 49.8624 24.1624C49.8415 24.1502 49.8187 24.1409 49.7949 24.1348C49.8132 24.1501 49.8334 24.1634 49.8551 24.1743C49.9017 24.2025 49.9574 24.2364 50.0223 24.2758C50.1043 24.3263 50.1834 24.3807 50.2595 24.4388C50.3386 24.506 50.4538 24.5804 50.4331 24.6982C50.4318 24.7229 50.4177 24.7455 50.3953 24.7585C50.3705 24.769 50.343 24.7723 50.3162 24.7681C50.2603 24.7585 50.2057 24.7435 50.1531 24.7233C50.062 24.6896 49.9733 24.6503 49.8877 24.6056C49.81 24.5611 49.7293 24.5214 49.646 24.4867H49.646Z" fill="#FF9A6C"/>
<path d="M49.5752 24.7358C49.5828 24.7557 49.5939 24.7742 49.6079 24.7906C49.6421 24.838 49.6802 24.8826 49.722 24.9242C49.784 24.986 49.8515 25.0428 49.9237 25.0939C49.9642 25.1229 50.0079 25.152 50.0541 25.1807C50.1014 25.2142 50.1548 25.2394 50.2116 25.2551C50.2443 25.2626 50.2787 25.2588 50.3086 25.2445C50.3372 25.2293 50.3587 25.2047 50.3691 25.1755C50.3853 25.1232 50.3791 25.067 50.352 25.0188C50.3138 24.9409 50.2629 24.8691 50.2009 24.806C50.1594 24.7634 50.1111 24.7271 50.0578 24.6982C50.039 24.6863 50.0179 24.6781 49.9956 24.6741C50.1406 24.7591 50.254 24.884 50.3203 25.0317C50.3428 25.0725 50.3479 25.1197 50.3345 25.1638C50.319 25.2088 50.2679 25.2341 50.2194 25.2207C50.1672 25.2058 50.1181 25.1825 50.0743 25.1519C50.0284 25.1239 49.9849 25.0959 49.9445 25.068C49.8726 25.0189 49.8046 24.9651 49.7411 24.9069C49.6328 24.8069 49.5806 24.7322 49.5752 24.7358Z" fill="#FF9A6C"/>
<path d="M52.1142 25.0271L53.8445 28.4928L55.3559 26.6418C56.3037 25.5114 57.0824 25.2413 57.0824 25.2413L58.4561 24.8967L61.2752 24.7571L61.5172 24.8886L63.213 25.5577C63.213 25.5577 63.0517 27.2728 62.7316 28.635C62.4114 29.9973 62.1466 31.4869 62.1466 31.4869C62.0302 32.4677 61.8122 32.1296 61.8122 32.1296L57.4859 32.6021L56.7041 31.556C56.5144 30.9868 56.3569 30.4086 56.2323 29.8238V29.8239L54.7929 30.7449C54.7929 30.7449 52.6267 31.8834 51.8422 29.9704L50.4795 25.5127L52.1142 25.0271Z" fill="#FFB100"/>
<path d="M56.3213 29.8953C56.3244 29.8616 56.3241 29.8276 56.3206 29.7939C56.3187 29.7614 56.3169 29.7217 56.3173 29.6755C56.3174 29.6293 56.3151 29.5768 56.3184 29.5187C56.3222 29.3828 56.3339 29.2473 56.3536 29.1126C56.402 28.7825 56.4989 28.4603 56.6416 28.1551C56.6999 28.0306 56.7654 27.9091 56.8379 27.7914C56.8674 27.7402 56.8987 27.6966 56.9243 27.6571C56.9497 27.6175 56.9734 27.5845 56.9931 27.5577C57.0149 27.5306 57.034 27.5018 57.0503 27.4716C57.0248 27.4956 57.0016 27.5218 56.9812 27.5498C56.9596 27.5755 56.934 27.6075 56.9068 27.6463C56.8793 27.6849 56.8463 27.728 56.8151 27.7787C56.7387 27.8956 56.6702 28.017 56.61 28.142C56.4622 28.4487 56.3643 28.7745 56.3193 29.1083C56.301 29.2444 56.2919 29.3813 56.2919 29.5184C56.2902 29.5769 56.2944 29.6297 56.2963 29.6761C56.2979 29.7225 56.3019 29.7624 56.306 29.7948C56.3078 29.8287 56.313 29.8623 56.3213 29.8953Z" fill="#F39003"/>
<path d="M56.6023 27.0213C56.5893 27.0258 56.6505 27.1764 56.7376 27.3559C56.8246 27.5357 56.9037 27.6777 56.9132 27.6736C56.9227 27.6696 56.8588 27.5211 56.7719 27.3414C56.7285 27.2516 56.6875 27.171 56.6568 27.1131C56.6425 27.0807 56.6242 27.0499 56.6023 27.0213Z" fill="#F39003"/>
<path d="M53.7215 29.4891C53.7561 29.447 53.7832 29.4 53.8018 29.3498C53.9069 29.1119 53.9383 28.8512 53.8924 28.5974C53.8862 28.5446 53.8709 28.4931 53.8472 28.4449C53.8348 28.4467 53.9034 28.6825 53.8663 28.9756C53.8328 29.269 53.7098 29.4848 53.7215 29.4891Z" fill="#F39003"/>
<path d="M57.5325 20.0526C57.6359 19.3114 58.3717 18.4983 59.9234 18.8363L61.4461 19.3C61.685 19.3389 61.8524 19.5426 61.8314 19.7688L61.2649 25.3825C61.1962 26.063 60.5859 26.5829 59.8558 26.5829C59.4693 26.5828 59.0996 26.4347 58.8326 26.1731C58.5656 25.9114 58.4245 25.5589 58.442 25.1974C58.4746 24.5233 58.4991 23.9808 58.4985 23.9845C58.4985 23.9845 57.4942 23.7629 57.3726 22.5091C57.3121 21.8855 57.4177 20.876 57.5325 20.0526Z" fill="#FFC9AF"/>
<path d="M57.9268 20.9076C57.9197 20.9938 57.9873 21.0696 58.0792 21.0784C58.1226 21.0844 58.1668 21.0737 58.2017 21.0488C58.2366 21.0239 58.2593 20.9868 58.2646 20.946C58.2717 20.8598 58.2042 20.7841 58.1124 20.7751C58.069 20.7691 58.0247 20.7797 57.9898 20.8047C57.9548 20.8297 57.9321 20.8668 57.9268 20.9076Z" fill="#1A2E35"/>
<path d="M59.6768 20.9924C59.6697 21.0786 59.7373 21.1544 59.8291 21.1632C59.8726 21.1692 59.9168 21.1585 59.9517 21.1336C59.9866 21.1086 60.0093 21.0716 60.0146 21.0308C60.0217 20.9446 59.9542 20.8688 59.8624 20.8599C59.8189 20.8538 59.7747 20.8645 59.7397 20.8895C59.7048 20.9144 59.6821 20.9515 59.6768 20.9924Z" fill="#1A2E35"/>
<g style="mix-blend-mode:multiply">
<path d="M58.4171 21.7575C58.4664 21.6724 58.5181 21.5832 58.5722 21.4898C58.7883 21.1084 58.9471 20.7934 58.927 20.7861C58.9069 20.7788 58.7155 21.082 58.4995 21.4635C58.8576 20.8169 58.7569 20.9968 58.35 21.7332C58.3298 21.7733 58.2965 21.8182 58.317 21.8744C58.3311 21.903 58.358 21.9244 58.3904 21.933C58.416 21.9403 58.4424 21.9451 58.4691 21.9472C58.6538 21.9679 58.7687 21.9766 58.7699 21.9685C58.7712 21.9604 58.6586 21.9372 58.4757 21.906" fill="#FFC9AF"/>
</g>
<g style="mix-blend-mode:multiply">
<path d="M58.4985 23.9845C59.1218 24.0325 59.7472 23.9177 60.3049 23.6526C60.3049 23.6526 59.7945 24.5002 58.4766 24.3009L58.4985 23.9845Z" fill="#FFC9AF"/>
</g>
<g style="mix-blend-mode:multiply">
<path d="M59.2995 22.1185C59.2699 22.115 59.2562 22.3008 59.0768 22.4221C58.8978 22.5438 58.6877 22.5096 58.6843 22.5355C58.6807 22.547 58.7288 22.5746 58.8179 22.5825C58.9341 22.5913 59.0499 22.5615 59.1449 22.4983C59.2361 22.4375 59.2985 22.346 59.3189 22.2429C59.332 22.1657 59.3132 22.1183 59.2995 22.1185Z" fill="#FFC9AF"/>
</g>
<path d="M59.5089 20.3077C59.5236 20.3553 59.7078 20.3448 59.9206 20.3824C60.1342 20.4161 60.303 20.4858 60.3345 20.4458C60.3486 20.4266 60.3216 20.3809 60.2549 20.3315C60.0737 20.2077 59.8417 20.1688 59.6259 20.2262C59.545 20.251 59.5027 20.2851 59.5089 20.3077Z" fill="#71778B"/>
<path d="M57.7849 20.2914C57.8143 20.3323 57.9432 20.2999 58.0948 20.3075C58.2467 20.3101 58.3727 20.3512 58.4052 20.3123C58.4195 20.2934 58.4021 20.2532 58.3487 20.2129C58.2011 20.113 58.0038 20.1063 57.8489 20.196C57.7926 20.2326 57.7721 20.2716 57.7849 20.2914Z" fill="#71778B"/>
<path d="M60.2724 18.931C60.0233 19.305 59.3393 19.2494 58.8698 19.2814C58.7575 19.289 58.6442 19.2849 58.5329 19.3007C58.4199 19.3117 58.3143 19.3584 58.2336 19.4331C58.135 19.5348 58.1165 19.6818 58.0597 19.8084C57.947 20.0498 57.6983 20.2108 57.4172 20.2243C57.3391 20.227 57.2478 20.21 57.2124 20.1447C57.1939 20.0981 57.1923 20.0471 57.2078 19.9995C57.2746 19.6747 57.3487 19.3437 57.5297 19.0598C57.7401 18.7331 58.0756 18.4939 58.4679 18.391C58.8562 18.2908 59.791 18.3428 60.1454 18.5219" fill="#4D515F"/>
<path d="M60.3266 18.4502C59.8535 18.992 59.8726 19.8561 60.3693 20.379C60.6522 20.6768 61.0925 20.9285 61.0841 21.327C61.0748 21.7684 60.4996 22.0482 60.4545 22.4877C60.4082 22.9394 60.936 23.2765 60.9999 23.7264C61.0513 24.0885 60.7893 24.424 60.5 24.6691C60.2107 24.9143 59.8714 25.1246 59.6805 25.4432C59.47 25.7945 59.4754 26.2322 59.6069 26.6158C59.7385 26.9994 59.9842 27.3388 60.2405 27.6623C60.6411 27.5662 61.0531 27.5178 61.4666 27.5183C61.4556 27.3711 61.4445 27.2239 61.4334 27.0767C61.4075 27.2445 61.5437 27.4051 61.7096 27.4732C61.8755 27.5413 62.0638 27.5373 62.2445 27.5268C62.799 27.4945 63.349 27.4127 63.8869 27.2826C63.686 27.0548 63.4817 26.8216 63.3701 26.5454C63.2586 26.2691 63.2546 25.9371 63.4393 25.6976C63.5878 25.5051 63.8371 25.3949 63.976 25.1962C64.1843 24.8983 64.079 24.4866 63.8547 24.199C63.6304 23.9114 63.308 23.7069 63.0315 23.4624C62.755 23.2178 62.5105 22.8984 62.5221 22.5425C62.5372 22.0805 62.9761 21.6973 62.9737 21.2351C62.9709 20.7088 62.414 20.3381 62.2309 19.8405C62.0984 19.4804 62.1565 19.107 61.9292 18.7912C61.761 18.5572 61.4623 18.3809 61.1613 18.369C60.8604 18.3572 60.597 18.3259 60.3266 18.4502" fill="#4D515F"/>
<path d="M63.1455 22.0222C63.2065 22.0298 63.268 22.034 63.3296 22.0346C63.4761 22.0411 63.62 22.0736 63.7536 22.1302C63.8852 22.1896 63.9919 22.2883 64.0568 22.4108C64.0795 22.4634 64.097 22.5179 64.1089 22.5736C64.1139 22.5583 64.115 22.5422 64.1123 22.5265C64.1093 22.4833 64.0987 22.4409 64.0811 22.4009C64.0199 22.2683 63.9095 22.1609 63.7702 22.0987C63.6324 22.0395 63.4824 22.0091 63.3308 22.0097C63.2687 22.0056 63.2063 22.0098 63.1455 22.0222H63.1455Z" fill="#858DA6"/>
<path d="M60.0586 19.0903C60.0575 19.1042 60.0582 19.1181 60.0606 19.1319C60.0636 19.1716 60.0693 19.2112 60.0778 19.2503C60.1065 19.395 60.1587 19.5348 60.2326 19.6648C60.341 19.8591 60.4909 20.0305 60.673 20.1682C60.7799 20.2504 60.8981 20.3188 61.0243 20.3717C61.1604 20.4253 61.3011 20.468 61.4449 20.4995C61.5864 20.5295 61.7226 20.5783 61.8494 20.6443C61.9641 20.7094 62.0544 20.8062 62.1079 20.9213C62.2117 21.1421 62.2272 21.3686 62.3091 21.541C62.3436 21.6191 62.3906 21.6918 62.4484 21.7566C62.4925 21.8056 62.5464 21.846 62.607 21.8757C62.6454 21.8941 62.6869 21.9061 62.7297 21.9112C62.7445 21.913 62.7595 21.9133 62.7744 21.9119C62.7183 21.9045 62.664 21.8882 62.6138 21.8636C62.5565 21.8328 62.5058 21.7922 62.4644 21.744C62.4099 21.6795 62.3658 21.608 62.3336 21.5315C62.2567 21.3632 62.2446 21.1375 62.1394 20.9079C62.0838 20.7863 61.9892 20.684 61.8687 20.615C61.7392 20.5468 61.5997 20.4964 61.4547 20.4655C61.3128 20.4345 61.1739 20.3926 61.0393 20.3403C60.9157 20.289 60.7998 20.2226 60.6947 20.1429C60.5149 20.0088 60.3657 19.8422 60.256 19.653C60.1812 19.5258 60.1259 19.3893 60.0921 19.2475C60.0675 19.1472 60.0629 19.0898 60.0586 19.0903Z" fill="#858DA6"/>
<path d="M56.5632 20.3737C56.5803 20.354 56.5994 20.336 56.6204 20.32C56.682 20.2822 56.7554 20.2649 56.8288 20.2708C56.8756 20.2718 56.927 20.278 56.9836 20.2821C57.1832 20.2953 57.3833 20.2624 57.5662 20.1864C57.7982 20.0901 57.9921 19.9279 58.1202 19.7228C58.1585 19.6613 58.1901 19.5964 58.2144 19.529C58.225 19.5048 58.2317 19.4793 58.2344 19.4532C58.1946 19.5414 58.1489 19.6271 58.0975 19.7099C57.8927 20.0166 57.5466 20.2162 57.1618 20.2492C57.1032 20.2543 57.0443 20.2555 56.9855 20.253C56.9302 20.2503 56.8777 20.2454 56.8291 20.2459C56.7507 20.2421 56.6735 20.2646 56.6114 20.3093C56.5951 20.322 56.5814 20.3373 56.571 20.3545C56.564 20.3663 56.5623 20.3733 56.5632 20.3737Z" fill="#858DA6"/>
<path d="M56.7852 19.4397C56.7991 19.4413 56.8132 19.4413 56.8272 19.4398C56.8673 19.4371 56.9071 19.4313 56.9462 19.4225C57.0914 19.3898 57.2252 19.3225 57.3343 19.2269C57.4094 19.1607 57.4717 19.0827 57.5184 18.9966C57.5702 18.9051 57.6126 18.8026 57.6644 18.6992C57.7141 18.5903 57.7874 18.4922 57.8797 18.4112C57.9824 18.3282 58.1046 18.2689 58.2363 18.2382C58.5082 18.1702 58.7828 18.2161 59.0125 18.2869C59.217 18.355 59.4165 18.4355 59.6099 18.5278C59.7773 18.6035 59.9156 18.6604 60.0134 18.6942C60.0623 18.7111 60.1007 18.723 60.127 18.7303C60.1254 18.7403 60.1322 18.7499 60.1427 18.7524C60.1533 18.7548 60.1641 18.7494 60.1677 18.7397C60.1713 18.7301 60.1664 18.7195 60.1565 18.7153C60.1465 18.7111 60.1349 18.7147 60.1295 18.7236C60.1004 18.7125 60.0637 18.6986 60.0188 18.6815C59.9231 18.644 59.7874 18.584 59.6216 18.5054C59.4286 18.4094 59.2288 18.3261 59.0234 18.2562C58.7912 18.1827 58.5088 18.1338 58.2267 18.2042C58.0893 18.2363 57.962 18.2984 57.8553 18.3855C57.7596 18.4698 57.6839 18.572 57.6331 18.6855C57.5813 18.7908 57.5403 18.893 57.4907 18.9831C57.3817 19.1921 57.182 19.3473 56.9425 19.4092C56.843 19.4354 56.7847 19.4358 56.7852 19.4397Z" fill="#858DA6"/>
<path d="M61.9151 19.1915C61.9129 19.1664 61.9066 19.1417 61.8966 19.1183C61.8733 19.0531 61.8412 18.991 61.8011 18.9334C61.5286 18.5271 60.9629 18.3936 60.5172 18.6303C60.4528 18.6632 60.393 18.7036 60.3395 18.7506C60.3188 18.7668 60.3009 18.7858 60.2861 18.8069C60.3621 18.7485 60.4436 18.6967 60.5296 18.6522C60.9653 18.4361 61.505 18.5635 61.7791 18.9472C61.8323 19.0246 61.8779 19.1064 61.9151 19.1915Z" fill="#858DA6"/>
<path d="M62.8767 27.3345C62.8769 27.332 62.8459 27.3324 62.7895 27.3208C62.7072 27.3037 62.6304 27.2688 62.565 27.219C62.4611 27.1407 62.3812 27.0381 62.3336 26.9215C62.3029 26.8495 62.2843 26.7736 62.2783 26.6963C62.2729 26.6095 62.28 26.5224 62.2993 26.4373C62.3496 26.2424 62.435 26.0569 62.5518 25.8887C62.6722 25.7039 62.8231 25.5184 62.9544 25.3052C63.0229 25.1962 63.0788 25.0807 63.1212 24.9606C63.1632 24.8341 63.1843 24.7023 63.1836 24.5697C63.1808 24.2899 63.0903 24.0169 62.9235 23.7847C62.8395 23.6671 62.7365 23.5624 62.618 23.4746C62.5006 23.3938 62.3753 23.3234 62.2439 23.2644C62.1193 23.2083 62.0014 23.1399 61.8924 23.0602C61.7913 22.9816 61.7135 22.8798 61.6667 22.7649C61.5767 22.5382 61.5904 22.2992 61.6241 22.0873C61.6598 21.8735 61.7116 21.6757 61.7316 21.4904C61.7521 21.3236 61.7433 21.1548 61.7057 20.9906C61.6799 20.8659 61.6303 20.7467 61.5592 20.6386C61.5139 20.5701 61.4509 20.5133 61.3762 20.4734C61.3569 20.4629 61.3364 20.4546 61.3152 20.4486C61.3082 20.4459 61.3009 20.4439 61.2935 20.4427C61.2923 20.4455 61.323 20.4517 61.3724 20.4795C61.444 20.5211 61.5038 20.5782 61.5469 20.646C61.6146 20.7536 61.6614 20.8716 61.6852 20.9946C61.7201 21.1569 61.7269 21.3234 61.7052 21.4877C61.6838 21.6707 61.6308 21.8673 61.5934 22.0829C61.5581 22.297 61.5419 22.5403 61.6344 22.7764C61.6829 22.8968 61.7638 23.0034 61.8693 23.0859C61.98 23.1674 62.0999 23.2375 62.2269 23.2949C62.3561 23.3532 62.4793 23.4226 62.5949 23.5021C62.7102 23.5878 62.8106 23.6897 62.8923 23.8043C63.055 24.0308 63.1435 24.2969 63.1468 24.5699C63.1477 24.6989 63.1275 24.8272 63.087 24.9505C63.0457 25.0685 62.9912 25.182 62.9243 25.2891C62.7955 25.5004 62.6456 25.6864 62.5252 25.8736C62.4077 26.045 62.3225 26.234 62.2732 26.4324C62.2543 26.5197 62.248 26.609 62.2545 26.698C62.2615 26.7773 62.2816 26.8552 62.3141 26.9288C62.3645 27.0477 62.448 27.1516 62.5561 27.2299C62.6238 27.2796 62.7034 27.3132 62.788 27.3277C62.8172 27.3333 62.8469 27.3356 62.8767 27.3345Z" fill="#858DA6"/>
<path d="M57.1028 25.2918C57.0485 25.2417 57.0068 25.1809 56.9807 25.1139C56.9316 24.985 56.931 24.7753 57.03 24.5462C57.0759 24.4305 57.1381 24.3071 57.1844 24.1661C57.2086 24.0929 57.2237 24.0173 57.2293 23.9408C57.228 23.9012 57.2267 23.861 57.2254 23.8203C57.2213 23.7798 57.2101 23.7397 57.2025 23.6985C57.1517 23.5313 57.0701 23.3737 56.9615 23.2327C56.8545 23.0837 56.7309 22.9392 56.6167 22.7841C56.5031 22.6294 56.4035 22.4681 56.3614 22.2967C56.3201 22.1315 56.3401 21.9581 56.4182 21.805C56.4915 21.6671 56.5835 21.5385 56.6919 21.4226C56.7904 21.3102 56.8883 21.2087 56.9633 21.105C57.0329 21.013 57.0899 20.9133 57.133 20.8081C57.1651 20.7282 57.1826 20.6438 57.185 20.5584C57.186 20.5046 57.1784 20.4509 57.1626 20.3991C57.1569 20.3812 57.1497 20.3637 57.1409 20.3469C57.1624 20.4154 57.1723 20.4867 57.1703 20.5581C57.1655 20.6414 57.1462 20.7235 57.1133 20.8012C57.0689 20.9038 57.0112 21.0011 56.9416 21.0907C56.8664 21.1919 56.7681 21.2917 56.668 21.404C56.5566 21.5211 56.462 21.6514 56.3867 21.7915C56.3046 21.9509 56.283 22.1318 56.3255 22.3043C56.369 22.4828 56.4712 22.6478 56.5858 22.804C56.7011 22.9606 56.8248 23.1048 56.931 23.2519C57.0377 23.3894 57.1182 23.5432 57.169 23.7063C57.1763 23.7459 57.1876 23.7846 57.1917 23.8235C57.1933 23.8626 57.1948 23.9012 57.1963 23.9393C57.1914 24.0134 57.1774 24.0867 57.1545 24.1578C57.1105 24.2963 57.0499 24.4202 57.0051 24.5376C56.9077 24.7713 56.912 24.9875 56.967 25.1185C56.987 25.1693 57.0178 25.2158 57.0575 25.2551C57.0677 25.2654 57.0787 25.2748 57.0904 25.2834C57.0982 25.2894 57.1024 25.2922 57.1028 25.2918Z" fill="#858DA6"/>
<path d="M64.5187 26.5173C64.5311 26.5002 64.5407 26.4814 64.5473 26.4615C64.566 26.4042 64.5696 26.3435 64.5579 26.2845C64.5391 26.1916 64.4994 26.1034 64.4415 26.0259C64.3779 25.9337 64.2885 25.8406 64.2145 25.7242C64.1377 25.595 64.0974 25.4495 64.0975 25.3015C64.0991 25.1306 64.1127 24.96 64.138 24.7908C64.1566 24.6111 64.1724 24.4148 64.1138 24.22C64.049 24.0216 63.9309 23.8421 63.7708 23.6987C63.6142 23.5564 63.4484 23.4233 63.2743 23.3001C63.1143 23.1849 62.9632 23.0593 62.822 22.9243C62.5517 22.6676 62.354 22.3918 62.2685 22.1308C62.2296 22.0139 62.2053 21.8931 62.1961 21.7709C62.1908 21.6784 62.1928 21.5856 62.2019 21.4933C62.2062 21.4558 62.2101 21.4221 62.2135 21.3923C62.2184 21.3641 62.2226 21.3396 62.2262 21.3188C62.229 21.3006 62.2314 21.2857 62.2333 21.2734C62.2345 21.2682 62.2349 21.2629 62.2345 21.2576C62.232 21.2624 62.2304 21.2674 62.2295 21.2726C62.2266 21.2848 62.2231 21.2995 62.2188 21.3175C62.2141 21.3382 62.2087 21.3626 62.2024 21.3907C62.198 21.4206 62.193 21.4543 62.1874 21.4919C62.1755 21.5848 62.1714 21.6785 62.1751 21.772C62.1823 21.8962 62.2051 22.0191 62.2431 22.1383C62.3269 22.4049 62.526 22.6869 62.7972 22.9469C62.9387 23.0835 63.0905 23.2106 63.2513 23.3271C63.4239 23.4497 63.5884 23.582 63.7439 23.7233C63.8997 23.8625 64.0148 24.0367 64.0783 24.2293C64.1354 24.4164 64.1213 24.6087 64.1036 24.7876C64.079 24.9582 64.0665 25.1303 64.0663 25.3025C64.0677 25.4549 64.1108 25.6045 64.1917 25.7369C64.2693 25.8555 64.3598 25.947 64.424 26.0369C64.4819 26.1116 64.5226 26.1968 64.5435 26.2869C64.5564 26.344 64.5552 26.403 64.54 26.4595C64.5284 26.4979 64.5167 26.5165 64.5187 26.5173Z" fill="#858DA6"/>
<path d="M60.8012 27.6202C60.7357 27.5379 60.6789 27.4497 60.6318 27.357C60.4121 26.9203 60.4691 26.4056 60.7798 26.0203C60.9092 25.8513 61.0769 25.6924 61.2475 25.5195C61.4184 25.348 61.5892 25.151 61.6959 24.9107C61.7517 24.7886 61.7806 24.6573 61.7811 24.5245C61.7785 24.3871 61.7391 24.2525 61.6667 24.1329C61.5215 23.8916 61.3066 23.7109 61.1595 23.4984C61.0849 23.3962 61.0325 23.2813 61.0052 23.1602C60.9828 23.0433 60.9812 22.9237 61.0004 22.8063C61.0361 22.5754 61.1287 22.368 61.2201 22.1783C61.3107 22.0034 61.3912 21.8241 61.4614 21.6411C61.5893 21.3012 61.5527 20.992 61.4632 20.811C61.4313 20.7399 61.3859 20.6748 61.3292 20.6187C61.31 20.599 61.2888 20.581 61.266 20.5649C61.2645 20.5664 61.2871 20.5843 61.3236 20.6235C61.377 20.6806 61.4197 20.7458 61.4498 20.8164C61.5335 20.9961 61.5655 21.2989 61.4362 21.6333C61.3646 21.8147 61.283 21.9926 61.1918 22.1662C61.099 22.3559 61.0036 22.5656 60.9661 22.8017C60.9459 22.9227 60.9472 23.046 60.97 23.1666C60.9978 23.2921 61.0517 23.4112 61.1287 23.5172C61.2792 23.7346 61.4934 23.9157 61.6338 24.1498C61.7033 24.2643 61.7411 24.3932 61.7438 24.5249C61.7433 24.653 61.7155 24.7798 61.6619 24.8977C61.5582 25.1321 61.3916 25.3261 61.222 25.4977C61.0528 25.6704 60.8847 25.8312 60.7544 26.0034C60.6294 26.1613 60.5432 26.3431 60.5021 26.5359C60.4697 26.6948 60.4687 26.8579 60.4993 27.0171C60.5215 27.137 60.5617 27.2534 60.6186 27.3629C60.6541 27.4321 60.6967 27.4978 60.746 27.559C60.7627 27.5781 60.776 27.5933 60.7864 27.6053C60.7907 27.6108 60.7957 27.6158 60.8012 27.6202Z" fill="#858DA6"/>
<path d="M60.996 31.7032L59.7595 28.9166L55.6133 30.6948L57.9274 35.7228L62.1409 34.2884L60.996 31.7032Z" fill="#FF6782"/>
<g opacity="0.3">
<path d="M60.996 31.7032L59.7595 28.9166L55.6133 30.6948L57.9274 35.7228L62.1409 34.2884L60.996 31.7032Z" fill="#FF6782"/>
</g>
<path d="M55.6127 30.6948L57.9268 35.7228L57.095 36L54.812 31.0543L55.6127 30.6948Z" fill="#E34C67"/>
<path d="M59.1604 29.1246L58.8769 28.5916L55.0049 30.3505L55.2025 30.825L59.1604 29.1246Z" fill="#E1E1E1"/>
<path d="M59.5951 28.9869L59.4832 28.7465L55.0649 30.6948L55.1452 30.9048L59.5951 28.9869Z" fill="#FAFAFA"/>
<path d="M55.5139 31.6931C55.5043 31.6968 55.8385 32.4627 56.2601 33.4034C56.6819 34.3444 57.0315 35.104 57.041 35.1002C57.0506 35.0965 56.7165 34.3308 56.2947 33.3898C55.8731 32.449 55.5234 31.6893 55.5139 31.6931Z" fill="white"/>
<path d="M55.9575 30.5519C55.9575 30.5519 56.24 30.0377 56.748 30.2112C56.9479 30.2794 57.3969 31.5472 57.3969 31.5472L57.1062 31.4617L56.9258 31.7431C56.9258 31.7431 56.3478 30.4129 56.2601 30.4244L55.9575 30.5519Z" fill="#5EFFCF"/>
<path d="M57.3618 33.3474C57.4034 33.3378 57.4441 33.3252 57.4836 33.3098C57.5666 33.2807 57.6769 33.242 57.8106 33.1951C58.0862 33.0969 58.466 32.9588 58.8845 32.8044C59.3032 32.6499 59.6813 32.5082 59.9542 32.4041C60.0859 32.353 60.1947 32.3109 60.2764 32.2792C60.3164 32.2653 60.3552 32.2486 60.3924 32.2291C60.3507 32.2387 60.3098 32.2514 60.2702 32.2668C60.1872 32.2959 60.0768 32.3346 59.943 32.3816C59.6674 32.4798 59.2879 32.6178 58.8696 32.7721C58.4514 32.9265 58.0735 33.068 57.8007 33.1721C57.6688 33.2232 57.56 33.2654 57.4782 33.2971C57.4381 33.3111 57.3992 33.3279 57.3618 33.3474Z" fill="white"/>
<path d="M57.5308 33.5638C57.5723 33.5542 57.613 33.5417 57.6525 33.5262C57.7355 33.4972 57.8459 33.4585 57.9796 33.4116C58.2551 33.3133 58.6349 33.1753 59.0534 33.0208C59.4721 32.8663 59.8503 32.7247 60.1231 32.6205C60.2549 32.5695 60.3636 32.5273 60.4454 32.4956C60.4854 32.4817 60.5241 32.465 60.5613 32.4455C60.5196 32.4552 60.4788 32.4678 60.4391 32.4833C60.3561 32.5124 60.2457 32.5511 60.112 32.598C59.8364 32.6963 59.4568 32.8342 59.0385 32.9886C58.6203 33.1429 58.2425 33.2844 57.9696 33.3885C57.8378 33.4396 57.729 33.4818 57.6472 33.5135C57.607 33.5275 57.5681 33.5443 57.5308 33.5638H57.5308Z" fill="white"/>
<path d="M57.623 33.854C57.6646 33.8444 57.7053 33.8318 57.7448 33.8164C57.8278 33.7873 57.9382 33.7486 58.0719 33.7017C58.3474 33.6035 58.7272 33.4654 59.1457 33.311C59.5644 33.1565 59.9426 33.0148 60.2154 32.9107C60.3472 32.8596 60.4559 32.8175 60.5377 32.7858C60.5776 32.7719 60.6164 32.7551 60.6536 32.7357C60.6119 32.7453 60.5711 32.758 60.5314 32.7734C60.4484 32.8025 60.338 32.8412 60.2042 32.8881C59.9287 32.9864 59.5491 33.1244 59.1308 33.2787C58.7126 33.433 58.3348 33.5746 58.0619 33.6787C57.9301 33.7298 57.8213 33.772 57.7394 33.8037C57.6993 33.8176 57.6604 33.8345 57.623 33.854H57.623Z" fill="white"/>
<path d="M59.5548 33.0609L58.9313 33.3543C58.9313 33.3543 58.4344 33.1276 58.1873 33.0934C57.9401 33.0591 56.8752 33.1881 56.8752 33.1881C56.8752 33.1881 56.8484 33.3936 57.0601 33.4552C57.1551 33.4829 57.6796 33.4521 57.6796 33.4521C57.7487 33.5082 57.7819 33.5938 57.7673 33.6784C57.7527 33.7629 57.6923 33.8344 57.6079 33.8672C57.3415 33.9708 57.0322 34.0928 56.9956 34.115C56.9549 34.1397 56.5714 34.0734 56.2864 34.0196C56.1154 33.9873 55.9922 34.192 56.1247 34.2982C56.1369 34.3087 56.152 34.3158 56.1684 34.3185C56.1684 34.3185 55.9119 34.4623 56.3541 34.6422C56.3541 34.6422 56.5042 34.9649 56.7802 34.9871C56.7802 34.9871 57.1032 35.291 57.3052 35.3409C57.5072 35.3907 58.8196 34.9218 58.8196 34.9218L60.0961 34.3022L59.5548 33.0609Z" fill="#FFC9AF"/>
<path fill-rule="evenodd" clip-rule="evenodd" d="M56.7792 34.9887C56.7934 35.0019 57.108 35.294 57.3046 35.3425C57.3172 35.3452 57.3301 35.3464 57.3431 35.3461C57.63 35.3462 58.783 34.9366 58.8194 34.9236L58.8202 34.9233L60.0983 34.3029L60.0977 34.3015L59.5556 33.0586L59.5539 33.0594L58.9311 33.3523L58.9309 33.3522C58.9049 33.3405 58.4265 33.1249 58.1874 33.0917C58.1487 33.0873 58.1097 33.0853 58.0706 33.0859C57.7089 33.0859 56.8842 33.1852 56.8748 33.1864L56.8735 33.1866L56.8733 33.1879C56.873 33.1899 56.8487 33.3955 57.0595 33.4568C57.1521 33.4837 57.6563 33.4551 57.6789 33.4537C57.7472 33.5096 57.7799 33.5945 57.7653 33.6784C57.7507 33.7622 57.6908 33.833 57.607 33.8656C57.348 33.9663 57.0314 34.0911 56.9945 34.1136C56.9637 34.132 56.7121 34.0983 56.2866 34.0179C56.2745 34.0156 56.2621 34.0144 56.2498 34.0144C56.1792 34.0157 56.1155 34.0545 56.0855 34.1143C56.0496 34.1766 56.0655 34.254 56.1234 34.2994C56.1348 34.3091 56.1486 34.3159 56.1635 34.3193C56.1213 34.3437 56.0947 34.3861 56.0927 34.4325C56.0977 34.5043 56.1851 34.5752 56.3526 34.6434C56.382 34.702 56.4188 34.757 56.4621 34.8074C56.5279 34.8837 56.6364 34.9769 56.7792 34.9887ZM58.9333 33.3578L59.5552 33.0653L60.0951 34.3035L58.8201 34.9224C58.8078 34.9268 57.6337 35.345 57.345 35.345C57.3322 35.3453 57.3194 35.344 57.3069 35.3413C57.1077 35.2922 56.7859 34.991 56.7827 34.988L56.7822 34.9875L56.7816 34.9874C56.6397 34.9761 56.5319 34.8833 56.4664 34.8074C56.423 34.7571 56.3863 34.7021 56.357 34.6436L56.3567 34.643L56.3561 34.6428C56.1895 34.575 56.1026 34.5049 56.0977 34.4344C56.1006 34.3879 56.1279 34.3459 56.1705 34.322L56.1749 34.3196L56.1699 34.3189C56.1539 34.3162 56.1391 34.3093 56.1271 34.2991C56.0705 34.2545 56.055 34.1789 56.0901 34.118C56.1247 34.0476 56.2061 34.0085 56.2873 34.0233C56.5428 34.0715 56.8459 34.124 56.9575 34.124C56.9712 34.1252 56.9851 34.1233 56.9979 34.1185C57.0269 34.1009 57.2385 34.0152 57.6098 33.8709C57.6949 33.8378 57.7556 33.7658 57.7703 33.6807C57.785 33.5956 57.7517 33.5094 57.6821 33.4529L57.6815 33.4524H57.6808C57.6755 33.4528 57.1556 33.483 57.0619 33.4557C56.9803 33.4348 56.9159 33.3761 56.8913 33.3003C56.8797 33.2652 56.8752 33.2284 56.8781 33.1917C56.9173 33.187 57.7175 33.0914 58.0719 33.0914C58.1108 33.0908 58.1496 33.0927 58.1883 33.0971C58.4299 33.1307 58.9171 33.3512 58.9315 33.3577L58.9317 33.3578L58.9325 33.3582L58.9333 33.3578Z" fill="#FF9A6C"/>
<path d="M57.7358 34.2641C57.7398 34.2708 57.6644 34.3226 57.5328 34.394C57.4017 34.4625 57.2068 34.5576 56.9656 34.5689C56.7232 34.5763 56.5218 34.4894 56.3878 34.4269C56.2527 34.3613 56.1752 34.3122 56.1788 34.3055C56.1831 34.2976 56.2687 34.3338 56.4067 34.3888C56.5439 34.4413 56.7399 34.5169 56.963 34.5096C57.1861 34.4996 57.3774 34.4153 57.5121 34.3568C57.6472 34.2958 57.7312 34.2565 57.7358 34.2641Z" fill="#FF9A6C"/>
<path d="M57.7906 34.5863C57.7964 34.5921 57.7342 34.6512 57.6118 34.7144C57.5404 34.7515 57.466 34.7835 57.3894 34.81C57.2942 34.8467 57.1919 34.8649 57.089 34.8635C56.9885 34.8532 56.8897 34.8322 56.7945 34.8007C56.7152 34.7762 56.639 34.7526 56.5654 34.7298C56.4352 34.6881 56.356 34.6584 56.3585 34.6505C56.3609 34.6427 56.4447 34.6581 56.5781 34.6895C56.6445 34.7051 56.7244 34.7247 56.8114 34.7483C56.9032 34.7754 56.9976 34.7942 57.0932 34.8042C57.1878 34.8049 57.2817 34.7894 57.3702 34.7583C57.4455 34.7348 57.5194 34.7077 57.5916 34.6769C57.7158 34.6249 57.7847 34.5798 57.7906 34.5863Z" fill="#FF9A6C"/>
<path d="M57.8209 34.9627C57.8312 34.9848 57.597 35.0692 57.3093 35.1532C57.2689 35.1642 57.2262 35.1655 57.1852 35.1568C57.15 35.1516 57.1153 35.1444 57.0811 35.1352C57.0237 35.1202 56.9678 35.1006 56.914 35.0765C56.8218 35.0351 56.7751 34.9931 56.7802 34.9871C56.7856 34.98 56.8388 35.0079 56.9312 35.0377C56.9851 35.0553 57.04 35.0701 57.0957 35.0822C57.1269 35.089 57.16 35.0951 57.1939 35.0992C57.2253 35.1056 57.2579 35.1048 57.2889 35.097C57.435 35.0529 57.5667 35.0194 57.6629 34.9951C57.7597 34.9718 57.8171 34.9572 57.8209 34.9627Z" fill="#FF9A6C"/>
<path d="M63.3056 25.5114C63.3056 25.5114 64.0381 25.9529 64.4752 27.1705C64.8471 28.2061 65.6224 29.8775 65.8782 31.0682C66.0646 31.9361 65.6262 32.9626 64.4728 33.2555L60.0962 34.4872L59.4268 32.9494L63.3552 31.0811L62.2787 28.7845L63.3056 25.5114Z" fill="#FFB100"/>
<path d="M64.7699 33.1472C64.7991 33.1381 64.822 33.131 64.8391 33.1256C64.8419 33.1312 64.8488 33.1338 64.8549 33.1316C64.861 33.1294 64.8643 33.1231 64.8623 33.1173C64.8604 33.1114 64.854 33.1079 64.8476 33.1093C64.8412 33.1107 64.8371 33.1165 64.8381 33.1226C64.8208 33.1272 64.7975 33.1333 64.7679 33.1412C64.7044 33.1587 64.6138 33.1837 64.4974 33.2158C64.2604 33.2826 63.9189 33.3789 63.4934 33.4989C62.6391 33.7429 61.4475 34.0832 60.0907 34.4706L60.1132 34.4806C59.9759 34.165 59.8332 33.837 59.6874 33.5016C59.6049 33.3123 59.5235 33.1253 59.444 32.9427L59.435 32.965C60.2563 32.5845 61.0151 32.2145 61.6808 31.8923C62.3462 31.5694 62.9194 31.2958 63.3598 31.09L63.3579 31.0906C63.504 31.0638 63.6551 31.0742 63.7955 31.1207C63.9372 31.1698 64.0662 31.2464 64.174 31.3455C64.1956 31.3639 64.2158 31.3836 64.2347 31.4045C64.2497 31.42 64.2616 31.4321 64.2707 31.4415C64.2746 31.4459 64.2789 31.45 64.2837 31.4535C64.2807 31.4486 64.2771 31.444 64.273 31.4398C64.2643 31.4299 64.2532 31.4172 64.239 31.4009C64.2209 31.3793 64.2012 31.3589 64.18 31.3398C64.1522 31.3125 64.1224 31.2869 64.0909 31.2633C64.0051 31.1951 63.9069 31.1419 63.801 31.1062C63.6575 31.0568 63.5024 31.0448 63.3523 31.0715L63.3516 31.0717L63.3504 31.0722C62.9079 31.2744 62.3328 31.545 61.6661 31.8655C60.9991 32.1855 60.2396 32.5538 59.4184 32.9337L59.4028 32.9409L59.4094 32.9559C59.4888 33.1385 59.5702 33.3256 59.6526 33.5149C59.7987 33.8502 59.9416 34.1782 60.079 34.4937L60.0854 34.5083L60.1015 34.5037C61.4568 34.1117 62.6471 33.7674 63.5005 33.5205" fill="#F39003"/>
<path d="M63.1137 30.575C63.1881 30.7261 63.249 30.85 63.2937 30.9409C63.3142 30.9809 63.331 31.0135 63.3444 31.0396C63.3356 31.0453 63.3329 31.0562 63.3381 31.0649C63.3432 31.0736 63.3546 31.0771 63.3644 31.0731C63.3741 31.0691 63.3789 31.0588 63.3755 31.0493C63.3721 31.0399 63.3616 31.0345 63.3513 31.0368C63.3396 31.0099 63.325 30.9764 63.3071 30.9353C63.2651 30.8433 63.2078 30.7179 63.138 30.5649C62.99 30.2494 62.7891 29.8212 62.5671 29.3479C62.4556 29.1103 62.3437 28.8862 62.2562 28.6777C62.176 28.4942 62.1173 28.3031 62.0811 28.1078C62.0584 27.976 62.0548 27.8419 62.0704 27.7092C62.0751 27.662 62.0833 27.626 62.0881 27.6014C62.0915 27.589 62.0933 27.5762 62.0934 27.5634C62.0876 27.575 62.0833 27.5872 62.0807 27.5998C62.0698 27.635 62.0615 27.671 62.0559 27.7073C62.0345 27.8412 62.0341 27.9774 62.0548 28.1114C62.0876 28.3094 62.1443 28.5034 62.2239 28.6894C62.3104 28.9002 62.4213 29.1247 62.5327 29.3622" fill="#F39003"/>
<ellipse cx="57.9893" cy="20.9437" rx="0.637248" ry="0.596613" stroke="#4D515F" stroke-width="0.115753"/>
<ellipse cx="59.9248" cy="20.9437" rx="0.637248" ry="0.596613" stroke="#4D515F" stroke-width="0.115753"/>
<path d="M58.6265 20.9437H59.2873" stroke="#4D515F" stroke-width="0.0578767"/>
<path d="M60.8773 20.8586L60.562 20.9436" stroke="#4D515F" stroke-width="0.0578767"/>
</g>
<defs>
<filter id="filter0_f" x="45.4267" y="25.5324" width="24.1464" height="11.4615" filterUnits="userSpaceOnUse" color-interpolation-filters="sRGB">
<feFlood flood-opacity="0" result="BackgroundImageFix"/>
<feBlend mode="normal" in="SourceGraphic" in2="BackgroundImageFix" result="shape"/>
<feGaussianBlur stdDeviation="1.30839" result="effect1_foregroundBlur"/>
</filter>
</defs>
</svg>
